#N canvas 149 50 1468 896 10;
#X obj 28 87 bng 15 250 50 0 empty empty empty 17 7 0 10 -262144 -1
-1;
#X obj 429 87 bng 15 250 50 0 empty empty empty 17 7 0 10 -262144 -1
-1;
#X obj 226 86 bng 15 250 50 0 empty empty empty 17 7 0 10 -262144 -1
-1;
#X obj 621 89 bng 15 250 50 0 empty empty empty 17 7 0 10 -262144 -1
-1;
#X obj 819 88 bng 15 250 50 0 empty empty empty 17 7 0 10 -262144 -1
-1;
#X obj 1005 85 bng 15 250 50 0 empty empty empty 17 7 0 10 -262144
-1 -1;
#X obj 428 137 bng 15 250 50 0 empty empty empty 17 7 0 10 -262144
-1 -1;
#X obj 225 135 bng 15 250 50 0 empty empty empty 17 7 0 10 -262144
-1 -1;
#X obj 621 137 bng 15 250 50 0 empty empty empty 17 7 0 10 -262144
-1 -1;
#X obj 817 134 bng 15 250 50 0 empty empty empty 17 7 0 10 -262144
-1 -1;
#X obj 1007 133 bng 15 250 50 0 empty empty empty 17 7 0 10 -262144
-1 -1;
#X obj 430 185 bng 15 250 50 0 empty empty empty 17 7 0 10 -262144
-1 -1;
#X obj 225 188 bng 15 250 50 0 empty empty empty 17 7 0 10 -262144
-1 -1;
#X obj 621 186 bng 15 250 50 0 empty empty empty 17 7 0 10 -262144
-1 -1;
#X obj 817 187 bng 15 250 50 0 empty empty empty 17 7 0 10 -262144
-1 -1;
#X obj 1010 185 bng 15 250 50 0 empty empty empty 17 7 0 10 -262144
-1 -1;
#X obj 29 135 bng 15 250 50 0 empty empty empty 17 7 0 10 -262144 -1
-1;
#X obj 29 185 bng 15 250 50 0 empty empty empty 17 7 0 10 -262144 -1
-1;
#X obj 431 235 bng 15 250 50 0 empty empty empty 17 7 0 10 -262144
-1 -1;
#X obj 226 236 bng 15 250 50 0 empty empty empty 17 7 0 10 -262144
-1 -1;
#X obj 622 237 bng 15 250 50 0 empty empty empty 17 7 0 10 -262144
-1 -1;
#X obj 820 236 bng 15 250 50 0 empty empty empty 17 7 0 10 -262144
-1 -1;
#X obj 1010 239 bng 15 250 50 0 empty empty empty 17 7 0 10 -262144
-1 -1;
#X obj 29 234 bng 15 250 50 0 empty empty empty 17 7 0 10 -262144 -1
-1;
#X text 29 41 Sampler Manager;
#X obj 550 378 catch~ samp_voice_out;
#X obj 29 110 sampler-voice 1.wav 0;
#X obj 226 259 sampler-voice 20.wav 19;
#X obj 622 260 sampler-voice 22.wav 21;
#X obj 226 110 sampler-voice 2.wav 1;
#X obj 429 110 sampler-voice 3.wav 2;
#X obj 621 109 sampler-voice 4.wav 3;
#X obj 819 109 sampler-voice 5.wav 4;
#X obj 1005 108 sampler-voice 6.wav 5;
#X obj 29 158 sampler-voice 7.wav 6;
#X obj 225 157 sampler-voice 8.wav 7;
#X obj 428 159 sampler-voice 9.wav 8;
#X obj 621 160 sampler-voice 10.wav 9;
#X obj 817 158 sampler-voice 11.wav 10;
#X obj 1007 157 sampler-voice 12.wav 11;
#X obj 29 208 sampler-voice 13.wav 12;
#X obj 225 209 sampler-voice 14.wav 13;
#X obj 430 208 sampler-voice 15.wav 14;
#X obj 621 209 sampler-voice 16.wav 15;
#X obj 817 210 sampler-voice 17.wav 16;
#X obj 1010 211 sampler-voice 18.wav 17;
#X obj 29 260 sampler-voice 19.wav 18;
#X obj 431 262 sampler-voice 21.wav 20;
#X obj 820 260 sampler-voice 23.wav 22;
#X obj 1010 262 sampler-voice 24.wav 23;
#X obj 556 432 *~ 0.25;
#X text 622 424 attenuate key sample level. adjust this if you want
to change their overall level;
#X obj 547 708 dac~;
#X obj 487 585 clip~ -1 1;
#X obj 576 585 clip~ -1 1;
#X obj 1203 441 notein;
#X obj 1203 477 pack;
#X obj 1203 509 spigot 1;
#X obj 1277 457 r midiInGate;
#X obj 1203 542 s notes;
#X obj 264 537 spigot 1;
#X obj 352 493 r midiInGate;
#X obj 264 567 t f b;
#X obj 264 605 / 127;
#X obj 316 600 s knob1Override;
#X obj 264 498 change;
#X obj 265 647 s knob2;
#X text 292 10 -Pass the sound file name as an argument to sampler-voice
\, this replaces \$1 inside sampler-voice. -The sound files must be
in the folder with this patch.;
#X obj 264 470 ctlin 1 1;
#X obj 56 391 loadbang;
#X obj 52 433 delay 100;
#X msg 59 478 \; pd dsp 1 \;;
#X connect 0 0 26 0;
#X connect 1 0 30 0;
#X connect 2 0 29 0;
#X connect 3 0 31 0;
#X connect 4 0 32 0;
#X connect 5 0 33 0;
#X connect 6 0 36 0;
#X connect 7 0 35 0;
#X connect 8 0 37 0;
#X connect 9 0 38 0;
#X connect 10 0 39 0;
#X connect 11 0 42 0;
#X connect 12 0 41 0;
#X connect 13 0 43 0;
#X connect 14 0 44 0;
#X connect 15 0 45 0;
#X connect 16 0 34 0;
#X connect 17 0 40 0;
#X connect 18 0 47 0;
#X connect 19 0 27 0;
#X connect 20 0 28 0;
#X connect 21 0 48 0;
#X connect 22 0 49 0;
#X connect 23 0 46 0;
#X connect 25 0 50 0;
#X connect 50 0 53 0;
#X connect 50 0 54 0;
#X connect 53 0 52 0;
#X connect 54 0 52 1;
#X connect 55 0 56 0;
#X connect 55 1 56 1;
#X connect 56 0 57 0;
#X connect 57 0 59 0;
#X connect 58 0 57 1;
#X connect 60 0 62 0;
#X connect 61 0 60 1;
#X connect 62 0 63 0;
#X connect 62 1 64 0;
#X connect 63 0 66 0;
#X connect 65 0 60 0;
#X connect 68 0 65 0;
#X connect 69 0 70 0;
#X connect 70 0 71 0;
