#N canvas 45 63 1677 694 10;
#X obj 144 120 step-vibrato;
#X obj 355 126 midi-ctrl;
#X obj 143 70 adc~;
#X obj 144 290 dac~;
#X connect 0 0 3 0;
#X connect 0 1 3 1;
#X connect 2 0 0 0;
#X connect 2 1 0 1;
#X coords 0 694 1 693 200 200 0;
