#N canvas 529 109 1920 1033 10;
#X obj 361 126 ctlin 1 1;
#X obj 361 151 / 127;
#X obj 508 159 / 127;
#X obj 676 159 / 127;
#X obj 508 134 ctlin 2 1;
#X obj 676 134 ctlin 3 1;
#X floatatom 361 175 5 0 0 0 - - -, f 5;
#X floatatom 508 209 5 0 0 0 - - -, f 5;
#X floatatom 676 208 5 0 0 0 - - -, f 5;
#X obj 508 184 * 40;
#X obj 491 249 s vibrato-depth;
#X obj 676 183 * 30;
#X obj 676 260 s vibrato-speed;
#X obj 360 217 s output-level;
#X text 109 145 CC1 OUTPUT VOLUME;
#X text 109 164 CC2 VIBRATO DEPTH;
#X text 109 182 CC3 VIBRATO SPEED;
#X connect 0 0 1 0;
#X connect 1 0 6 0;
#X connect 2 0 9 0;
#X connect 3 0 11 0;
#X connect 4 0 2 0;
#X connect 5 0 3 0;
#X connect 6 0 13 0;
#X connect 7 0 10 0;
#X connect 8 0 12 0;
#X connect 9 0 7 0;
#X connect 11 0 8 0;
#X coords 0 -1 1 1 200 130 1 100 100;
