#N canvas 756 154 1003 602 10;
#X obj 786 368 +~;
#X obj 116 213 hsl 128 15 0.5 30 0 1 empty vibrato-speed vibrato-speed
-2 -8 0 10 -262144 -1 -1 1819 0;
#X obj 116 136 hsl 128 15 0 1 0 0 empty output-level output-level -2
-8 0 10 -262144 -1 -1 2600 1;
#X floatatom 539 424 5 0 0 0 - - -, f 5;
#X obj 504 425 *~ 0;
#X obj 786 396 delwrite~ \$0-delay 2000;
#X obj 504 357 vd~ \$0-delay 2000;
#X obj 116 173 hsl 128 15 0 40 0 1 empty vibrato-depth vibrato-depth
-2 -8 0 10 -262144 -1 -1 4200 0;
#X floatatom 603 288 5 0 0 0 - - -, f 5;
#X obj 504 331 *~;
#X msg 786 457 \; pd dsp 1;
#X obj 786 429 loadbang;
#X msg 866 458 \; pd dsp 0;
#X floatatom 515 240 5 0 0 0 - - -, f 5;
#X obj 504 217 pow 2;
#N canvas 704 185 202 319 trapezoid 0;
#X obj 25 124 phasor~ 1;
#X obj 25 199 abs~;
#X obj 25 176 *~ 2;
#X obj 25 251 clip~ 0 0.5;
#X obj 25 152 -~ 0.5;
#X obj 25 19 inlet~;
#X obj 25 282 outlet~;
#X obj 25 225 -~ 0.25;
#X text 74 43 resync;
#X msg 76 98 0.625;
#X msg 76 68 0.125;
#X text 116 67 higher note;
#X text 116 98 lower note;
#X connect 0 0 4 0;
#X connect 1 0 7 0;
#X connect 2 0 1 0;
#X connect 3 0 6 0;
#X connect 4 0 2 0;
#X connect 5 0 0 0;
#X connect 7 0 3 0;
#X connect 9 0 0 1;
#X connect 10 0 0 1;
#X restore 592 314 pd trapezoid;
#N canvas 607 254 240 245 depth 0;
#X obj 28 163 line~;
#X msg 28 137 \$1 100;
#X floatatom 54 111 5 0 0 0 - - -, f 5;
#X obj 28 94 /;
#X obj 36 66 t b f;
#X obj 28 29 inlet;
#X obj 69 29 inlet;
#X obj 28 195 outlet~;
#X connect 0 0 7 0;
#X connect 1 0 0 0;
#X connect 3 0 2 0;
#X connect 3 0 1 0;
#X connect 4 0 3 0;
#X connect 4 1 3 1;
#X connect 5 0 3 0;
#X connect 6 0 4 0;
#X restore 504 279 pd depth;
#X obj 504 449 hip~ 40;
#X text 39 365 Step-vibrato: step-wise modulation of variable speed
delay. The modulator is a trapezoid \, therefore you get three different
tones in a sequence of four notes:;
#X text 40 423 original - lower tone - original - higher tone;
#X text 40 453 Around vibrato depth value ~ 500 \, the lower tone has
playback speed zero. With vibrato depth above 500 \, the speed of the
lower tone is negative so the sound is played backwards.;
#X text 40 562 Katja Vetter jan 2012;
#X text 41 514 A few sweet spots appear on the vibrato depth scale
\, where undertone and overtone harmonize with the original.;
#X obj 774 235 inlet~;
#X obj 868 235 inlet~;
#X obj 504 510 outlet~;
#X obj 572 507 outlet~;
#X connect 0 0 5 0;
#X connect 1 0 8 0;
#X connect 1 0 15 0;
#X connect 1 0 16 1;
#X connect 2 0 3 0;
#X connect 2 0 4 1;
#X connect 4 0 17 0;
#X connect 6 0 4 0;
#X connect 7 0 14 0;
#X connect 9 0 6 0;
#X connect 11 0 10 0;
#X connect 14 0 13 0;
#X connect 14 0 16 0;
#X connect 15 0 9 1;
#X connect 16 0 9 0;
#X connect 17 0 25 0;
#X connect 17 0 26 0;
#X connect 23 0 0 0;
#X connect 24 0 0 1;
#X coords 0 -1 1 1 160 140 1 100 100;
