#N canvas 656 71 819 521 10;
#X obj 352 10 adc~;
#X obj 373 500 dac~;
#X obj 372 414 *~;
#X obj 487 346 line~;
#X msg 487 319 \$1 10;
#X obj 473 231 *~;
#X obj 168 57 hsl 128 15 0 1 0 0 \$0-reverbtime \$0-reverbtime-gui
reverbtime -2 -8 0 10 -262144 -1 -1 5080 1;
#X obj 24 87 hsl 128 15 0 1 0 0 \$0-damping \$0-damping-gui damping
-2 -8 0 10 -262144 -1 -1 3175 1;
#X obj 24 57 hsl 128 15 0 1 0 0 \$0-predelay \$0-predelay-gui predelay
-2 -8 0 10 -262144 -1 -1 3175 1;
#X obj 168 87 hsl 128 15 0 1 0 0 \$0-regen \$0-regen-gui regeneration
-2 -8 0 10 -262144 -1 -1 6350 1;
#X obj 26 129 hsl 128 15 0 1 0 0 \$0-wet \$0-wet-gui wet -2 -8 0 10
-262144 -1 -1 9525 1;
#N canvas 45 261 1005 638 midilearn 0;
#X obj 32 272 array set \$0-midilearn;
#X obj 127 64 sel 1;
#X obj 19 55 ctlin;
#X obj 161 235 + 1;
#X obj 127 235 f;
#X msg 127 92 0;
#X obj 32 137 change;
#X obj 56 194 t b;
#X obj 32 99 spigot;
#X msg 272 336 0;
#X obj 65 24 r \$0-midi-learn-s;
#X obj 282 364 s \$0-midi-learn-r;
#X obj 417 34 ctlin;
#X obj 417 68 / 127;
#X obj 417 129 pack f f;
#X obj 417 100 swap;
#X obj 480 130 tabread \$0-midilearn;
#X msg 480 108 0;
#X obj 480 25 loadbang;
#X obj 494 77 sel 0;
#X obj 417 157 route;
#X msg 438 183 set \$1;
#X obj 494 54 r \$0-midi-learn-s;
#X obj 614 34 ctlin;
#X obj 614 68 / 127;
#X obj 614 129 pack f f;
#X obj 614 100 swap;
#X obj 677 130 tabread \$0-midilearn;
#X obj 677 25 loadbang;
#X obj 691 77 sel 0;
#X obj 614 157 route;
#X msg 635 183 set \$1;
#X obj 691 54 r \$0-midi-learn-s;
#X obj 812 35 ctlin;
#X obj 812 69 / 127;
#X obj 812 130 pack f f;
#X obj 812 101 swap;
#X obj 875 131 tabread \$0-midilearn;
#X obj 875 26 loadbang;
#X obj 889 78 sel 0;
#X obj 812 158 route;
#X msg 833 184 set \$1;
#X obj 889 55 r \$0-midi-learn-s;
#X msg 677 108 1;
#X msg 875 109 2;
#X obj 414 275 ctlin;
#X obj 414 309 / 127;
#X obj 414 370 pack f f;
#X obj 414 341 swap;
#X obj 477 371 tabread \$0-midilearn;
#X obj 477 266 loadbang;
#X obj 491 318 sel 0;
#X obj 414 398 route;
#X msg 435 424 set \$1;
#X obj 491 295 r \$0-midi-learn-s;
#X obj 617 269 ctlin;
#X obj 617 303 / 127;
#X obj 617 364 pack f f;
#X obj 617 335 swap;
#X obj 680 260 loadbang;
#X obj 694 312 sel 0;
#X obj 617 392 route;
#X msg 638 418 set \$1;
#X obj 694 289 r \$0-midi-learn-s;
#X obj 823 272 ctlin;
#X obj 823 306 / 127;
#X obj 823 367 pack f f;
#X obj 823 338 swap;
#X obj 886 368 tabread \$0-midilearn;
#X obj 886 263 loadbang;
#X obj 900 315 sel 0;
#X obj 823 395 route;
#X msg 844 421 set \$1;
#X obj 900 292 r \$0-midi-learn-s;
#X msg 477 349 4;
#X msg 680 343 5;
#X msg 886 346 6;
#X msg 272 423 done;
#X obj 174 166 array define -k \$0-midilearn 10;
#A 0 21 22 70 72 73 26 28 83 0 0;
#X obj 127 299 sel 0 1 2 3 4 5 6 7 8;
#X msg 501 415 0.5;
#X obj 127 578 print midi learn;
#X obj 417 237 s \$0-predelay;
#X obj 438 210 s \$0-predelay-gui;
#X obj 635 210 s \$0-reverbtime-gui;
#X obj 614 233 s \$0-reverbtime;
#X obj 833 211 s \$0-damping-gui;
#X obj 812 234 s \$0-damping;
#X obj 435 451 s \$0-regen-gui;
#X obj 414 478 s \$0-regen;
#X obj 680 365 tabread \$0-midilearn;
#X obj 844 448 s \$0-volume-gui;
#X obj 823 475 s \$0-volume;
#X obj 638 445 s \$0-wet-gui;
#X obj 617 472 s \$0-wet;
#X msg 127 337 predelay;
#X msg 140 369 reverbtime;
#X msg 155 395 damping;
#X msg 168 426 regeneration;
#X msg 181 457 wet;
#X msg 195 483 output-volume;
#X obj 284 125 s pd;
#X msg 284 98 dsp 1;
#X msg 514 179 0.25;
#X msg 720 177 0.4;
#X msg 913 412 0.5;
#X msg 911 172 0.25;
#X msg 707 407 0.75;
#X connect 1 0 5 0;
#X connect 2 1 8 0;
#X connect 3 0 4 1;
#X connect 4 0 3 0;
#X connect 4 0 0 1;
#X connect 4 0 79 0;
#X connect 5 0 6 0;
#X connect 5 0 4 0;
#X connect 6 0 0 0;
#X connect 6 0 7 0;
#X connect 7 0 4 0;
#X connect 8 0 6 0;
#X connect 9 0 11 0;
#X connect 9 0 77 0;
#X connect 10 0 1 0;
#X connect 10 0 8 1;
#X connect 12 0 13 0;
#X connect 12 1 15 1;
#X connect 13 0 15 0;
#X connect 14 0 20 0;
#X connect 15 0 14 0;
#X connect 15 1 14 1;
#X connect 16 0 20 1;
#X connect 17 0 16 0;
#X connect 18 0 17 0;
#X connect 18 0 103 0;
#X connect 18 0 102 0;
#X connect 19 0 17 0;
#X connect 20 0 21 0;
#X connect 20 0 82 0;
#X connect 21 0 83 0;
#X connect 22 0 19 0;
#X connect 23 0 24 0;
#X connect 23 1 26 1;
#X connect 24 0 26 0;
#X connect 25 0 30 0;
#X connect 26 0 25 0;
#X connect 26 1 25 1;
#X connect 27 0 30 1;
#X connect 28 0 43 0;
#X connect 28 0 104 0;
#X connect 29 0 43 0;
#X connect 30 0 31 0;
#X connect 30 0 85 0;
#X connect 31 0 84 0;
#X connect 32 0 29 0;
#X connect 33 0 34 0;
#X connect 33 1 36 1;
#X connect 34 0 36 0;
#X connect 35 0 40 0;
#X connect 36 0 35 0;
#X connect 36 1 35 1;
#X connect 37 0 40 1;
#X connect 38 0 44 0;
#X connect 38 0 106 0;
#X connect 39 0 44 0;
#X connect 40 0 41 0;
#X connect 40 0 87 0;
#X connect 41 0 86 0;
#X connect 42 0 39 0;
#X connect 43 0 27 0;
#X connect 44 0 37 0;
#X connect 45 0 46 0;
#X connect 45 1 48 1;
#X connect 46 0 48 0;
#X connect 47 0 52 0;
#X connect 48 0 47 0;
#X connect 48 1 47 1;
#X connect 49 0 52 1;
#X connect 50 0 74 0;
#X connect 50 0 80 0;
#X connect 51 0 74 0;
#X connect 52 0 53 0;
#X connect 52 0 89 0;
#X connect 53 0 88 0;
#X connect 54 0 51 0;
#X connect 55 0 56 0;
#X connect 55 1 58 1;
#X connect 56 0 58 0;
#X connect 57 0 61 0;
#X connect 58 0 57 0;
#X connect 58 1 57 1;
#X connect 59 0 75 0;
#X connect 59 0 107 0;
#X connect 60 0 75 0;
#X connect 61 0 62 0;
#X connect 61 0 94 0;
#X connect 62 0 93 0;
#X connect 63 0 60 0;
#X connect 64 0 65 0;
#X connect 64 1 67 1;
#X connect 65 0 67 0;
#X connect 66 0 71 0;
#X connect 67 0 66 0;
#X connect 67 1 66 1;
#X connect 68 0 71 1;
#X connect 69 0 76 0;
#X connect 69 0 105 0;
#X connect 70 0 76 0;
#X connect 71 0 72 0;
#X connect 71 0 92 0;
#X connect 72 0 91 0;
#X connect 73 0 70 0;
#X connect 74 0 49 0;
#X connect 75 0 90 0;
#X connect 76 0 68 0;
#X connect 77 0 81 0;
#X connect 79 0 95 0;
#X connect 79 1 96 0;
#X connect 79 2 97 0;
#X connect 79 3 98 0;
#X connect 79 4 99 0;
#X connect 79 5 100 0;
#X connect 79 6 9 0;
#X connect 80 0 88 0;
#X connect 90 0 61 1;
#X connect 95 0 81 0;
#X connect 96 0 81 0;
#X connect 97 0 81 0;
#X connect 98 0 81 0;
#X connect 99 0 81 0;
#X connect 100 0 81 0;
#X connect 102 0 101 0;
#X connect 103 0 83 0;
#X connect 104 0 84 0;
#X connect 105 0 91 0;
#X connect 106 0 86 0;
#X connect 107 0 93 0;
#X restore 53 196 pd midilearn;
#X obj 233 18 tgl 15 0 \$0-midi-learn-s \$0-midi-learn-r midi-learn
17 7 0 10 -262144 -1 -1 0 1;
#X obj 167 129 hsl 128 15 0 1 0 0 \$0-volume \$0-volume-gui output-volume
-2 -8 0 10 -262144 -1 -1 6350 1;
#X obj 487 270 r \$0-volume;
#X obj 473 413 *~;
#X obj 373 68 +~;
#X obj 558 232 *~;
#N canvas 0 50 740 618 reverb-delay 0;
#X obj 25 43 inlet~;
#X obj 212 570 outlet~;
#X obj 63 161 line~;
#X msg 63 134 \$1 10;
#X obj 214 138 lop~ 3;
#X obj 384 143 lop~ 3;
#X obj 214 79 + 10;
#X obj 214 22 r \$0-predelay;
#X obj 214 352 lop~;
#X obj 385 343 lop~;
#N canvas 1132 549 450 300 math 0;
#X msg 66 143 1 \$1;
#X obj 66 166 /;
#X obj 66 116 pow 8;
#X obj 66 29 inlet;
#X obj 66 261 outlet;
#X obj 66 66 * 0.5;
#X obj 66 91 + 0.5;
#X obj 66 219 * 20;
#X obj 66 194 + 5;
#X connect 0 0 1 0;
#X connect 1 0 8 0;
#X connect 2 0 0 0;
#X connect 3 0 5 0;
#X connect 5 0 6 0;
#X connect 6 0 2 0;
#X connect 7 0 4 0;
#X connect 8 0 7 0;
#X restore 406 316 pd math;
#X obj 235 295 r \$0-damping;
#X obj 406 290 r \$0-damping;
#X obj 499 170 vd~ \$0-del1;
#X obj 499 142 lop~ 3;
#X obj 615 145 lop~ 3;
#X obj 499 26 r \$0-reverbtime;
#X obj 241 516 delwrite~ \$0-del1 1000;
#X obj 416 517 delwrite~ \$0-del2 1000;
#X obj 615 171 vd~ \$0-del2;
#X obj 615 120 * 1.12;
#X obj 213 262 -~;
#X obj 385 269 -~;
#X obj 177 414 -~;
#X obj 63 85 r \$0-regen;
#X obj 229 236 *~;
#X obj 401 242 *~;
#X obj 386 572 outlet~;
#X obj 499 82 + 20;
#X obj 351 403 -~;
#X obj 65 465 *~;
#X obj 47 541 delwrite~ \$0-predelay1 1000;
#X obj 214 166 vd~ \$0-predelay1;
#X obj 384 169 vd~ \$0-predelay2;
#X obj 24 513 delwrite~ \$0-predelay2 1000;
#X obj 131 466 *~;
#X obj 384 117 * 1.78;
#X obj 63 111 * 0.5;
#X obj 64 306 *~ 1;
#X obj 213 379 hip~ 250;
#X obj 386 370 hip~ 250;
#N canvas 1106 460 450 300 math 0;
#X msg 66 143 1 \$1;
#X obj 66 166 /;
#X obj 66 116 pow 8;
#X obj 66 29 inlet;
#X obj 66 261 outlet;
#X obj 66 66 * 0.5;
#X obj 66 91 + 0.5;
#X obj 66 219 * 20;
#X obj 66 194 + 5;
#X connect 0 0 1 0;
#X connect 1 0 8 0;
#X connect 2 0 0 0;
#X connect 3 0 5 0;
#X connect 5 0 6 0;
#X connect 6 0 2 0;
#X connect 7 0 4 0;
#X connect 8 0 7 0;
#X restore 235 325 pd math;
#X obj 214 54 * 90;
#X obj 499 58 * 480;
#X connect 0 0 31 0;
#X connect 0 0 34 0;
#X connect 2 0 25 0;
#X connect 2 0 26 0;
#X connect 2 0 38 0;
#X connect 3 0 2 0;
#X connect 4 0 32 0;
#X connect 5 0 33 0;
#X connect 6 0 4 0;
#X connect 6 0 36 0;
#X connect 7 0 42 0;
#X connect 8 0 39 0;
#X connect 9 0 40 0;
#X connect 10 0 9 1;
#X connect 11 0 41 0;
#X connect 12 0 10 0;
#X connect 13 0 26 1;
#X connect 14 0 13 0;
#X connect 15 0 19 0;
#X connect 16 0 43 0;
#X connect 19 0 25 1;
#X connect 20 0 15 0;
#X connect 21 0 8 0;
#X connect 21 0 23 1;
#X connect 22 0 9 0;
#X connect 22 0 29 1;
#X connect 23 0 30 1;
#X connect 24 0 37 0;
#X connect 25 0 21 1;
#X connect 26 0 22 1;
#X connect 28 0 14 0;
#X connect 28 0 20 0;
#X connect 29 0 35 1;
#X connect 30 0 34 0;
#X connect 32 0 21 0;
#X connect 33 0 22 0;
#X connect 35 0 31 0;
#X connect 36 0 5 0;
#X connect 37 0 3 0;
#X connect 38 0 30 0;
#X connect 38 0 35 0;
#X connect 39 0 1 0;
#X connect 39 0 17 0;
#X connect 39 0 23 0;
#X connect 40 0 27 0;
#X connect 40 0 18 0;
#X connect 40 0 29 0;
#X connect 41 0 8 1;
#X connect 42 0 6 0;
#X connect 43 0 28 0;
#X restore 472 104 pd reverb-delay;
#X obj 487 295 * 0.5;
#N canvas 261 235 450 300 hypertan 0;
#X obj 109 39 inlet~;
#X obj 108 233 /~;
#X obj 142 105 abs~;
#X obj 144 162 +~ 1;
#X obj 109 260 outlet~;
#X obj 144 202 pow~ 0.4;
#X obj 230 56 loadbang;
#X msg 230 162 0.4;
#X obj 143 135 pow~ 2.5;
#X msg 196 105 2.5;
#X connect 0 0 2 0;
#X connect 0 0 1 0;
#X connect 1 0 4 0;
#X connect 2 0 8 0;
#X connect 3 0 5 0;
#X connect 5 0 1 1;
#X connect 6 0 7 0;
#X connect 6 0 9 0;
#X connect 7 0 5 1;
#X connect 8 0 3 0;
#X connect 9 0 8 1;
#X restore 474 445 pd hypertan;
#N canvas 261 235 450 300 hypertan 0;
#X obj 109 39 inlet~;
#X obj 108 233 /~;
#X obj 142 105 abs~;
#X obj 144 162 +~ 1;
#X obj 109 260 outlet~;
#X obj 144 202 pow~ 0.4;
#X obj 230 56 loadbang;
#X msg 230 162 0.4;
#X obj 143 135 pow~ 2.5;
#X msg 196 105 2.5;
#X connect 0 0 2 0;
#X connect 0 0 1 0;
#X connect 1 0 4 0;
#X connect 2 0 8 0;
#X connect 3 0 5 0;
#X connect 5 0 1 1;
#X connect 6 0 7 0;
#X connect 6 0 9 0;
#X connect 7 0 5 1;
#X connect 8 0 3 0;
#X connect 9 0 8 1;
#X restore 373 444 pd hypertan;
#X obj 572 194 line~;
#X msg 572 168 \$1 10;
#X obj 572 125 r \$0-wet;
#X obj 388 9 inlet~;
#X obj 515 497 outlet~;
#X obj 420 498 outlet~;
#X connect 0 0 16 0;
#X connect 2 0 21 0;
#X connect 3 0 2 1;
#X connect 3 0 15 1;
#X connect 4 0 3 0;
#X connect 5 0 2 0;
#X connect 14 0 19 0;
#X connect 15 0 20 0;
#X connect 16 0 18 0;
#X connect 16 0 2 0;
#X connect 16 0 15 0;
#X connect 17 0 15 0;
#X connect 18 0 5 0;
#X connect 18 1 17 0;
#X connect 19 0 4 0;
#X connect 20 0 1 1;
#X connect 20 0 26 0;
#X connect 21 0 1 0;
#X connect 21 0 27 0;
#X connect 22 0 17 1;
#X connect 22 0 5 1;
#X connect 23 0 22 0;
#X connect 24 0 23 0;
#X connect 25 0 16 1;
#X coords 0 -1 1 1 300 160 1 10 10;
