#N canvas 221 50 854 787 10;
#X obj 329 35 mtof;
#X obj 329 9 notein;
#X obj 403 631 *~;
#X obj 404 725 dac~;
#X obj 329 143 r \$0-input;
#X obj 329 117 s \$0-input;
#X obj 329 90 pack f f f;
#X obj 583 306 hip~ 5;
#N canvas 52 242 730 546 chorus 0;
#X obj 36 62 inlet~;
#X obj 226 417 vd~ \$0-chorus;
#X obj 68 106 delwrite~ \$0-chorus 100;
#X obj 226 358 *~;
#X obj 35 495 outlet~;
#X obj 271 179 cos~;
#X obj 270 154 wrap~;
#X obj 227 162 cos~;
#X obj 269 108 *~ 6;
#X obj 337 416 vd~ \$0-chorus;
#X obj 444 418 vd~ \$0-chorus;
#X obj 269 133 +~ 0.8;
#X obj 270 208 *~ 0.1;
#X obj 226 231 +~;
#X obj 226 256 +~ 1.1;
#X obj 381 183 cos~;
#X obj 380 158 wrap~;
#X obj 337 166 cos~;
#X obj 379 112 *~ 6;
#X obj 379 137 +~ 0.8;
#X obj 380 212 *~ 0.1;
#X obj 336 235 +~;
#X obj 336 260 +~ 1.1;
#X obj 338 79 wrap~;
#X obj 337 58 +~ 0.33;
#X obj 487 184 cos~;
#X obj 486 159 wrap~;
#X obj 443 167 cos~;
#X obj 485 113 *~ 6;
#X obj 485 138 +~ 0.8;
#X obj 486 213 *~ 0.1;
#X obj 442 236 +~;
#X obj 442 261 +~ 1.1;
#X obj 444 80 wrap~;
#X obj 443 59 +~ 0.66;
#X obj 337 359 *~;
#X obj 442 362 *~;
#X obj 225 384 +~ 10;
#X obj 337 383 +~ 10;
#X obj 443 386 +~ 10;
#X obj 227 25 phasor~ 0.2;
#X obj 337 26 phasor~ 0.2;
#X obj 443 27 phasor~ 0.5;
#X obj 512 241 r \$0-chorusdepth;
#X obj 456 339 line~;
#X msg 456 317 \$1 10;
#X obj 353 337 line~;
#X msg 353 315 \$1 10;
#X obj 241 332 line~;
#X msg 241 310 \$1 10;
#X obj 512 262 * 4;
#X obj 512 287 + 0.5;
#X connect 0 0 2 0;
#X connect 0 0 4 0;
#X connect 1 0 4 0;
#X connect 3 0 37 0;
#X connect 5 0 12 0;
#X connect 6 0 5 0;
#X connect 7 0 13 0;
#X connect 8 0 11 0;
#X connect 9 0 4 0;
#X connect 10 0 4 0;
#X connect 11 0 6 0;
#X connect 12 0 13 1;
#X connect 13 0 14 0;
#X connect 14 0 3 0;
#X connect 15 0 20 0;
#X connect 16 0 15 0;
#X connect 17 0 21 0;
#X connect 18 0 19 0;
#X connect 19 0 16 0;
#X connect 20 0 21 1;
#X connect 21 0 22 0;
#X connect 22 0 35 0;
#X connect 23 0 18 0;
#X connect 23 0 17 0;
#X connect 24 0 23 0;
#X connect 25 0 30 0;
#X connect 26 0 25 0;
#X connect 27 0 31 0;
#X connect 28 0 29 0;
#X connect 29 0 26 0;
#X connect 30 0 31 1;
#X connect 31 0 32 0;
#X connect 32 0 36 0;
#X connect 33 0 28 0;
#X connect 33 0 27 0;
#X connect 34 0 33 0;
#X connect 35 0 38 0;
#X connect 36 0 39 0;
#X connect 37 0 1 0;
#X connect 38 0 9 0;
#X connect 39 0 10 0;
#X connect 40 0 7 0;
#X connect 40 0 8 0;
#X connect 41 0 24 0;
#X connect 42 0 34 0;
#X connect 43 0 50 0;
#X connect 44 0 36 1;
#X connect 45 0 44 0;
#X connect 46 0 35 1;
#X connect 47 0 46 0;
#X connect 48 0 3 1;
#X connect 49 0 48 0;
#X connect 50 0 51 0;
#X connect 51 0 49 0;
#X connect 51 0 47 0;
#X connect 51 0 45 0;
#X restore 584 469 pd chorus;
#N canvas 511 66 413 308 formant 0;
#X obj 68 47 inlet~;
#X obj 179 105 bp~ 1000 35;
#X obj 301 100 bp~ 5000 35;
#X obj 67 100 bp~ 300 5;
#X obj 69 212 outlet~;
#X obj 68 168 *~ 4;
#X connect 0 0 1 0;
#X connect 0 0 2 0;
#X connect 0 0 3 0;
#X connect 1 0 5 0;
#X connect 2 0 5 0;
#X connect 3 0 5 0;
#X connect 5 0 4 0;
#X restore 715 425 pd formant filter;
#X obj 329 299 hip~ 5;
#X obj 402 594 lop~ 5000;
#N canvas 261 235 450 300 hypertan 0;
#X obj 109 39 inlet~;
#X obj 108 233 /~;
#X obj 142 105 abs~;
#X obj 144 162 +~ 1;
#X obj 109 260 outlet~;
#X obj 144 202 pow~ 0.4;
#X obj 230 56 loadbang;
#X msg 230 162 0.4;
#X obj 143 135 pow~ 2.5;
#X msg 196 105 2.5;
#X connect 0 0 2 0;
#X connect 0 0 1 0;
#X connect 1 0 4 0;
#X connect 2 0 8 0;
#X connect 3 0 5 0;
#X connect 5 0 1 1;
#X connect 6 0 7 0;
#X connect 6 0 9 0;
#X connect 7 0 5 1;
#X connect 8 0 3 0;
#X connect 9 0 8 1;
#X restore 403 691 pd hypertan;
#X obj 401 568 lop~ 5000;
#X obj 403 663 hip~ 5;
#N canvas 621 237 450 386 math 0;
#X obj 65 223 /;
#X obj 66 29 inlet;
#X obj 65 318 outlet;
#X msg 66 200 0.1 \$1;
#X obj 66 143 pow 4;
#X obj 66 66 * 0.85;
#X obj 66 91 + 0.15;
#X connect 0 0 2 0;
#X connect 1 0 5 0;
#X connect 3 0 0 0;
#X connect 4 0 3 0;
#X connect 5 0 6 0;
#X connect 6 0 4 0;
#X restore 426 50 pd math;
#X msg 426 77 attack \$1;
#X msg 513 85 decay \$1;
#N canvas 273 94 450 386 math 0;
#X obj 65 223 /;
#X obj 66 29 inlet;
#X obj 65 318 outlet;
#X msg 66 200 0.1 \$1;
#X obj 66 140 pow 4;
#X obj 66 66 * 0.85;
#X obj 66 91 + 0.15;
#X connect 0 0 2 0;
#X connect 1 0 5 0;
#X connect 3 0 0 0;
#X connect 4 0 3 0;
#X connect 5 0 6 0;
#X connect 6 0 4 0;
#X restore 513 62 pd math;
#X obj 24 114 hsl 128 15 0 1 0 0 \$0-brightness \$0-brightness-gui
brightness -2 -8 0 10 -262144 -1 -1 12700 1;
#X obj 23 143 hsl 128 15 0 1 0 0 \$0-chorusdepth \$0-chorusdepth-gui
chorus-depth -2 -8 0 10 -262144 -1 -1 6350 1;
#X obj 24 51 hsl 128 15 0 1 0 0 \$0-routebass \$0-routebass-gui route-bass
-2 -8 0 10 -262144 -1 -1 0 1;
#X obj 24 79 hsl 128 15 0 1 0 0 \$0-routestrings \$0-routestrings-gui
route-string-ensemble -2 -8 0 10 -262144 -1 -1 12700 1;
#X obj 168 80 hsl 128 15 0 1 0 0 \$0-decay \$0-decay-gui decay -2 -8
0 10 -262144 -1 -1 8890 1;
#X obj 168 52 hsl 128 15 0 1 0 0 \$0-attack \$0-attack-gui attack -2
-8 0 10 -262144 -1 -1 0 1;
#X obj 233 18 tgl 15 0 \$0-midi-learn-s \$0-midi-learn-r midi-learn
17 7 0 10 -262144 -1 -1 0 1;
#X obj 167 113 hsl 128 15 0 1 0 0 \$0-volume \$0-volume-gui volume
-2 -8 0 10 -262144 -1 -1 6350 1;
#N canvas 165 211 1320 638 midilearn 0;
#X obj 32 272 array set \$0-midilearn;
#X obj 127 64 sel 1;
#X obj 19 55 ctlin;
#X obj 161 235 + 1;
#X obj 127 235 f;
#X msg 127 92 0;
#X obj 32 137 change;
#X obj 56 194 t b;
#X obj 32 99 spigot;
#X msg 272 336 0;
#X obj 65 24 r \$0-midi-learn-s;
#X obj 282 364 s \$0-midi-learn-r;
#X obj 417 34 ctlin;
#X obj 417 68 / 127;
#X obj 417 129 pack f f;
#X obj 417 100 swap;
#X obj 480 130 tabread \$0-midilearn;
#X msg 480 108 0;
#X obj 480 25 loadbang;
#X obj 494 77 sel 0;
#X obj 417 157 route;
#X msg 438 183 set \$1;
#X obj 494 54 r \$0-midi-learn-s;
#X obj 614 34 ctlin;
#X obj 614 68 / 127;
#X obj 614 129 pack f f;
#X obj 614 100 swap;
#X obj 677 130 tabread \$0-midilearn;
#X obj 677 25 loadbang;
#X obj 691 77 sel 0;
#X obj 614 157 route;
#X msg 635 183 set \$1;
#X obj 691 54 r \$0-midi-learn-s;
#X obj 812 35 ctlin;
#X obj 812 69 / 127;
#X obj 812 130 pack f f;
#X obj 812 101 swap;
#X obj 875 131 tabread \$0-midilearn;
#X obj 875 26 loadbang;
#X obj 889 78 sel 0;
#X obj 812 158 route;
#X msg 833 184 set \$1;
#X obj 889 55 r \$0-midi-learn-s;
#X obj 1009 35 ctlin;
#X obj 1009 69 / 127;
#X obj 1009 130 pack f f;
#X obj 1009 101 swap;
#X obj 1072 131 tabread \$0-midilearn;
#X obj 1072 26 loadbang;
#X obj 1086 78 sel 0;
#X obj 1009 158 route;
#X msg 1030 184 set \$1;
#X obj 1086 55 r \$0-midi-learn-s;
#X msg 677 108 1;
#X msg 875 109 2;
#X msg 1072 109 3;
#X obj 414 275 ctlin;
#X obj 414 309 / 127;
#X obj 414 370 pack f f;
#X obj 414 341 swap;
#X obj 477 371 tabread \$0-midilearn;
#X obj 477 266 loadbang;
#X obj 491 318 sel 0;
#X obj 414 398 route;
#X msg 435 424 set \$1;
#X obj 491 295 r \$0-midi-learn-s;
#X obj 617 269 ctlin;
#X obj 617 303 / 127;
#X obj 617 364 pack f f;
#X obj 617 335 swap;
#X obj 680 365 tabread \$0-midilearn;
#X obj 680 260 loadbang;
#X obj 694 312 sel 0;
#X obj 617 392 route;
#X msg 638 418 set \$1;
#X obj 694 289 r \$0-midi-learn-s;
#X msg 477 349 4;
#X msg 680 343 5;
#X msg 272 423 done;
#X obj 174 166 array define -k \$0-midilearn 10;
#A 0 21 22 70 72 73 26 28 83 0 0;
#X msg 501 415 0.5;
#X obj 127 578 print midi learn;
#X obj 417 237 s \$0-routebass;
#X obj 614 233 s \$0-routestrings;
#X obj 812 234 s \$0-attack;
#X obj 1009 233 s \$0-decay;
#X obj 414 478 s \$0-volume;
#X obj 435 451 s \$0-volume-gui;
#X msg 127 337 route-bass;
#X msg 155 395 attack;
#X msg 168 426 decay;
#X msg 181 458 volume;
#X msg 209 517 chorusdepth;
#X msg 720 177 1;
#X obj 1030 211 s \$0-decay-gui;
#X obj 833 211 s \$0-attack-gui;
#X obj 635 210 s \$0-routestrings-gui;
#X obj 438 210 s \$0-routebass-gui;
#X msg 911 172 0;
#X msg 1108 179 0.7;
#X obj 812 266 ctlin;
#X obj 812 300 / 127;
#X obj 812 361 pack f f;
#X obj 812 332 swap;
#X obj 875 362 tabread \$0-midilearn;
#X obj 875 257 loadbang;
#X obj 889 309 sel 0;
#X obj 812 389 route;
#X msg 833 415 set \$1;
#X obj 889 286 r \$0-midi-learn-s;
#X obj 833 442 s \$0-chorusdepth-gui;
#X obj 812 469 s \$0-chorusdepth;
#X msg 875 340 6;
#X obj 617 472 s \$0-brightness;
#X obj 638 445 s \$0-brightness-gui;
#X msg 195 489 brightness;
#X obj 127 299 sel 0 1 2 3 4 5 6 7;
#X msg 140 369 route-string-ensemble;
#X msg 514 179 0;
#X msg 707 406 1;
#X msg 902 403 0.5;
#X connect 1 0 5 0;
#X connect 2 1 8 0;
#X connect 3 0 4 1;
#X connect 4 0 3 0;
#X connect 4 0 0 1;
#X connect 4 0 116 0;
#X connect 5 0 6 0;
#X connect 5 0 4 0;
#X connect 6 0 0 0;
#X connect 6 0 7 0;
#X connect 7 0 4 0;
#X connect 8 0 6 0;
#X connect 9 0 11 0;
#X connect 9 0 78 0;
#X connect 10 0 1 0;
#X connect 10 0 8 1;
#X connect 12 0 13 0;
#X connect 12 1 15 1;
#X connect 13 0 15 0;
#X connect 14 0 20 0;
#X connect 15 0 14 0;
#X connect 15 1 14 1;
#X connect 16 0 20 1;
#X connect 17 0 16 0;
#X connect 18 0 17 0;
#X connect 18 0 118 0;
#X connect 19 0 17 0;
#X connect 20 0 21 0;
#X connect 20 0 82 0;
#X connect 21 0 97 0;
#X connect 22 0 19 0;
#X connect 23 0 24 0;
#X connect 23 1 26 1;
#X connect 24 0 26 0;
#X connect 25 0 30 0;
#X connect 26 0 25 0;
#X connect 26 1 25 1;
#X connect 27 0 30 1;
#X connect 28 0 53 0;
#X connect 28 0 93 0;
#X connect 29 0 53 0;
#X connect 30 0 31 0;
#X connect 30 0 83 0;
#X connect 31 0 96 0;
#X connect 32 0 29 0;
#X connect 33 0 34 0;
#X connect 33 1 36 1;
#X connect 34 0 36 0;
#X connect 35 0 40 0;
#X connect 36 0 35 0;
#X connect 36 1 35 1;
#X connect 37 0 40 1;
#X connect 38 0 54 0;
#X connect 38 0 98 0;
#X connect 39 0 54 0;
#X connect 40 0 41 0;
#X connect 40 0 84 0;
#X connect 41 0 95 0;
#X connect 42 0 39 0;
#X connect 43 0 44 0;
#X connect 43 1 46 1;
#X connect 44 0 46 0;
#X connect 45 0 50 0;
#X connect 46 0 45 0;
#X connect 46 1 45 1;
#X connect 47 0 50 1;
#X connect 48 0 55 0;
#X connect 48 0 99 0;
#X connect 49 0 55 0;
#X connect 50 0 51 0;
#X connect 50 0 85 0;
#X connect 51 0 94 0;
#X connect 52 0 49 0;
#X connect 53 0 27 0;
#X connect 54 0 37 0;
#X connect 55 0 47 0;
#X connect 56 0 57 0;
#X connect 56 1 59 1;
#X connect 57 0 59 0;
#X connect 58 0 63 0;
#X connect 59 0 58 0;
#X connect 59 1 58 1;
#X connect 60 0 63 1;
#X connect 61 0 76 0;
#X connect 61 0 80 0;
#X connect 62 0 76 0;
#X connect 63 0 64 0;
#X connect 63 0 86 0;
#X connect 64 0 87 0;
#X connect 65 0 62 0;
#X connect 66 0 67 0;
#X connect 66 1 69 1;
#X connect 67 0 69 0;
#X connect 68 0 73 0;
#X connect 69 0 68 0;
#X connect 69 1 68 1;
#X connect 70 0 73 1;
#X connect 71 0 77 0;
#X connect 71 0 119 0;
#X connect 72 0 77 0;
#X connect 73 0 74 0;
#X connect 73 0 113 0;
#X connect 74 0 114 0;
#X connect 75 0 72 0;
#X connect 76 0 60 0;
#X connect 77 0 70 0;
#X connect 78 0 81 0;
#X connect 80 0 87 0;
#X connect 88 0 81 0;
#X connect 89 0 81 0;
#X connect 90 0 81 0;
#X connect 91 0 81 0;
#X connect 92 0 81 0;
#X connect 93 0 96 0;
#X connect 98 0 95 0;
#X connect 99 0 94 0;
#X connect 100 0 101 0;
#X connect 100 1 103 1;
#X connect 101 0 103 0;
#X connect 102 0 107 0;
#X connect 103 0 102 0;
#X connect 103 1 102 1;
#X connect 104 0 107 1;
#X connect 105 0 112 0;
#X connect 105 0 120 0;
#X connect 106 0 112 0;
#X connect 107 0 108 0;
#X connect 107 0 111 0;
#X connect 108 0 110 0;
#X connect 109 0 106 0;
#X connect 112 0 104 0;
#X connect 115 0 81 0;
#X connect 116 0 88 0;
#X connect 116 1 117 0;
#X connect 116 2 89 0;
#X connect 116 3 90 0;
#X connect 116 4 91 0;
#X connect 116 5 115 0;
#X connect 116 6 92 0;
#X connect 116 7 9 0;
#X connect 117 0 81 0;
#X connect 118 0 97 0;
#X connect 119 0 114 0;
#X connect 120 0 110 0;
#X restore 33 185 pd midilearn;
#X obj 330 380 *~;
#X obj 401 377 *~;
#X obj 480 376 *~;
#X obj 584 374 *~;
#X obj 649 376 *~;
#X obj 714 374 *~;
#N canvas 0 50 450 319 route 0;
#X obj 41 62 moses 1;
#X msg 220 208 0;
#X obj 41 254 line~;
#X msg 41 232 \$1 10;
#X obj 124 255 line~;
#X msg 124 233 \$1 10;
#X obj 197 256 line~;
#X msg 197 234 \$1 10;
#X obj 41 147 * -1;
#X obj 41 173 + 1;
#X obj 144 181 * -1;
#X obj 144 207 + 1;
#X obj 143 149 - 1;
#X obj 41 35 * 2;
#X msg 80 203 0;
#X obj 40 284 outlet~;
#X obj 123 284 outlet~;
#X obj 196 286 outlet~;
#X obj 41 11 inlet;
#X connect 0 0 8 0;
#X connect 0 0 1 0;
#X connect 0 0 5 0;
#X connect 0 1 12 0;
#X connect 0 1 14 0;
#X connect 1 0 7 0;
#X connect 2 0 15 0;
#X connect 3 0 2 0;
#X connect 4 0 16 0;
#X connect 5 0 4 0;
#X connect 6 0 17 0;
#X connect 7 0 6 0;
#X connect 8 0 9 0;
#X connect 9 0 3 0;
#X connect 10 0 11 0;
#X connect 11 0 5 0;
#X connect 12 0 7 0;
#X connect 12 0 10 0;
#X connect 13 0 0 0;
#X connect 14 0 3 0;
#X connect 18 0 13 0;
#X restore 450 334 pd route;
#N canvas 0 50 450 319 route 0;
#X obj 41 62 moses 1;
#X msg 220 208 0;
#X obj 41 254 line~;
#X msg 41 232 \$1 10;
#X obj 124 255 line~;
#X msg 124 233 \$1 10;
#X obj 197 256 line~;
#X msg 197 234 \$1 10;
#X obj 41 147 * -1;
#X obj 41 173 + 1;
#X obj 144 181 * -1;
#X obj 144 207 + 1;
#X obj 143 149 - 1;
#X obj 41 35 * 2;
#X msg 80 203 0;
#X obj 40 284 outlet~;
#X obj 123 284 outlet~;
#X obj 196 286 outlet~;
#X obj 41 11 inlet;
#X connect 0 0 8 0;
#X connect 0 0 1 0;
#X connect 0 0 5 0;
#X connect 0 1 12 0;
#X connect 0 1 14 0;
#X connect 1 0 7 0;
#X connect 2 0 15 0;
#X connect 3 0 2 0;
#X connect 4 0 16 0;
#X connect 5 0 4 0;
#X connect 6 0 17 0;
#X connect 7 0 6 0;
#X connect 8 0 9 0;
#X connect 9 0 3 0;
#X connect 10 0 11 0;
#X connect 11 0 5 0;
#X connect 12 0 7 0;
#X connect 12 0 10 0;
#X connect 13 0 0 0;
#X connect 14 0 3 0;
#X connect 18 0 13 0;
#X restore 685 318 pd route;
#X obj 480 596 line~;
#X msg 480 574 \$1 10;
#X obj 480 548 r \$0-volume;
#X obj 450 302 r \$0-routebass;
#X obj 685 287 r \$0-routestrings;
#X obj 426 25 r \$0-attack;
#X obj 513 38 r \$0-decay;
#X obj 329 216 voice 1;
#X msg 635 87 brightness \$1;
#X obj 585 495 *~ 0.5;
#X obj 635 62 r \$0-brightness;
#X obj 329 61 poly 8 1;
#X obj 391 218 voice 2;
#X obj 448 216 voice 3;
#X obj 512 214 voice 4;
#X obj 570 213 voice 5;
#X obj 627 211 voice 6;
#X obj 685 210 voice 7;
#X obj 742 208 voice 8;
#X obj 402 537 *~ 0.075;
#X connect 0 0 47 0;
#X connect 1 0 0 0;
#X connect 1 1 47 1;
#X connect 2 0 14 0;
#X connect 4 0 43 0;
#X connect 4 0 48 0;
#X connect 4 0 49 0;
#X connect 4 0 50 0;
#X connect 4 0 51 0;
#X connect 4 0 52 0;
#X connect 4 0 53 0;
#X connect 4 0 54 0;
#X connect 6 0 5 0;
#X connect 7 0 31 0;
#X connect 7 0 32 0;
#X connect 7 0 33 0;
#X connect 8 0 45 0;
#X connect 9 0 45 0;
#X connect 10 0 28 0;
#X connect 10 0 29 0;
#X connect 10 0 30 0;
#X connect 11 0 2 0;
#X connect 12 0 3 0;
#X connect 12 0 3 1;
#X connect 13 0 11 0;
#X connect 14 0 12 0;
#X connect 15 0 16 0;
#X connect 16 0 5 0;
#X connect 17 0 5 0;
#X connect 18 0 17 0;
#X connect 28 0 8 0;
#X connect 29 0 55 0;
#X connect 30 0 9 0;
#X connect 31 0 8 0;
#X connect 32 0 55 0;
#X connect 33 0 9 0;
#X connect 34 0 28 1;
#X connect 34 1 29 1;
#X connect 34 2 30 1;
#X connect 35 0 31 1;
#X connect 35 1 32 1;
#X connect 35 2 33 1;
#X connect 36 0 2 1;
#X connect 37 0 36 0;
#X connect 38 0 37 0;
#X connect 39 0 34 0;
#X connect 40 0 35 0;
#X connect 41 0 15 0;
#X connect 42 0 18 0;
#X connect 43 0 10 0;
#X connect 43 1 7 0;
#X connect 44 0 5 0;
#X connect 45 0 55 0;
#X connect 46 0 44 0;
#X connect 47 0 6 0;
#X connect 47 1 6 1;
#X connect 47 2 6 2;
#X connect 48 0 10 0;
#X connect 48 1 7 0;
#X connect 49 0 10 0;
#X connect 49 1 7 0;
#X connect 50 0 10 0;
#X connect 50 1 7 0;
#X connect 51 0 10 0;
#X connect 51 1 7 0;
#X connect 52 0 10 0;
#X connect 52 1 7 0;
#X connect 53 0 10 0;
#X connect 53 1 7 0;
#X connect 54 0 10 0;
#X connect 54 1 7 0;
#X connect 55 0 13 0;
#X coords 0 -1 1 1 300 160 1 10 10;
