#N canvas 632 223 786 716 10;
#X obj 46 11 inlet;
#X obj 493 109 != 0;
#X obj 172 634 *~;
#X obj 173 672 outlet~;
#X obj 46 67 unpack f f;
#X obj 96 267 osc~;
#X obj 113 336 *~;
#X obj 127 314 *~ 2;
#X obj 112 363 -~ 1;
#X obj 112 428 *~;
#X obj 126 406 *~ 2;
#X obj 112 453 -~ 1;
#X obj 61 210 +~ 1;
#X obj 62 128 noise~;
#X obj 46 235 *~;
#X obj 45 92 sig~;
#X obj 60 182 lop~ 1;
#X obj 61 154 *~ 0.2;
#X obj 188 425 cos~;
#X obj 188 402 wrap~;
#X obj 172 449 *~;
#X obj 255 421 cos~;
#X obj 255 398 wrap~;
#X obj 240 451 *~;
#X obj 316 421 cos~;
#X obj 316 398 wrap~;
#X obj 301 451 *~;
#X obj 170 276 phasor~;
#X obj 171 337 cos~;
#X obj 187 378 *~ 1;
#X obj 377 423 cos~;
#X obj 377 400 wrap~;
#X obj 362 453 *~;
#X obj 438 423 cos~;
#X obj 438 400 wrap~;
#X obj 423 453 *~;
#X obj 254 374 *~ 2;
#X obj 315 374 *~ 4;
#X obj 376 376 *~ 8;
#X obj 437 376 *~ 16;
#X obj 48 588 *~;
#X obj 47 627 outlet~;
#X obj 47 311 osc~;
#X obj 47 269 *~ 0.5;
#X obj 186 217 +~ 1;
#X obj 187 135 noise~;
#X obj 185 189 lop~ 1;
#X obj 186 161 *~ 0.2;
#X obj 170 242 *~;
#X obj 493 421 lop~;
#X obj 493 141 sel 0 1;
#X msg 579 327 1;
#X msg 493 327 0;
#X obj 547 274 del;
#X msg 547 239 stop;
#X obj 493 168 t b b b;
#X obj 614 326 f;
#X obj 647 327 f;
#X obj 585 174 t b b b;
#X obj 543 296 t b b;
#X obj 46 36 route \$1;
#X obj 562 145 /;
#X msg 562 123 1000 \$1;
#X msg 543 328 0.65;
#X obj 562 90 route attack decay brightness;
#X obj 173 594 *~;
#X obj 241 596 *~;
#X obj 302 596 *~;
#X obj 363 598 *~;
#X obj 424 598 *~;
#X obj 541 436 min 1;
#X obj 721 437 max 4;
#X obj 721 463 - 4;
#X obj 676 437 max 3;
#X obj 676 463 - 3;
#X obj 676 487 min 1;
#X obj 628 487 min 1;
#X obj 584 487 min 1;
#X obj 628 437 max 2;
#X obj 628 463 - 2;
#X obj 584 436 max 1;
#X obj 584 463 - 1;
#X obj 187 569 line~;
#X msg 187 547 \$1 10;
#X obj 255 566 line~;
#X msg 255 544 \$1 10;
#X obj 317 569 line~;
#X msg 317 547 \$1 10;
#X obj 377 569 line~;
#X msg 377 547 \$1 10;
#X obj 440 572 line~;
#X msg 440 550 \$1 10;
#X obj 676 390 * 5;
#X obj 721 490 * 0.5;
#X connect 0 0 60 0;
#X connect 1 0 50 0;
#X connect 2 0 3 0;
#X connect 4 0 15 0;
#X connect 4 1 1 0;
#X connect 5 0 6 0;
#X connect 5 0 7 0;
#X connect 5 0 40 0;
#X connect 6 0 8 0;
#X connect 7 0 6 1;
#X connect 8 0 10 0;
#X connect 8 0 9 0;
#X connect 8 0 40 0;
#X connect 9 0 11 0;
#X connect 10 0 9 1;
#X connect 11 0 40 0;
#X connect 12 0 14 1;
#X connect 13 0 17 0;
#X connect 14 0 5 0;
#X connect 14 0 43 0;
#X connect 15 0 14 0;
#X connect 15 0 48 0;
#X connect 16 0 12 0;
#X connect 17 0 16 0;
#X connect 18 0 20 1;
#X connect 19 0 18 0;
#X connect 20 0 65 0;
#X connect 21 0 23 1;
#X connect 22 0 21 0;
#X connect 23 0 66 0;
#X connect 24 0 26 1;
#X connect 25 0 24 0;
#X connect 26 0 67 0;
#X connect 27 0 28 0;
#X connect 27 0 29 0;
#X connect 27 0 36 0;
#X connect 27 0 37 0;
#X connect 27 0 38 0;
#X connect 27 0 39 0;
#X connect 28 0 20 0;
#X connect 28 0 23 0;
#X connect 28 0 26 0;
#X connect 28 0 32 0;
#X connect 28 0 35 0;
#X connect 29 0 19 0;
#X connect 30 0 32 1;
#X connect 31 0 30 0;
#X connect 32 0 68 0;
#X connect 33 0 35 1;
#X connect 34 0 33 0;
#X connect 35 0 69 0;
#X connect 36 0 22 0;
#X connect 37 0 25 0;
#X connect 38 0 31 0;
#X connect 39 0 34 0;
#X connect 40 0 41 0;
#X connect 42 0 40 0;
#X connect 43 0 42 0;
#X connect 44 0 48 1;
#X connect 45 0 47 0;
#X connect 46 0 44 0;
#X connect 47 0 46 0;
#X connect 48 0 27 0;
#X connect 49 0 2 1;
#X connect 49 0 40 1;
#X connect 50 0 55 0;
#X connect 50 1 58 0;
#X connect 51 0 49 0;
#X connect 52 0 49 0;
#X connect 53 0 59 0;
#X connect 54 0 53 0;
#X connect 55 0 52 0;
#X connect 55 1 56 0;
#X connect 55 2 54 0;
#X connect 56 0 49 1;
#X connect 57 0 49 1;
#X connect 58 0 53 0;
#X connect 58 1 51 0;
#X connect 58 2 57 0;
#X connect 59 0 63 0;
#X connect 59 1 57 0;
#X connect 60 0 4 0;
#X connect 60 1 64 0;
#X connect 61 0 53 1;
#X connect 62 0 61 0;
#X connect 63 0 49 0;
#X connect 64 0 57 1;
#X connect 64 0 62 0;
#X connect 64 1 56 1;
#X connect 64 2 92 0;
#X connect 65 0 2 0;
#X connect 66 0 2 0;
#X connect 67 0 2 0;
#X connect 68 0 2 0;
#X connect 69 0 2 0;
#X connect 70 0 83 0;
#X connect 71 0 72 0;
#X connect 72 0 93 0;
#X connect 73 0 74 0;
#X connect 74 0 75 0;
#X connect 75 0 89 0;
#X connect 76 0 87 0;
#X connect 77 0 85 0;
#X connect 78 0 79 0;
#X connect 79 0 76 0;
#X connect 80 0 81 0;
#X connect 81 0 77 0;
#X connect 82 0 65 1;
#X connect 83 0 82 0;
#X connect 84 0 66 1;
#X connect 85 0 84 0;
#X connect 86 0 67 1;
#X connect 87 0 86 0;
#X connect 88 0 68 1;
#X connect 89 0 88 0;
#X connect 90 0 69 1;
#X connect 91 0 90 0;
#X connect 92 0 70 0;
#X connect 92 0 71 0;
#X connect 92 0 73 0;
#X connect 92 0 78 0;
#X connect 92 0 80 0;
#X connect 93 0 91 0;
