#N canvas 75 21 844 903 10;
#X obj 222 900 dac~;
#X obj 221 869 *~;
#X obj 217 17 adc~;
#N canvas 0 50 450 300 preamp 0;
#X obj 86 77 lop~ 250;
#X obj 160 76 hip~ 500;
#X obj 160 48 hip~ 500;
#X obj 160 134 lop~ 1500;
#X obj 159 155 lop~ 1500;
#X obj 86 213 +~;
#X obj 85 110 *~ -1;
#X obj 85 236 +~;
#X obj 231 113 hip~ 1500;
#X obj 231 141 hip~ 1500;
#X obj 231 167 lop~ 7500;
#X obj 230 188 lop~ 7500;
#X obj 86 13 inlet~;
#X obj 84 274 outlet~;
#X obj 160 190 *~ 2;
#X obj 231 223 *~ -2;
#X connect 0 0 6 0;
#X connect 1 0 8 0;
#X connect 1 0 3 0;
#X connect 2 0 1 0;
#X connect 3 0 4 0;
#X connect 4 0 14 0;
#X connect 5 0 7 0;
#X connect 6 0 7 1;
#X connect 6 0 5 0;
#X connect 7 0 13 0;
#X connect 8 0 9 0;
#X connect 9 0 10 0;
#X connect 10 0 11 0;
#X connect 11 0 15 0;
#X connect 12 0 0 0;
#X connect 12 0 2 0;
#X connect 14 0 5 1;
#X connect 15 0 13 0;
#X restore 218 117 pd preamp;
#X obj 233 155 abs~;
#X obj 232 740 lop~ 100;
#X obj 22 169 hsl 128 15 0 1 0 0 \$0-wet \$0-wet-gui dry/wet -2 -8
0 10 -262144 -1 -1 12700 1;
#X obj 23 72 hsl 128 15 0 1 0 0 \$0-bass \$0-bass-gui bass -2 -8 0
10 -262144 -1 -1 12700 1;
#X obj 88 15 tgl 15 0 \$0-midi-learn-s \$0-midi-learn-r midi-learn
17 7 0 10 -262144 -1 -1 0 1;
#X obj 21 206 hsl 128 15 0 1 0 0 \$0-volume \$0-volume-gui output-volume
-2 -8 0 10 -262144 -1 -1 0 1;
#X obj 22 40 hsl 128 15 0 1 0 0 \$0-gain \$0-gain-gui gain -2 -8 0
10 -262144 -1 -1 12600 1;
#N canvas 45 261 1352 638 midilearn 0;
#X obj 32 272 array set \$0-midilearn;
#X obj 127 64 sel 1;
#X obj 19 55 ctlin;
#X obj 161 235 + 1;
#X obj 127 235 f;
#X msg 127 92 0;
#X obj 32 137 change;
#X obj 56 194 t b;
#X obj 32 99 spigot;
#X msg 272 336 0;
#X obj 65 24 r \$0-midi-learn-s;
#X obj 282 364 s \$0-midi-learn-r;
#X obj 620 42 ctlin;
#X obj 620 76 / 127;
#X obj 620 137 pack f f;
#X obj 620 108 swap;
#X obj 683 138 tabread \$0-midilearn;
#X obj 683 33 loadbang;
#X obj 697 85 sel 0;
#X obj 620 165 route;
#X msg 641 191 set \$1;
#X obj 697 62 r \$0-midi-learn-s;
#X obj 1003 44 ctlin;
#X obj 1003 78 / 127;
#X obj 1003 139 pack f f;
#X obj 1003 110 swap;
#X obj 1066 140 tabread \$0-midilearn;
#X obj 1066 35 loadbang;
#X obj 1080 87 sel 0;
#X obj 1003 167 route;
#X msg 1024 193 set \$1;
#X obj 1080 64 r \$0-midi-learn-s;
#X msg 272 423 done;
#X obj 174 166 array define -k \$0-midilearn 10;
#A 0 21 22 70 72 73 26 28 83 0 0;
#X obj 127 299 sel 0 1 2 3 4 5 6 7 8;
#X obj 127 578 print midi learn;
#X obj 594 219 i;
#X obj 811 44 ctlin;
#X obj 811 78 / 127;
#X obj 811 139 pack f f;
#X obj 811 110 swap;
#X obj 874 140 tabread \$0-midilearn;
#X obj 874 35 loadbang;
#X obj 888 87 sel 0;
#X obj 811 167 route;
#X msg 832 193 set \$1;
#X obj 888 64 r \$0-midi-learn-s;
#X obj 594 194 * 6;
#X obj 409 39 ctlin;
#X obj 409 73 / 127;
#X obj 409 134 pack f f;
#X obj 409 105 swap;
#X obj 472 135 tabread \$0-midilearn;
#X msg 472 113 0;
#X obj 472 30 loadbang;
#X obj 486 82 sel 0;
#X obj 409 162 route;
#X msg 430 188 set \$1;
#X obj 486 59 r \$0-midi-learn-s;
#X obj 354 123 s pd;
#X msg 354 96 dsp 1;
#X msg 683 116 1;
#X msg 874 118 2;
#X msg 1066 118 3;
#X msg 506 184 0.5;
#X obj 430 215 s \$0-gain-gui;
#X obj 409 242 s \$0-gain;
#X msg 1109 187 0.5;
#X msg 717 187 0.5;
#X msg 127 329 gain;
#X msg 185 435 dry/wet;
#X msg 200 461 volume;
#X msg 140 354 bass;
#X msg 153 386 mid;
#X msg 168 412 high;
#X obj 626 310 ctlin;
#X obj 626 344 / 127;
#X obj 626 405 pack f f;
#X obj 626 376 swap;
#X obj 689 406 tabread \$0-midilearn;
#X obj 689 301 loadbang;
#X obj 703 353 sel 0;
#X obj 626 433 route;
#X msg 647 459 set \$1;
#X obj 703 330 r \$0-midi-learn-s;
#X obj 434 310 ctlin;
#X obj 434 344 / 127;
#X obj 434 405 pack f f;
#X obj 434 376 swap;
#X obj 497 406 tabread \$0-midilearn;
#X obj 497 301 loadbang;
#X obj 511 353 sel 0;
#X obj 434 433 route;
#X msg 455 459 set \$1;
#X obj 511 330 r \$0-midi-learn-s;
#X obj 455 486 s \$0-wet-gui;
#X obj 434 509 s \$0-wet;
#X obj 626 509 s \$0-volume;
#X obj 647 486 s \$0-volume-gui;
#X msg 732 453 0.5;
#X msg 540 453 1;
#X obj 641 218 s \$0-bass-gui;
#X obj 832 220 s \$0-mid-gui;
#X obj 620 245 s \$0-bass;
#X obj 811 243 s \$0-mid;
#X obj 1024 220 s \$0-high-gui;
#X obj 1003 243 s \$0-high;
#X msg 497 384 4;
#X msg 689 384 5;
#X msg 917 187 0.5;
#X connect 1 0 5 0;
#X connect 2 1 8 0;
#X connect 3 0 4 1;
#X connect 4 0 3 0;
#X connect 4 0 0 1;
#X connect 4 0 34 0;
#X connect 5 0 6 0;
#X connect 5 0 4 0;
#X connect 6 0 0 0;
#X connect 6 0 7 0;
#X connect 7 0 4 0;
#X connect 8 0 6 0;
#X connect 9 0 11 0;
#X connect 9 0 32 0;
#X connect 10 0 1 0;
#X connect 10 0 8 1;
#X connect 12 0 13 0;
#X connect 12 1 15 1;
#X connect 13 0 15 0;
#X connect 14 0 19 0;
#X connect 15 0 14 0;
#X connect 15 1 14 1;
#X connect 16 0 19 1;
#X connect 17 0 61 0;
#X connect 17 0 68 0;
#X connect 18 0 61 0;
#X connect 19 0 20 0;
#X connect 19 0 47 0;
#X connect 20 0 101 0;
#X connect 21 0 18 0;
#X connect 22 0 23 0;
#X connect 22 1 25 1;
#X connect 23 0 25 0;
#X connect 24 0 29 0;
#X connect 25 0 24 0;
#X connect 25 1 24 1;
#X connect 26 0 29 1;
#X connect 27 0 63 0;
#X connect 27 0 67 0;
#X connect 28 0 63 0;
#X connect 29 0 30 0;
#X connect 29 0 106 0;
#X connect 30 0 105 0;
#X connect 31 0 28 0;
#X connect 32 0 35 0;
#X connect 34 0 69 0;
#X connect 34 1 72 0;
#X connect 34 2 73 0;
#X connect 34 3 74 0;
#X connect 34 4 70 0;
#X connect 34 5 71 0;
#X connect 34 6 9 0;
#X connect 36 0 20 0;
#X connect 36 0 103 0;
#X connect 37 0 38 0;
#X connect 37 1 40 1;
#X connect 38 0 40 0;
#X connect 39 0 44 0;
#X connect 40 0 39 0;
#X connect 40 1 39 1;
#X connect 41 0 44 1;
#X connect 42 0 62 0;
#X connect 42 0 109 0;
#X connect 43 0 62 0;
#X connect 44 0 45 0;
#X connect 44 0 104 0;
#X connect 45 0 102 0;
#X connect 46 0 43 0;
#X connect 47 0 36 0;
#X connect 48 0 49 0;
#X connect 48 1 51 1;
#X connect 49 0 51 0;
#X connect 50 0 56 0;
#X connect 51 0 50 0;
#X connect 51 1 50 1;
#X connect 52 0 56 1;
#X connect 53 0 52 0;
#X connect 54 0 53 0;
#X connect 54 0 64 0;
#X connect 54 0 60 0;
#X connect 55 0 53 0;
#X connect 56 0 57 0;
#X connect 56 0 66 0;
#X connect 57 0 65 0;
#X connect 58 0 55 0;
#X connect 60 0 59 0;
#X connect 61 0 16 0;
#X connect 62 0 41 0;
#X connect 63 0 26 0;
#X connect 64 0 65 0;
#X connect 67 0 105 0;
#X connect 68 0 101 0;
#X connect 69 0 35 0;
#X connect 70 0 35 0;
#X connect 71 0 35 0;
#X connect 72 0 35 0;
#X connect 73 0 35 0;
#X connect 74 0 35 0;
#X connect 75 0 76 0;
#X connect 75 1 78 1;
#X connect 76 0 78 0;
#X connect 77 0 82 0;
#X connect 78 0 77 0;
#X connect 78 1 77 1;
#X connect 79 0 82 1;
#X connect 80 0 108 0;
#X connect 80 0 99 0;
#X connect 81 0 108 0;
#X connect 82 0 83 0;
#X connect 82 0 97 0;
#X connect 83 0 98 0;
#X connect 84 0 81 0;
#X connect 85 0 86 0;
#X connect 85 1 88 1;
#X connect 86 0 88 0;
#X connect 87 0 92 0;
#X connect 88 0 87 0;
#X connect 88 1 87 1;
#X connect 89 0 92 1;
#X connect 90 0 107 0;
#X connect 90 0 100 0;
#X connect 91 0 107 0;
#X connect 92 0 93 0;
#X connect 92 0 96 0;
#X connect 93 0 95 0;
#X connect 94 0 91 0;
#X connect 99 0 98 0;
#X connect 100 0 95 0;
#X connect 107 0 89 0;
#X connect 108 0 79 0;
#X connect 109 0 102 0;
#X restore 26 245 pd midilearn;
#X obj 727 678 line~;
#X msg 727 652 \$1 10;
#X obj 457 783 r \$0-volume;
#X obj 649 250 line~;
#X msg 649 224 \$1 10;
#X obj 649 60 r \$0-gain;
#X obj 253 68 line~;
#X msg 253 42 \$1 10;
#X obj 253 20 r \$0-wet;
#X obj 649 142 pow 4;
#X obj 649 198 + 1;
#X obj 114 398 * -1;
#X obj 114 426 + 1;
#X obj 114 474 line~;
#X msg 114 450 \$1 10;
#X obj 99 500 *~;
#X obj 218 91 *~;
#X obj 114 369 r \$0-wet;
#X obj 222 711 lop~ 5000;
#X obj 221 774 hip~ 100;
#N canvas 261 235 450 300 hypertan 0;
#X obj 109 39 inlet~;
#X obj 108 233 /~;
#X obj 142 105 abs~;
#X obj 144 162 +~ 1;
#X obj 109 260 outlet~;
#X obj 144 202 pow~ 0.4;
#X obj 230 56 loadbang;
#X msg 230 162 0.4;
#X obj 143 135 pow~ 2.5;
#X msg 196 105 2.5;
#X connect 0 0 2 0;
#X connect 0 0 1 0;
#X connect 1 0 4 0;
#X connect 2 0 8 0;
#X connect 3 0 5 0;
#X connect 5 0 1 1;
#X connect 6 0 7 0;
#X connect 6 0 9 0;
#X connect 7 0 5 1;
#X connect 8 0 3 0;
#X connect 9 0 8 1;
#X restore 384 484 pd hypertan;
#X obj 382 435 *~;
#X obj 232 184 lop~ 10;
#X obj 222 687 lop~ 5000;
#N canvas 261 235 450 300 hypertan 0;
#X obj 109 39 inlet~;
#X obj 108 233 /~;
#X obj 142 105 abs~;
#X obj 144 162 +~ 1;
#X obj 109 260 outlet~;
#X obj 144 202 pow~ 0.4;
#X obj 230 56 loadbang;
#X msg 230 162 0.4;
#X obj 143 135 pow~ 2.5;
#X msg 196 105 2.5;
#X connect 0 0 2 0;
#X connect 0 0 1 0;
#X connect 1 0 4 0;
#X connect 2 0 8 0;
#X connect 3 0 5 0;
#X connect 5 0 1 1;
#X connect 6 0 7 0;
#X connect 6 0 9 0;
#X connect 7 0 5 1;
#X connect 8 0 3 0;
#X connect 9 0 8 1;
#X restore 557 484 pd hypertan;
#X obj 556 429 *~;
#N canvas 261 235 450 300 hypertan 0;
#X obj 109 39 inlet~;
#X obj 108 233 /~;
#X obj 142 105 abs~;
#X obj 144 162 +~ 1;
#X obj 109 260 outlet~;
#X obj 144 202 pow~ 0.4;
#X obj 230 56 loadbang;
#X msg 230 162 0.4;
#X obj 143 135 pow~ 2.5;
#X msg 196 105 2.5;
#X connect 0 0 2 0;
#X connect 0 0 1 0;
#X connect 1 0 4 0;
#X connect 2 0 8 0;
#X connect 3 0 5 0;
#X connect 5 0 1 1;
#X connect 6 0 7 0;
#X connect 6 0 9 0;
#X connect 7 0 5 1;
#X connect 8 0 3 0;
#X connect 9 0 8 1;
#X restore 220 478 pd hypertan;
#X obj 220 423 *~;
#X obj 240 386 *~ -1;
#X obj 219 256 /~;
#X obj 234 232 +~ 1;
#X obj 383 459 lop~ 1500;
#X obj 220 454 lop~ 1500;
#X obj 386 537 hip~ 400;
#X obj 556 457 lop~ 2500;
#X obj 233 210 *~ 4;
#X obj 384 595 lop~ 1500;
#X obj 385 513 hip~ 400;
#X obj 385 563 lop~ 1500;
#X obj 311 591 line~;
#X msg 311 565 \$1 10;
#X obj 469 592 line~;
#X msg 469 566 \$1 10;
#X obj 636 545 r \$0-high;
#X obj 636 597 line~;
#X msg 636 571 \$1 10;
#X obj 469 540 r \$0-mid;
#X obj 311 539 r \$0-bass;
#X obj 22 106 hsl 128 15 0 1 0 0 \$0-mid \$0-mid-gui mid -2 -8 0 10
-262144 -1 -1 6700 1;
#X obj 22 139 hsl 128 15 0 1 0 0 \$0-high \$0-high-gui high -2 -8 0
10 -262144 -1 -1 6000 1;
#X obj 727 484 * -1;
#X obj 727 512 + 1;
#X obj 221 639 *~;
#X obj 383 631 *~;
#X obj 555 634 *~;
#X obj 221 577 lop~ 500;
#X obj 649 167 * 3000;
#X obj 556 581 lop~ 5000;
#X obj 221 548 lop~ 500;
#X obj 239 351 hip~ 20;
#X obj 238 324 hip~ 20;
#X obj 457 834 line~;
#X msg 457 808 \$1 10;
#X obj 222 840 *~;
#X obj 219 287 lop~ 500;
#X obj 487 114 * -1;
#X obj 487 138 + 1;
#X obj 487 166 pow 4;
#X obj 558 520 hip~ 750;
#X obj 557 548 hip~ 750;
#X obj 487 198 * 8500;
#X obj 608 391 *~ 2;
#X obj 727 598 + 0.3;
#X obj 727 569 * 2;
#X obj 727 539 pow 7;
#X obj 380 370 lop~ 2500;
#X obj 381 398 lop~ 2500;
#X obj 380 338 hip~ 400;
#X obj 380 317 hip~ 1400;
#X obj 487 228 + 500;
#X connect 1 0 0 0;
#X connect 1 0 0 1;
#X connect 2 0 27 0;
#X connect 2 0 28 0;
#X connect 3 0 4 0;
#X connect 3 0 41 0;
#X connect 4 0 34 0;
#X connect 5 0 31 0;
#X connect 12 0 75 1;
#X connect 13 0 12 0;
#X connect 14 0 74 0;
#X connect 15 0 39 1;
#X connect 15 0 33 1;
#X connect 15 0 83 0;
#X connect 16 0 15 0;
#X connect 17 0 21 0;
#X connect 17 0 62 0;
#X connect 17 0 77 0;
#X connect 18 0 28 1;
#X connect 19 0 18 0;
#X connect 20 0 19 0;
#X connect 21 0 68 0;
#X connect 22 0 16 0;
#X connect 23 0 24 0;
#X connect 24 0 26 0;
#X connect 25 0 27 1;
#X connect 26 0 25 0;
#X connect 27 0 1 0;
#X connect 28 0 3 0;
#X connect 29 0 23 0;
#X connect 30 0 5 0;
#X connect 30 0 31 0;
#X connect 31 0 75 0;
#X connect 32 0 49 0;
#X connect 33 0 43 0;
#X connect 34 0 47 0;
#X connect 35 0 30 0;
#X connect 36 0 80 0;
#X connect 37 0 46 0;
#X connect 38 0 70 0;
#X connect 39 0 44 0;
#X connect 40 0 39 0;
#X connect 41 0 76 0;
#X connect 42 0 41 1;
#X connect 43 0 32 0;
#X connect 44 0 38 0;
#X connect 45 0 50 0;
#X connect 46 0 36 0;
#X connect 47 0 42 0;
#X connect 48 0 65 0;
#X connect 49 0 45 0;
#X connect 50 0 48 0;
#X connect 51 0 64 1;
#X connect 52 0 51 0;
#X connect 53 0 65 1;
#X connect 54 0 53 0;
#X connect 55 0 57 0;
#X connect 56 0 66 1;
#X connect 57 0 56 0;
#X connect 58 0 54 0;
#X connect 59 0 52 0;
#X connect 62 0 63 0;
#X connect 63 0 86 0;
#X connect 64 0 35 0;
#X connect 65 0 35 0;
#X connect 66 0 35 0;
#X connect 67 0 64 0;
#X connect 68 0 22 0;
#X connect 69 0 66 0;
#X connect 70 0 67 0;
#X connect 71 0 40 0;
#X connect 72 0 71 0;
#X connect 73 0 1 1;
#X connect 74 0 73 0;
#X connect 75 0 1 0;
#X connect 76 0 72 0;
#X connect 76 0 39 0;
#X connect 76 0 90 0;
#X connect 77 0 78 0;
#X connect 78 0 79 0;
#X connect 79 0 82 0;
#X connect 80 0 81 0;
#X connect 81 0 69 0;
#X connect 82 0 91 0;
#X connect 83 0 37 1;
#X connect 84 0 13 0;
#X connect 85 0 84 0;
#X connect 86 0 85 0;
#X connect 87 0 88 0;
#X connect 88 0 33 0;
#X connect 89 0 37 0;
#X connect 89 0 87 0;
#X connect 90 0 89 0;
#X connect 91 0 76 1;
#X coords 0 -1 1 1 150 150 1 10 10;
