#N canvas 537 50 504 895 10;
#N canvas 1138 142 450 473 filter 0;
#X obj 48 409 outlet~;
#N canvas 0 50 450 512 coeff 0;
#X obj 73 19 inlet~;
#N canvas 557 151 477 316 hz2rad 0;
#X obj 88 50 samplerate~;
#X msg 88 76 6.28319 \$1;
#X obj 88 98 /;
#X obj 28 148 *~;
#X obj 28 20 inlet~;
#X obj 88 20 loadbang;
#X obj 28 179 outlet~;
#X obj 161 -33 r pd;
#X obj 161 -4 route audio-dialog;
#X obj 161 25 unpack f f f f f f f f f f f f f f f f f;
#X obj 222 126 bng 15 250 50 0 empty empty empty 17 7 0 10 -262144
-1 -1;
#X connect 0 0 1 0;
#X connect 1 0 2 0;
#X connect 2 0 3 1;
#X connect 3 0 6 0;
#X connect 4 0 3 0;
#X connect 5 0 0 0;
#X connect 7 0 8 0;
#X connect 8 0 9 0;
#X connect 9 16 1 0;
#X connect 10 0 0 0;
#X restore 72 70 pd hz2rad;
#X obj 72 96 clip~ 0 1;
#X obj 72 225 *~ 0.992;
#X obj 148 177 *~;
#X obj 162 200 *~;
#X obj 92 246 *~ -0.4342;
#X obj 111 267 *~ 0.1381;
#X obj 185 225 *~;
#X obj 72 348 +~;
#X obj 131 288 *~ -0.0202;
#X obj 162 393 *~ -1;
#X obj 161 428 +~ 1;
#X obj 71 467 outlet~;
#X obj 162 468 outlet~;
#X connect 0 0 1 0;
#X connect 1 0 2 0;
#X connect 2 0 3 0;
#X connect 2 0 4 0;
#X connect 2 0 4 1;
#X connect 2 0 5 1;
#X connect 2 0 8 1;
#X connect 3 0 9 0;
#X connect 4 0 5 0;
#X connect 4 0 6 0;
#X connect 5 0 7 0;
#X connect 5 0 8 0;
#X connect 6 0 9 0;
#X connect 7 0 9 0;
#X connect 8 0 10 0;
#X connect 9 0 11 0;
#X connect 9 0 13 0;
#X connect 10 0 9 0;
#X connect 11 0 12 0;
#X connect 12 0 14 0;
#X restore 131 244 pd coeff;
#N canvas 42 324 547 639 ladder 0;
#X obj 40 44 inlet~;
#X obj 223 51 inlet~;
#X obj 442 48 inlet~;
#N canvas 330 615 450 300 lop~ 0;
#X obj 65 45 inlet~;
#X obj 65 100 *~;
#X obj 65 190 outlet~;
#X obj 65 160 rpole~;
#X obj 133 47 inlet~;
#X obj 192 47 inlet~;
#X connect 0 0 1 0;
#X connect 1 0 3 0;
#X connect 3 0 2 0;
#X connect 4 0 1 1;
#X connect 5 0 3 1;
#X restore 40 300 pd lop~;
#X obj 122 604 outlet~;
#N canvas 330 615 450 300 lop~ 0;
#X obj 65 45 inlet~;
#X obj 65 100 *~;
#X obj 65 190 outlet~;
#X obj 65 160 rpole~;
#X obj 133 47 inlet~;
#X obj 192 47 inlet~;
#X connect 0 0 1 0;
#X connect 1 0 3 0;
#X connect 3 0 2 0;
#X connect 4 0 1 1;
#X connect 5 0 3 1;
#X restore 66 329 pd lop~;
#N canvas 330 615 450 300 lop~ 0;
#X obj 65 45 inlet~;
#X obj 65 100 *~;
#X obj 65 190 outlet~;
#X obj 65 160 rpole~;
#X obj 133 47 inlet~;
#X obj 192 47 inlet~;
#X connect 0 0 1 0;
#X connect 1 0 3 0;
#X connect 3 0 2 0;
#X connect 4 0 1 1;
#X connect 5 0 3 1;
#X restore 93 357 pd lop~;
#N canvas 330 615 450 300 lop~ 0;
#X obj 65 45 inlet~;
#X obj 65 100 *~;
#X obj 65 190 outlet~;
#X obj 65 160 rpole~;
#X obj 133 47 inlet~;
#X obj 192 47 inlet~;
#X connect 0 0 1 0;
#X connect 1 0 3 0;
#X connect 3 0 2 0;
#X connect 4 0 1 1;
#X connect 5 0 3 1;
#X restore 121 389 pd lop~;
#N canvas 0 50 450 300 tabsend 0;
#X obj 287 168 block~ 1 1 1;
#X obj 39 100 tabsend~ \$0-fb;
#X obj 45 47 inlet~;
#X connect 2 0 1 0;
#X restore 186 573 pd tabsend;
#X obj 354 258 table \$0-fb 1;
#N canvas 0 50 450 300 tabreceive 0;
#X obj 300 168 block~ 1 1 1;
#X obj 67 154 tabreceive~ \$0-fb;
#X obj 55 228 outlet~;
#X connect 1 0 2 0;
#X restore 68 124 pd tabreceive;
#X obj 68 186 *~;
#X obj 362 224 block~ 1 1 1;
#X obj 325 52 inlet~;
#N canvas 261 235 450 300 hypertan 0;
#X obj 109 39 inlet~;
#X obj 108 233 /~;
#X obj 142 105 abs~;
#X obj 144 162 +~ 1;
#X obj 109 260 outlet~;
#X obj 144 202 pow~ 0.4;
#X obj 230 56 loadbang;
#X msg 230 162 0.4;
#X obj 143 135 pow~ 2.5;
#X msg 196 105 2.5;
#X connect 0 0 2 0;
#X connect 0 0 1 0;
#X connect 1 0 4 0;
#X connect 2 0 8 0;
#X connect 3 0 5 0;
#X connect 5 0 1 1;
#X connect 6 0 7 0;
#X connect 6 0 9 0;
#X connect 7 0 5 1;
#X connect 8 0 3 0;
#X connect 9 0 8 1;
#X restore 123 504 pd hypertan;
#X obj 68 159 -~;
#X obj 69 219 *~ 3;
#X obj 122 441 *~ 2;
#X obj 186 542 hip~ 50;
#X connect 0 0 3 0;
#X connect 0 0 15 1;
#X connect 1 0 3 1;
#X connect 1 0 5 1;
#X connect 1 0 6 1;
#X connect 1 0 7 1;
#X connect 2 0 11 1;
#X connect 3 0 5 0;
#X connect 5 0 6 0;
#X connect 6 0 7 0;
#X connect 7 0 17 0;
#X connect 10 0 15 0;
#X connect 11 0 16 0;
#X connect 13 0 3 2;
#X connect 13 0 5 2;
#X connect 13 0 6 2;
#X connect 13 0 7 2;
#X connect 14 0 4 0;
#X connect 14 0 18 0;
#X connect 15 0 11 0;
#X connect 16 0 3 0;
#X connect 17 0 14 0;
#X connect 18 0 8 0;
#X restore 48 317 pd ladder;
#X obj 47 11 inlet~;
#X obj 130 12 inlet~;
#N canvas 261 235 450 300 hypertan 0;
#X obj 109 39 inlet~;
#X obj 108 233 /~;
#X obj 142 105 abs~;
#X obj 144 162 +~ 1;
#X obj 109 260 outlet~;
#X obj 144 202 pow~ 0.4;
#X obj 230 56 loadbang;
#X msg 230 162 0.4;
#X obj 143 135 pow~ 2.5;
#X msg 196 105 2.5;
#X connect 0 0 2 0;
#X connect 0 0 1 0;
#X connect 1 0 4 0;
#X connect 2 0 8 0;
#X connect 3 0 5 0;
#X connect 5 0 1 1;
#X connect 6 0 7 0;
#X connect 6 0 9 0;
#X connect 7 0 5 1;
#X connect 8 0 3 0;
#X connect 9 0 8 1;
#X restore 48 224 pd hypertan;
#X obj 252 157 r \$0-resonance;
#X msg 252 210 \$1 10;
#X obj 252 240 line~;
#X obj 252 185 * -1;
#X obj 47 258 *~ 0.5;
#X obj 130 182 clip~ 0 10000;
#X obj 131 143 lop~ 200;
#X obj 49 367 *~;
#X obj 251 312 +~ 1;
#X obj 252 278 *~ 0.5;
#X connect 1 0 2 1;
#X connect 1 1 2 2;
#X connect 2 0 13 0;
#X connect 3 0 5 0;
#X connect 4 0 12 0;
#X connect 5 0 10 0;
#X connect 6 0 9 0;
#X connect 7 0 8 0;
#X connect 8 0 2 3;
#X connect 8 0 15 0;
#X connect 9 0 7 0;
#X connect 10 0 2 0;
#X connect 11 0 1 0;
#X connect 12 0 11 0;
#X connect 13 0 0 0;
#X connect 14 0 13 1;
#X connect 15 0 14 0;
#X restore 16 617 pd filter;
#N canvas 0 50 450 300 bl-sawtooth 0;
#N canvas 369 131 431 531 transition-table 0;
#X obj 109 359 cos~;
#X obj 61 354 cos~;
#X msg 152 266 -0.0005;
#X obj 109 333 *~ 3;
#X obj 109 384 *~ 0.33333;
#X obj 61 382 *~ -1;
#X obj 60 293 phasor~ 22.05;
#X obj 61 415 *~ 0.75;
#X obj 141 44 table \$0-transition 1002;
#X obj 60 272 / 1000;
#X obj 241 221 switch~;
#X obj 280 176 delay 100;
#X msg 280 196 0;
#X msg 241 175 1;
#X obj 60 41 loadbang;
#X obj 60 83 samplerate~;
#X obj 60 109 * 0.5;
#X obj 15 300 t b;
#X obj 61 442 tabwrite~ \$0-transition;
#X obj 106 150 s \$0-nyquist;
#X obj 350 201 s pd;
#X msg 350 174 dsp 1;
#X obj 241 149 t b b b;
#X connect 0 0 4 0;
#X connect 1 0 5 0;
#X connect 2 0 6 1;
#X connect 3 0 0 0;
#X connect 4 0 7 0;
#X connect 5 0 7 0;
#X connect 6 0 1 0;
#X connect 6 0 3 0;
#X connect 7 0 18 0;
#X connect 9 0 6 0;
#X connect 11 0 12 0;
#X connect 12 0 10 0;
#X connect 13 0 10 0;
#X connect 14 0 15 0;
#X connect 15 0 16 0;
#X connect 16 0 2 0;
#X connect 16 0 9 0;
#X connect 16 0 17 0;
#X connect 16 0 19 0;
#X connect 16 0 22 0;
#X connect 17 0 18 0;
#X connect 21 0 20 0;
#X connect 22 0 13 0;
#X connect 22 1 11 0;
#X connect 22 2 21 0;
#X restore 198 100 pd transition-table;
#X obj 37 23 inlet~;
#X obj 39 258 outlet~;
#X obj 37 196 *~ 2;
#X obj 38 225 -~ 1;
#N canvas 666 172 417 528 splicetrans 0;
#X obj 53 384 -~;
#X obj 177 225 /~;
#X obj 194 202 clip~ 1 999999;
#X obj 69 255 *~;
#X obj 69 279 clip~ -0.5 0.5;
#X obj 69 303 *~ 1000;
#X obj 69 327 +~ 501;
#X obj 52 207 -~ 0.5;
#X obj 177 174 * 0.4;
#X obj 52 128 inlet~;
#X obj 52 429 outlet~;
#X obj 272 131 inlet~;
#X obj 53 406 +~ 0.5;
#X obj 272 170 samphold~;
#X obj 177 133 r \$0-nyquist;
#X obj 69 351 tabread~ \$0-transition;
#X connect 0 0 12 0;
#X connect 1 0 3 1;
#X connect 2 0 1 1;
#X connect 3 0 4 0;
#X connect 4 0 5 0;
#X connect 5 0 6 0;
#X connect 6 0 15 0;
#X connect 7 0 3 0;
#X connect 7 0 0 0;
#X connect 8 0 1 0;
#X connect 9 0 7 0;
#X connect 9 0 13 1;
#X connect 11 0 13 0;
#X connect 12 0 10 0;
#X connect 13 0 2 0;
#X connect 14 0 8 0;
#X connect 15 0 0 1;
#X restore 38 158 pd splicetrans;
#X obj 38 89 phasor~;
#X connect 1 0 6 0;
#X connect 1 0 5 1;
#X connect 3 0 4 0;
#X connect 4 0 2 0;
#X connect 5 0 3 0;
#X connect 6 0 5 0;
#X restore 18 458 pd bl-sawtooth;
#X obj 15 784 *~;
#X obj 16 849 dac~;
#X obj 117 460 line~;
#X msg 117 430 \$1 10;
#X obj 40 529 osc~;
#X obj 116 503 *~;
#X obj 251 337 *~;
#X obj 69 310 *~;
#X obj 17 594 hip~ 5;
#X obj 69 336 +~ 1;
#X obj 18 359 *~;
#X obj 18 285 +~;
#X obj 29 645 r \$0-gate;
#X obj 29 694 line~;
#X obj 29 694 line~;
#N canvas 0 50 375 446 echo 0;
#X obj 67 27 inlet~;
#X obj 192 283 delwrite~ \$0-echo 1000;
#X obj 191 106 vd~ \$0-echo;
#X obj 190 76 lop~ 3;
#X obj 190 47 * 1000;
#X obj 66 394 outlet~;
#X obj 192 215 *~;
#X obj 207 131 r \$0-delayfeedback;
#X obj 190 20 r \$0-delaytime;
#X obj 207 183 line~;
#X msg 207 158 \$1 10;
#X connect 0 0 1 0;
#X connect 0 0 5 0;
#X connect 2 0 6 0;
#X connect 3 0 2 0;
#X connect 4 0 3 0;
#X connect 6 0 1 0;
#X connect 6 0 5 0;
#X connect 7 0 10 0;
#X connect 8 0 4 0;
#X connect 9 0 6 1;
#X connect 10 0 9 0;
#X restore 16 751 pd echo;
#X obj 24 145 hsl 128 15 0 1 0 0 \$0-delaytime \$0-delaytime-gui delay-time
-2 -8 0 10 -262144 -1 -1 1300 1;
#X obj 168 145 hsl 128 15 0 1 0 0 \$0-delayfeedback \$0-delayfeedback-gui
delay-feedback -2 -8 0 10 -262144 -1 -1 6700 1;
#X obj 251 364 +~ 1;
#X obj 168 108 hsl 128 15 0 1 0 0 \$0-rate \$0-rate-gui rate -2 -8
0 10 -262144 -1 -1 4700 1;
#X obj 24 51 hsl 128 15 0 1 0 0 \$0-cutoff \$0-cutoff-gui cutoff -2
-8 0 10 -262144 -1 -1 5000 1;
#X obj 132 548 *~ 0.01;
#X obj 117 578 *~;
#N canvas 746 164 295 567 clock 0;
#X obj 36 472 *~;
#X obj 35 416 *~ -1;
#X obj 36 442 +~ 1;
#X obj 35 306 phasor~;
#X obj 35 382 wrap~;
#X obj 34 356 *~ 16;
#X obj 150 155 r \$0-gate;
#X obj 150 181 sel 1;
#X msg 150 210 0;
#X obj 150 238 spigot;
#X obj 93 67 sel 0;
#X msg 120 130 0;
#X obj 93 92 t f f;
#X msg 93 188 0;
#X obj 35 213 line~;
#X msg 35 183 \$1 10;
#X obj 93 213 pipe 10;
#X obj 35 87 t f f;
#X obj 37 504 outlet~;
#X obj 35 8 r \$0-rate;
#N canvas 0 50 450 300 math 0;
#X msg 74 132 1 \$1;
#X obj 74 155 /;
#X obj 74 105 pow 8;
#X obj 74 182 - 1;
#X obj 74 55 * -0.5;
#X obj 74 80 + 1;
#X obj 74 211 / 16;
#X obj 74 26 inlet;
#X obj 74 241 outlet;
#X connect 0 0 1 0;
#X connect 1 0 3 0;
#X connect 2 0 0 0;
#X connect 3 0 6 0;
#X connect 4 0 5 0;
#X connect 5 0 2 0;
#X connect 6 0 8 0;
#X connect 7 0 4 0;
#X restore 35 34 pd math;
#X connect 0 0 18 0;
#X connect 1 0 2 0;
#X connect 2 0 0 0;
#X connect 2 0 0 1;
#X connect 3 0 5 0;
#X connect 4 0 1 0;
#X connect 5 0 4 0;
#X connect 6 0 7 0;
#X connect 7 0 8 0;
#X connect 8 0 9 0;
#X connect 9 0 3 1;
#X connect 10 0 12 0;
#X connect 11 0 15 0;
#X connect 12 0 13 0;
#X connect 12 1 11 0;
#X connect 13 0 16 0;
#X connect 14 0 3 0;
#X connect 15 0 14 0;
#X connect 16 0 3 1;
#X connect 17 0 15 0;
#X connect 17 1 9 1;
#X connect 19 0 20 0;
#X connect 20 0 10 0;
#X connect 20 0 17 0;
#X restore 251 182 pd clock;
#N canvas 634 192 492 598 mono-input 0;
#X obj 75 15 notein;
#X obj 178 555 outlet;
#X obj 233 307 tabwrite \$0-notes-kbd;
#X msg 233 245 0 \$1;
#X msg 94 249 1 \$1;
#X obj 75 178 route 1;
#X obj 206 178 route 0;
#X obj 96 56 != 0;
#X obj 75 126 pack f f;
#X obj 75 89 swap;
#X obj 240 83 table \$0-notes-kbd 200;
#X obj 243 524 s \$0-gate;
#X msg 200 472 0;
#X obj 206 205 t b f;
#X obj 75 209 t b f b;
#X obj 75 306 array max \$0-notes-kbd;
#X obj 204 351 t f f f;
#X obj 151 473 sel 0;
#X obj 243 383 change;
#X msg 243 418 1;
#X obj 200 448 sel 0;
#X obj 178 523 mtof;
#X connect 0 0 9 0;
#X connect 0 1 7 0;
#X connect 3 0 2 0;
#X connect 4 0 2 0;
#X connect 5 0 14 0;
#X connect 6 0 13 0;
#X connect 7 0 9 1;
#X connect 8 0 5 0;
#X connect 8 0 6 0;
#X connect 9 0 8 0;
#X connect 9 1 8 1;
#X connect 12 0 11 0;
#X connect 13 0 15 0;
#X connect 13 1 3 0;
#X connect 14 0 15 0;
#X connect 14 1 4 0;
#X connect 15 1 16 0;
#X connect 16 0 17 0;
#X connect 16 1 20 0;
#X connect 16 2 18 0;
#X connect 17 1 21 0;
#X connect 18 0 19 0;
#X connect 19 0 11 0;
#X connect 20 0 12 0;
#X connect 21 0 1 0;
#X restore 18 177 pd mono-input;
#X obj 18 241 sig~;
#X obj 117 377 r \$0-cutoff;
#X obj 84 207 r \$0-mod-frequency;
#X obj 266 262 r \$0-mod-filter;
#X obj 24 79 hsl 128 15 0 1 0 0 \$0-resonance \$0-resonance-gui resonance
-2 -8 0 10 -262144 -1 -1 1800 1;
#X obj 15 721 *~;
#X obj 168 80 hsl 128 15 0 1 0 0 \$0-mod-filter \$0-mod-filter-gui
modulation-filter -2 -8 0 10 -262144 -1 -1 5800 1;
#X obj 168 52 hsl 128 15 0 1 0 0 \$0-mod-frequency \$0-mod-frequency-gui
modulation-frequency -2 -8 0 10 -262144 -1 -1 6800 1;
#N canvas 0 50 1320 638 midilearn 0;
#X obj 32 272 array set \$0-midilearn;
#X obj 127 64 sel 1;
#X obj 19 55 ctlin;
#X obj 161 235 + 1;
#X obj 127 235 f;
#X msg 127 92 0;
#X obj 32 137 change;
#X obj 56 194 t b;
#X msg 127 337 cutoff;
#X msg 140 369 resonance;
#X obj 32 99 spigot;
#X msg 272 336 0;
#X obj 65 24 r \$0-midi-learn-s;
#X obj 282 364 s \$0-midi-learn-r;
#X obj 417 34 ctlin;
#X obj 417 68 / 127;
#X obj 417 129 pack f f;
#X obj 417 100 swap;
#X obj 417 237 s \$0-cutoff;
#X obj 480 130 tabread \$0-midilearn;
#X msg 480 108 0;
#X obj 480 25 loadbang;
#X obj 494 77 sel 0;
#X obj 417 157 route;
#X msg 438 183 set \$1;
#X obj 494 54 r \$0-midi-learn-s;
#X obj 614 34 ctlin;
#X obj 614 68 / 127;
#X obj 614 129 pack f f;
#X obj 614 100 swap;
#X obj 677 130 tabread \$0-midilearn;
#X obj 677 25 loadbang;
#X obj 691 77 sel 0;
#X obj 614 157 route;
#X msg 635 183 set \$1;
#X obj 691 54 r \$0-midi-learn-s;
#X obj 812 35 ctlin;
#X obj 812 69 / 127;
#X obj 812 130 pack f f;
#X obj 812 101 swap;
#X obj 875 131 tabread \$0-midilearn;
#X obj 875 26 loadbang;
#X obj 889 78 sel 0;
#X obj 812 158 route;
#X msg 833 184 set \$1;
#X obj 889 55 r \$0-midi-learn-s;
#X obj 1009 35 ctlin;
#X obj 1009 69 / 127;
#X obj 1009 130 pack f f;
#X obj 1009 101 swap;
#X obj 1072 131 tabread \$0-midilearn;
#X obj 1072 26 loadbang;
#X obj 1086 78 sel 0;
#X obj 1009 158 route;
#X msg 1030 184 set \$1;
#X obj 1086 55 r \$0-midi-learn-s;
#X msg 677 108 1;
#X msg 875 109 2;
#X msg 1072 109 3;
#X obj 414 275 ctlin;
#X obj 414 309 / 127;
#X obj 414 370 pack f f;
#X obj 414 341 swap;
#X obj 477 371 tabread \$0-midilearn;
#X obj 477 266 loadbang;
#X obj 491 318 sel 0;
#X obj 414 398 route;
#X msg 435 424 set \$1;
#X obj 491 295 r \$0-midi-learn-s;
#X obj 617 269 ctlin;
#X obj 617 303 / 127;
#X obj 617 364 pack f f;
#X obj 617 335 swap;
#X obj 680 365 tabread \$0-midilearn;
#X obj 680 260 loadbang;
#X obj 694 312 sel 0;
#X obj 617 392 route;
#X msg 638 418 set \$1;
#X obj 694 289 r \$0-midi-learn-s;
#X obj 823 272 ctlin;
#X obj 823 306 / 127;
#X obj 823 367 pack f f;
#X obj 823 338 swap;
#X obj 886 368 tabread \$0-midilearn;
#X obj 886 263 loadbang;
#X obj 900 315 sel 0;
#X obj 823 395 route;
#X msg 844 421 set \$1;
#X obj 900 292 r \$0-midi-learn-s;
#X obj 1026 273 ctlin;
#X obj 1026 307 / 127;
#X obj 1026 368 pack f f;
#X obj 1026 339 swap;
#X obj 1089 369 tabread \$0-midilearn;
#X obj 1089 264 loadbang;
#X obj 1103 316 sel 0;
#X obj 1026 396 route;
#X msg 1047 422 set \$1;
#X obj 1103 293 r \$0-midi-learn-s;
#X msg 477 349 4;
#X msg 680 343 5;
#X msg 886 346 6;
#X msg 1089 347 7;
#X obj 833 211 s \$0-mod-frequency-gui;
#X obj 1030 211 s \$0-mod-filter-gui;
#X obj 812 234 s \$0-mod-frequency-gui;
#X obj 614 233 s \$0-resonance;
#X obj 1009 233 s \$0-mod-filter;
#X obj 638 445 s \$0-delaytime-gui;
#X obj 617 472 s \$0-delaytime;
#X obj 844 448 s \$0-delayfeedback-gui;
#X obj 823 475 s \$0-delayfeedback;
#X obj 435 451 s \$0-rate-gui;
#X obj 414 478 s \$0-rate;
#X msg 155 395 mod-frequency;
#X msg 168 426 mod-filter;
#X msg 181 457 rate;
#X msg 195 483 delaytime;
#X msg 209 504 delayfeedback;
#X msg 272 423 done;
#X obj 635 210 s \$0-resonance-gui;
#X obj 438 210 s \$0-cutoff-gui;
#X obj 174 166 array define -k \$0-midilearn 10;
#A 0 21 22 70 72 73 26 28 83 0 0;
#X obj 1047 449 s \$0-volume-gui;
#X obj 1026 476 s \$0-volume;
#X obj 127 299 sel 0 1 2 3 4 5 6 7 8;
#X msg 222 529 volume;
#X msg 514 179 0.5;
#X msg 720 177 0.2;
#X msg 911 172 0;
#X msg 1108 179 0;
#X msg 501 415 0.5;
#X msg 707 407 0.2;
#X msg 1115 414 0.5;
#X msg 913 412 0;
#X obj 127 578 print midi learn;
#X connect 1 0 5 0;
#X connect 2 1 10 0;
#X connect 3 0 4 1;
#X connect 4 0 3 0;
#X connect 4 0 0 1;
#X connect 4 0 125 0;
#X connect 5 0 6 0;
#X connect 5 0 4 0;
#X connect 6 0 0 0;
#X connect 6 0 7 0;
#X connect 7 0 4 0;
#X connect 8 0 135 0;
#X connect 9 0 135 0;
#X connect 10 0 6 0;
#X connect 11 0 13 0;
#X connect 11 0 119 0;
#X connect 12 0 1 0;
#X connect 12 0 10 1;
#X connect 14 0 15 0;
#X connect 14 1 17 1;
#X connect 15 0 17 0;
#X connect 16 0 23 0;
#X connect 17 0 16 0;
#X connect 17 1 16 1;
#X connect 19 0 23 1;
#X connect 20 0 19 0;
#X connect 21 0 20 0;
#X connect 21 0 127 0;
#X connect 22 0 20 0;
#X connect 23 0 24 0;
#X connect 23 0 18 0;
#X connect 24 0 121 0;
#X connect 25 0 22 0;
#X connect 26 0 27 0;
#X connect 26 1 29 1;
#X connect 27 0 29 0;
#X connect 28 0 33 0;
#X connect 29 0 28 0;
#X connect 29 1 28 1;
#X connect 30 0 33 1;
#X connect 31 0 56 0;
#X connect 31 0 128 0;
#X connect 32 0 56 0;
#X connect 33 0 34 0;
#X connect 33 0 106 0;
#X connect 34 0 120 0;
#X connect 35 0 32 0;
#X connect 36 0 37 0;
#X connect 36 1 39 1;
#X connect 37 0 39 0;
#X connect 38 0 43 0;
#X connect 39 0 38 0;
#X connect 39 1 38 1;
#X connect 40 0 43 1;
#X connect 41 0 57 0;
#X connect 41 0 129 0;
#X connect 42 0 57 0;
#X connect 43 0 44 0;
#X connect 43 0 105 0;
#X connect 44 0 103 0;
#X connect 45 0 42 0;
#X connect 46 0 47 0;
#X connect 46 1 49 1;
#X connect 47 0 49 0;
#X connect 48 0 53 0;
#X connect 49 0 48 0;
#X connect 49 1 48 1;
#X connect 50 0 53 1;
#X connect 51 0 58 0;
#X connect 51 0 130 0;
#X connect 52 0 58 0;
#X connect 53 0 54 0;
#X connect 53 0 107 0;
#X connect 54 0 104 0;
#X connect 55 0 52 0;
#X connect 56 0 30 0;
#X connect 57 0 40 0;
#X connect 58 0 50 0;
#X connect 59 0 60 0;
#X connect 59 1 62 1;
#X connect 60 0 62 0;
#X connect 61 0 66 0;
#X connect 62 0 61 0;
#X connect 62 1 61 1;
#X connect 63 0 66 1;
#X connect 64 0 99 0;
#X connect 64 0 131 0;
#X connect 65 0 99 0;
#X connect 66 0 67 0;
#X connect 66 0 113 0;
#X connect 67 0 112 0;
#X connect 68 0 65 0;
#X connect 69 0 70 0;
#X connect 69 1 72 1;
#X connect 70 0 72 0;
#X connect 71 0 76 0;
#X connect 72 0 71 0;
#X connect 72 1 71 1;
#X connect 73 0 76 1;
#X connect 74 0 100 0;
#X connect 74 0 132 0;
#X connect 75 0 100 0;
#X connect 76 0 77 0;
#X connect 76 0 109 0;
#X connect 77 0 108 0;
#X connect 78 0 75 0;
#X connect 79 0 80 0;
#X connect 79 1 82 1;
#X connect 80 0 82 0;
#X connect 81 0 86 0;
#X connect 82 0 81 0;
#X connect 82 1 81 1;
#X connect 83 0 86 1;
#X connect 84 0 101 0;
#X connect 84 0 134 0;
#X connect 85 0 101 0;
#X connect 86 0 87 0;
#X connect 86 0 111 0;
#X connect 87 0 110 0;
#X connect 88 0 85 0;
#X connect 89 0 90 0;
#X connect 89 1 92 1;
#X connect 90 0 92 0;
#X connect 91 0 96 0;
#X connect 92 0 91 0;
#X connect 92 1 91 1;
#X connect 93 0 96 1;
#X connect 94 0 102 0;
#X connect 94 0 133 0;
#X connect 95 0 102 0;
#X connect 96 0 97 0;
#X connect 96 0 124 0;
#X connect 97 0 123 0;
#X connect 98 0 95 0;
#X connect 99 0 63 0;
#X connect 100 0 73 0;
#X connect 101 0 83 0;
#X connect 102 0 93 0;
#X connect 114 0 135 0;
#X connect 115 0 135 0;
#X connect 116 0 135 0;
#X connect 117 0 135 0;
#X connect 118 0 135 0;
#X connect 119 0 135 0;
#X connect 125 0 8 0;
#X connect 125 1 9 0;
#X connect 125 2 114 0;
#X connect 125 3 115 0;
#X connect 125 4 116 0;
#X connect 125 5 117 0;
#X connect 125 6 118 0;
#X connect 125 7 126 0;
#X connect 125 8 11 0;
#X connect 126 0 135 0;
#X connect 127 0 121 0;
#X connect 128 0 120 0;
#X connect 129 0 103 0;
#X connect 130 0 104 0;
#X connect 131 0 112 0;
#X connect 132 0 108 0;
#X connect 133 0 123 0;
#X connect 134 0 110 0;
#X restore 323 22 pd midilearn;
#X obj 233 18 tgl 15 0 \$0-midi-learn-s \$0-midi-learn-r midi-learn
17 7 0 10 -262144 -1 -1 0 1;
#N canvas 0 50 450 300 math 0;
#X msg 66 143 1 \$1;
#X obj 66 166 /;
#X obj 66 116 pow 8;
#X obj 66 193 - 1;
#X obj 66 66 * -0.5;
#X obj 66 91 + 1;
#X obj 66 219 * 40;
#X obj 66 29 inlet;
#X obj 66 261 outlet;
#X connect 0 0 1 0;
#X connect 1 0 3 0;
#X connect 2 0 0 0;
#X connect 3 0 6 0;
#X connect 4 0 5 0;
#X connect 5 0 2 0;
#X connect 6 0 8 0;
#X connect 7 0 4 0;
#X restore 117 405 pd math;
#X obj 41 562 *~ 0.2;
#X obj 266 311 line~;
#X msg 266 286 \$1 10;
#X obj 84 285 line~;
#X msg 84 255 \$1 10;
#X obj 40 504 *~ 0.5;
#N canvas 0 50 450 300 math 0;
#X msg 66 143 1 \$1;
#X obj 66 166 /;
#X obj 66 193 - 1;
#X obj 66 66 * -0.5;
#X obj 66 91 + 1;
#X obj 66 29 inlet;
#X obj 66 261 outlet;
#X obj 66 116 pow 4;
#X obj 66 219 * 0.2;
#X connect 0 0 1 0;
#X connect 1 0 2 0;
#X connect 2 0 8 0;
#X connect 3 0 4 0;
#X connect 4 0 7 0;
#X connect 5 0 3 0;
#X connect 7 0 0 0;
#X connect 8 0 6 0;
#X restore 84 233 pd math;
#X msg 29 670 \$1 3;
#X msg 29 670 \$1 5;
#X obj 24 108 hsl 128 15 0 1 0 0 \$0-volume \$0-volume-gui volume -2
-8 0 10 -262144 -1 -1 4000 1;
#X obj 81 711 r \$0-volume;
#X obj 81 758 line~;
#X msg 81 733 \$1 10;
#N canvas 261 235 450 300 hypertan 0;
#X obj 109 39 inlet~;
#X obj 108 233 /~;
#X obj 142 105 abs~;
#X obj 144 162 +~ 1;
#X obj 109 260 outlet~;
#X obj 144 202 pow~ 0.4;
#X obj 230 56 loadbang;
#X msg 230 162 0.4;
#X obj 143 135 pow~ 2.5;
#X msg 196 105 2.5;
#X connect 0 0 2 0;
#X connect 0 0 1 0;
#X connect 1 0 4 0;
#X connect 2 0 8 0;
#X connect 3 0 5 0;
#X connect 5 0 1 1;
#X connect 6 0 7 0;
#X connect 6 0 9 0;
#X connect 7 0 5 1;
#X connect 8 0 3 0;
#X connect 9 0 8 1;
#X restore 16 815 pd hypertan;
#X connect 0 0 32 0;
#X connect 1 0 10 0;
#X connect 2 0 51 0;
#X connect 4 0 7 0;
#X connect 5 0 4 0;
#X connect 6 0 38 0;
#X connect 7 0 24 0;
#X connect 8 0 20 0;
#X connect 9 0 11 0;
#X connect 10 0 0 0;
#X connect 11 0 12 1;
#X connect 12 0 1 0;
#X connect 12 0 43 0;
#X connect 13 0 12 0;
#X connect 13 0 23 0;
#X connect 14 0 45 0;
#X connect 15 0 32 1;
#X connect 17 0 2 0;
#X connect 20 0 7 1;
#X connect 23 0 24 1;
#X connect 24 0 0 1;
#X connect 25 0 9 0;
#X connect 25 0 8 0;
#X connect 26 0 27 0;
#X connect 27 0 13 0;
#X connect 28 0 37 0;
#X connect 29 0 44 0;
#X connect 30 0 40 0;
#X connect 32 0 17 0;
#X connect 37 0 5 0;
#X connect 38 0 10 0;
#X connect 39 0 8 1;
#X connect 40 0 39 0;
#X connect 41 0 9 1;
#X connect 42 0 41 0;
#X connect 43 0 6 0;
#X connect 44 0 42 0;
#X connect 45 0 15 0;
#X connect 46 0 16 0;
#X connect 48 0 50 0;
#X connect 49 0 2 1;
#X connect 50 0 49 0;
#X connect 51 0 3 1;
#X connect 51 0 3 0;
#X coords 0 -1 1 1 300 160 2 10 10;
