#N canvas 0 50 1920 997 10;
#X obj 52 -41 adc~;
#X obj 23 112 delwrite~ del1 3000;
#X obj 238 422 vd~ del1;
#X obj 771 82 line~;
#X obj 738 50 pack 0 5;
#X obj 636 -65 vsl 15 128 0.01 1 0 0 empty Effect_Vol Effect_Volume
0 -9 0 10 -260097 -1 -1 4922 1;
#X obj 237 254 phasor~;
#X obj 240 380 *~;
#X floatatom 371 65 10 0 0 0 - - -, f 10;
#X obj 341 -7 hsl 128 15 0 1 0 0 empty Speed Speed -2 -8 0 10 -262144
-1 -1 2900 1;
#X obj 341 45 hsl 128 15 0 1000 0 0 empty Depth Depth -2 -8 0 10 -262144
-1 -1 2900 1;
#X obj 380 329 +~ 0.5;
#X obj 380 353 wrap~;
#X obj 379 389 *~;
#X obj 165 113 delwrite~ del2 3000;
#X obj 381 447 vd~ del2;
#X obj 336 -73 hsl 128 15 0 0.9 0 0 empty Feedback Feedback -2 -8 0
10 -262144 -1 -1 12700 1;
#X obj 176 413 cos~;
#X obj 176 361 -~ 0.5;
#X obj 176 387 *~ 0.5;
#X obj 460 484 cos~;
#X obj 460 432 -~ 0.5;
#X obj 460 458 *~ 0.5;
#X obj 481 130 *~;
#X obj 516 103 line~;
#X obj 517 84 pack 0 5;
#X obj 522 -76 vsl 15 128 0.01 1 0 0 empty Main_Vol Main_Signal_Volume
0 -9 0 10 -4034 -1 -1 3710 1;
#X obj 481 152 send~ main;
#X obj 177 482 send~ out_del1;
#X obj 460 530 send~ out_del2;
#X obj 593 73 receive~ out_del1;
#X obj 592 99 receive~ out_del2;
#X obj 696 185 send~ effect;
#X obj 51 65 receive~ out_del1;
#X obj 179 63 receive~ out_del2;
#X obj 137 38 line~;
#X obj 138 19 pack 0 5;
#X obj 179 84 *~;
#X obj 51 85 *~;
#X obj 238 230 line~;
#X obj 239 211 pack 0 5;
#X floatatom 373 11 10 0 0 0 - - -, f 10;
#X floatatom 372 -39 10 0 0 0 - - -, f 10;
#X text 16 138 Write incoming signal + feedback from delays;
#X text 296 252 <-- 1 phasor controls the length of two delay lines
...;
#X text 430 386 <-- ... The output is squared so that the length of
the;
#X text 454 397 grows at an increasing speed.;
#X text 514 464 <-- The signal from the phasor is also used to make
an;
#X text 513 482 envelope for each delay line.;
#X text 427 327 <-- This shifts the phasor signal so that one delay
line;
#X text 431 343 starts growing when the other one is at half its cycle.
;
#X obj 862 -109 loadbang;
#X text 684 533 GuitarExtended \, Pierre Massat \, 2012;
#X msg 859 -76 \; Main_Vol 1 \; Effect_Vol 0.6 \; Feedback 0.9 \; Speed
0.07 \; Depth 322 \; pd dsp 1 \;;
#X obj 302 359 line~;
#X obj 303 340 pack 0 5;
#X obj 239 400 *~;
#X obj 380 424 *~;
#X obj 77 584 dac~;
#X obj 78 525 r~ main;
#X obj 174 534 r~ effect;
#X obj 860 62 midi_ctrl;
#X obj 701 135 *~;
#X obj 461 511 *~;
#X obj 176 440 *~;
#X connect 0 0 1 0;
#X connect 0 0 14 0;
#X connect 0 0 23 0;
#X connect 2 0 64 1;
#X connect 3 0 62 1;
#X connect 4 0 3 0;
#X connect 5 0 4 0;
#X connect 6 0 7 0;
#X connect 6 0 7 1;
#X connect 6 0 11 0;
#X connect 6 0 18 0;
#X connect 7 0 56 0;
#X connect 9 0 40 0;
#X connect 9 0 41 0;
#X connect 10 0 8 0;
#X connect 10 0 55 0;
#X connect 11 0 12 0;
#X connect 12 0 13 0;
#X connect 12 0 13 1;
#X connect 12 0 21 0;
#X connect 13 0 57 0;
#X connect 15 0 63 1;
#X connect 16 0 36 0;
#X connect 16 0 42 0;
#X connect 17 0 64 0;
#X connect 18 0 19 0;
#X connect 19 0 17 0;
#X connect 20 0 63 0;
#X connect 21 0 22 0;
#X connect 22 0 20 0;
#X connect 23 0 27 0;
#X connect 24 0 23 1;
#X connect 25 0 24 0;
#X connect 26 0 25 0;
#X connect 30 0 62 0;
#X connect 31 0 62 0;
#X connect 33 0 38 0;
#X connect 34 0 37 0;
#X connect 35 0 38 1;
#X connect 35 0 37 1;
#X connect 36 0 35 0;
#X connect 37 0 14 0;
#X connect 38 0 1 0;
#X connect 39 0 6 0;
#X connect 40 0 39 0;
#X connect 51 0 53 0;
#X connect 54 0 56 1;
#X connect 54 0 57 1;
#X connect 55 0 54 0;
#X connect 56 0 2 0;
#X connect 57 0 15 0;
#X connect 59 0 58 0;
#X connect 59 0 58 1;
#X connect 60 0 58 0;
#X connect 60 0 58 1;
#X connect 62 0 32 0;
#X connect 63 0 29 0;
#X connect 64 0 28 0;
