#N canvas 1912 50 1920 997 10;
#X floatatom 745 385 5 0 0 0 - - -, f 5;
#X floatatom 845 374 5 0 0 0 - - -, f 5;
#X obj 745 333 ctlin 1 1;
#X obj 745 358 / 127;
#X obj 845 349 / 127;
#X obj 845 324 ctlin 2 1;
#X floatatom 946 450 5 0 0 0 - - -, f 5;
#X obj 946 352 / 127;
#X obj 946 327 ctlin 3 1;
#X floatatom 1037 378 5 0 0 0 - - -, f 5;
#X obj 1037 354 / 127;
#X obj 1037 329 ctlin 4 1;
#X obj 1154 323 ctlin 5 1;
#X obj 745 410 s Main_Vol;
#X obj 845 401 s Effect_Vol;
#X obj 946 471 s Feedback;
#X obj 946 424 * 0.9;
#X obj 1041 466 s Speed;
#X floatatom 1154 448 5 0 0 0 - - -, f 5;
#X obj 1154 350 / 127;
#X obj 1154 422 * 1000;
#X obj 1154 469 s Depth;
#X text 109 145 CC1 SIGNAL VOL;
#X text 109 164 CC2 EFFECT VOL;
#X text 110 183 CC3 FEEDBACK;
#X text 109 201 CC4 SPEED;
#X text 109 220 CC5 DEPTH;
#X connect 0 0 13 0;
#X connect 1 0 14 0;
#X connect 2 0 3 0;
#X connect 3 0 0 0;
#X connect 4 0 1 0;
#X connect 5 0 4 0;
#X connect 6 0 15 0;
#X connect 7 0 16 0;
#X connect 8 0 7 0;
#X connect 9 0 17 0;
#X connect 10 0 9 0;
#X connect 11 0 10 0;
#X connect 12 0 19 0;
#X connect 16 0 6 0;
#X connect 18 0 21 0;
#X connect 19 0 20 0;
#X connect 20 0 18 0;
#X coords 0 -1 1 1 200 200 1 100 100;
