#N canvas 296 244 1399 658 10;
#X obj 149 238 pack f f f;
#X obj 149 263 route 1 2 3 4;
#X obj 156 208 poly 4 1;
#X obj 495 326 send~ f;
#X obj 495 217 sig~;
#X obj 90 115 r notes;
#X obj 494 248 lop~ 5;
#X obj 156 156 unpack 0 0;
#X obj 156 181 - 24;
#X obj 673 140 sig~;
#X obj 672 169 lop~ 5;
#X obj 672 195 send~ offset;
#X obj 673 117 * 2;
#X obj 835 141 sig~;
#X obj 835 169 lop~ 5;
#X obj 835 196 send~ resonance;
#X obj 835 118 * 4;
#X obj 1020 174 sig~;
#X obj 1019 207 lop~ 5;
#X obj 1019 232 s~ cutoff;
#X obj 1015 118 * 2000;
#X obj 1015 143 + 100;
#X obj 548 231 r fs;
#X obj 548 253 + 1;
#X floatatom 548 276 5 0 0 0 - - -, f 5;
#X obj 495 300 *~ 1;
#X obj 73 301 simple;
#X obj 143 300 simple;
#X obj 213 300 simple;
#X obj 284 300 simple;
#X text 68 87 notes from keyboard and sequencer;
#X obj 495 146 / 100;
#X obj 495 168 mtof;
#X obj 495 190 / 8.1785;
#X obj 494 118 * 2400;
#X obj 496 58 r knob1;
#X obj 673 92 r knob2;
#X obj 835 86 r knob3;
#X obj 1015 92 r knob4;
#X obj 188 342 *~ 0.75;
#X obj 93 473 notein;
#X obj 93 509 pack;
#X obj 93 541 spigot 1;
#X obj 167 489 r midiInGate;
#X obj 93 574 s notes;
#X floatatom 307 207 5 0 0 0 - - -, f 5;
#X obj 1241 186 spigot 1;
#X obj 1329 142 r midiInGate;
#X obj 1241 216 t f b;
#X obj 1241 254 / 127;
#X obj 1241 276 s knob1;
#X obj 1293 249 s knob1Override;
#X obj 1241 147 change;
#X obj 1440 182 spigot 1;
#X obj 1528 138 r midiInGate;
#X obj 1440 212 t f b;
#X obj 1440 250 / 127;
#X obj 1440 143 change;
#X obj 1634 178 spigot 1;
#X obj 1722 134 r midiInGate;
#X obj 1634 208 t f b;
#X obj 1634 246 / 127;
#X obj 1634 139 change;
#X obj 1832 177 spigot 1;
#X obj 1920 133 r midiInGate;
#X obj 1832 207 t f b;
#X obj 1832 245 / 127;
#X obj 1832 138 change;
#X obj 1440 272 s knob2;
#X obj 1634 268 s knob3;
#X obj 1832 267 s knob4;
#X obj 1492 245 s knob2Override;
#X obj 1687 241 s knob3Override;
#X obj 1884 239 s knob4Override;
#X obj 1241 119 ctlin 1 1;
#X obj 1439 115 ctlin 2 1;
#X obj 1634 112 ctlin 3 1;
#X obj 1832 111 ctlin 4 1;
#X obj 572 720 dac~;
#X obj 635 659 *~;
#X obj 869 453 r vol;
#X obj 869 506 *;
#X obj 869 479 t f f;
#X obj 869 534 sig~;
#X obj 869 560 lop~ 2;
#X obj 541 563 clip~ -1 1;
#X obj 630 563 clip~ -1 1;
#X obj 544 518 *~ 0.25;
#X obj 641 517 *~ 0.25;
#X obj 532 644 *~;
#X obj 1286 426 spigot 1;
#X obj 1374 382 r midiInGate;
#X obj 1286 456 t f b;
#X obj 1286 494 / 127;
#X obj 1286 387 change;
#X obj 1338 488 s knob4Override;
#X obj 1286 360 ctlin 5 1;
#X obj 1286 516 s vol;
#X obj 778 289 loadbang;
#X msg 777 332 \; pd dsp 1 \; vol 0.8 \;;
#X connect 0 0 1 0;
#X connect 1 0 26 0;
#X connect 1 1 27 0;
#X connect 1 2 28 0;
#X connect 1 3 29 0;
#X connect 2 0 0 0;
#X connect 2 1 0 1;
#X connect 2 2 0 2;
#X connect 4 0 6 0;
#X connect 5 0 7 0;
#X connect 5 0 45 0;
#X connect 6 0 25 0;
#X connect 7 0 8 0;
#X connect 7 1 2 1;
#X connect 8 0 2 0;
#X connect 9 0 10 0;
#X connect 10 0 11 0;
#X connect 12 0 9 0;
#X connect 13 0 14 0;
#X connect 14 0 15 0;
#X connect 16 0 13 0;
#X connect 17 0 18 0;
#X connect 18 0 19 0;
#X connect 20 0 21 0;
#X connect 21 0 17 0;
#X connect 22 0 23 0;
#X connect 23 0 24 0;
#X connect 24 0 25 1;
#X connect 25 0 3 0;
#X connect 26 0 39 0;
#X connect 27 0 39 0;
#X connect 28 0 39 0;
#X connect 29 0 39 0;
#X connect 31 0 32 0;
#X connect 32 0 33 0;
#X connect 33 0 4 0;
#X connect 34 0 31 0;
#X connect 35 0 34 0;
#X connect 36 0 12 0;
#X connect 37 0 16 0;
#X connect 38 0 20 0;
#X connect 39 0 87 0;
#X connect 39 0 88 0;
#X connect 40 0 41 0;
#X connect 40 1 41 1;
#X connect 41 0 42 0;
#X connect 42 0 44 0;
#X connect 43 0 42 1;
#X connect 46 0 48 0;
#X connect 47 0 46 1;
#X connect 48 0 49 0;
#X connect 48 1 51 0;
#X connect 49 0 50 0;
#X connect 52 0 46 0;
#X connect 53 0 55 0;
#X connect 54 0 53 1;
#X connect 55 0 56 0;
#X connect 55 1 71 0;
#X connect 56 0 68 0;
#X connect 57 0 53 0;
#X connect 58 0 60 0;
#X connect 59 0 58 1;
#X connect 60 0 61 0;
#X connect 60 1 72 0;
#X connect 61 0 69 0;
#X connect 62 0 58 0;
#X connect 63 0 65 0;
#X connect 64 0 63 1;
#X connect 65 0 66 0;
#X connect 65 1 73 0;
#X connect 66 0 70 0;
#X connect 67 0 63 0;
#X connect 74 0 52 0;
#X connect 75 0 57 0;
#X connect 76 0 62 0;
#X connect 77 0 67 0;
#X connect 79 0 78 1;
#X connect 80 0 82 0;
#X connect 81 0 83 0;
#X connect 82 0 81 0;
#X connect 82 1 81 1;
#X connect 83 0 84 0;
#X connect 84 0 79 1;
#X connect 84 0 89 1;
#X connect 85 0 89 0;
#X connect 86 0 79 0;
#X connect 87 0 85 0;
#X connect 88 0 86 0;
#X connect 89 0 78 0;
#X connect 90 0 92 0;
#X connect 91 0 90 1;
#X connect 92 0 93 0;
#X connect 92 1 95 0;
#X connect 93 0 97 0;
#X connect 94 0 90 0;
#X connect 96 0 94 0;
#X connect 98 0 99 0;
