#N canvas 1912 50 1920 997 10;
#X floatatom 745 385 5 0 0 0 - - -, f 5;
#X floatatom 845 374 5 0 0 0 - - -, f 5;
#X obj 745 333 ctlin 1 1;
#X obj 745 358 / 127;
#X obj 745 410 s tune;
#X obj 845 349 / 127;
#X obj 845 324 ctlin 2 1;
#X obj 845 401 s param2;
#X floatatom 946 377 5 0 0 0 - - -, f 5;
#X obj 946 352 / 127;
#X obj 946 327 ctlin 3 1;
#X floatatom 1037 378 5 0 0 0 - - -, f 5;
#X obj 1037 354 / 127;
#X obj 1037 329 ctlin 4 1;
#X obj 1037 402 s param4;
#X obj 1154 347 >= 64;
#X obj 1154 373 change;
#X obj 1154 323 ctlin 5 1;
#X obj 1154 400 s latch;
#X floatatom 1254 378 5 0 0 0 - - -, f 5;
#X obj 1254 351 / 127;
#X obj 1254 326 ctlin 6 1;
#X obj 1254 403 s roomsize;
#X obj 946 399 s vocwetdry;
#X text 109 145 CC1 TUNE;
#X text 109 164 CC2 SQUELCH;
#X text 110 183 CC3 VOCODER DRY/WET;
#X text 109 201 CC4 REVERB DRY/WET;
#X text 109 220 CC5 LATCH ON/OFF;
#X text 109 239 CC6 REVERB ROOMSIZE;
#X floatatom 1350 446 5 0 0 0 - - -, f 5;
#X obj 1350 353 / 127;
#X obj 1350 328 ctlin 7 1;
#X obj 1350 474 s damp;
#X obj 1350 387 * 1.5;
#X obj 1350 419 + 1.5;
#X connect 0 0 4 0;
#X connect 1 0 7 0;
#X connect 2 0 3 0;
#X connect 3 0 0 0;
#X connect 5 0 1 0;
#X connect 6 0 5 0;
#X connect 8 0 23 0;
#X connect 9 0 8 0;
#X connect 10 0 9 0;
#X connect 11 0 14 0;
#X connect 12 0 11 0;
#X connect 13 0 12 0;
#X connect 15 0 16 0;
#X connect 16 0 18 0;
#X connect 17 0 15 0;
#X connect 19 0 22 0;
#X connect 20 0 19 0;
#X connect 21 0 20 0;
#X connect 30 0 33 0;
#X connect 31 0 34 0;
#X connect 32 0 31 0;
#X connect 34 0 35 0;
#X connect 35 0 30 0;
#X coords 0 -1 1 1 200 200 1 100 100;
