#N canvas 301 60 1920 997 10;
#N canvas 417 264 450 403 armoire 0;
#X obj 20 36 table tab_43;
#X obj 20 55 table tab_44;
#X obj 20 74 table tab_45;
#X obj 20 93 table tab_46;
#X obj 20 112 table tab_47;
#X obj 20 131 table tab_48;
#X obj 20 150 table tab_49;
#X obj 20 169 table tab_50;
#X obj 20 188 table tab_51;
#X obj 20 207 table tab_52;
#X obj 20 226 table tab_53;
#X obj 20 245 table tab_54;
#X obj 20 264 table tab_55;
#X obj 105 36 table tab_56;
#X obj 105 55 table tab_57;
#X obj 105 74 table tab_58;
#X obj 105 93 table tab_59;
#X obj 105 112 table tab_60;
#X obj 105 131 table tab_61;
#X obj 105 150 table tab_62;
#X obj 105 169 table tab_63;
#X obj 105 188 table tab_64;
#X obj 105 207 table tab_65;
#X obj 105 226 table tab_66;
#X obj 105 245 table tab_67;
#X obj 105 264 table tab_68;
#X obj 190 36 table tab_69;
#X obj 190 55 table tab_70;
#X obj 190 74 table tab_71;
#X obj 190 93 table tab_72;
#X obj 190 112 table tab_73;
#X obj 190 131 table tab_74;
#X obj 190 150 table tab_75;
#X obj 190 169 table tab_76;
#X obj 190 188 table tab_77;
#X restore 822 269 pd armoire;
#N canvas 1912 50 1920 997 armement 0;
#X obj 198 507 soundfiler;
#X obj 244 339 until;
#X obj 245 413 textfile;
#X msg 311 389 rewind;
#X msg 244 362 bang;
#X obj 244 277 pipe 1;
#X msg 280 360 read notemap.txt cr;
#X obj 198 448 unpack s f;
#X obj 198 468 pack s s f;
#X obj 181 246 symbol;
#X obj 244 256 t s b;
#X obj 244 295 t b b;
#X msg 198 488 read -resize ./\$2/\$1 tab_\$3;
#X msg 244 319 35;
#X obj 181 18 inlet;
#X symbolatom 106 133 10 0 0 0 - - -, f 10;
#X text 107 106 Chargé;
#X obj 214 49 sel 0 1 2 3 4 5 6 7 8 9;
#X msg 271 200 Cello;
#X msg 207 86 MKIIFlute;
#X msg 295 243 CombinedChoir;
#X msg 248 155 MKIIViolin;
#X msg 283 222 StringSection;
#X msg 330 124 Woodwind;
#X msg 345 151 GC3Brass;
#X msg 220 109 M300A;
#X msg 232 133 M300B;
#X msg 260 178 MKIIBrass;
#X text 430 44 Here we load the choosen instrument into;
#X text 431 57 the bank of tables.;
#X text 431 73 The sound samples for each note have to;
#X text 430 87 be in folders located in the same folder;
#X text 431 102 as yellotron.pd.;
#X text 431 117 The samples (named C \, C# \, B...) are mapped;
#X text 431 130 to midi notes (60 \, 61 \, 62...) as per the information
;
#X text 431 144 contained in notemap.txt .;
#X connect 1 0 4 0;
#X connect 2 0 7 0;
#X connect 3 0 2 0;
#X connect 4 0 2 0;
#X connect 5 0 11 0;
#X connect 6 0 2 0;
#X connect 7 0 8 0;
#X connect 7 1 8 2;
#X connect 8 0 12 0;
#X connect 9 0 8 1;
#X connect 9 0 10 0;
#X connect 9 0 15 0;
#X connect 10 0 5 0;
#X connect 10 1 6 0;
#X connect 11 0 13 0;
#X connect 11 1 3 0;
#X connect 12 0 0 0;
#X connect 13 0 1 0;
#X connect 14 0 17 0;
#X connect 17 0 19 0;
#X connect 17 1 25 0;
#X connect 17 2 26 0;
#X connect 17 3 21 0;
#X connect 17 4 27 0;
#X connect 17 5 18 0;
#X connect 17 6 22 0;
#X connect 17 7 20 0;
#X connect 17 8 23 0;
#X connect 17 9 24 0;
#X connect 18 0 9 0;
#X connect 19 0 9 0;
#X connect 20 0 9 0;
#X connect 21 0 9 0;
#X connect 22 0 9 0;
#X connect 23 0 9 0;
#X connect 24 0 9 0;
#X connect 25 0 9 0;
#X connect 26 0 9 0;
#X connect 27 0 9 0;
#X coords 0 -1 1 1 85 60 2 100 100;
#X restore 824 149 pd armement;
#X obj 41 365 pack 0 0 0;
#X obj 74 607 dac~;
#X obj 39 387 route 1 2 3 4 5 6;
#X obj 633 223 s release;
#X obj 636 181 hsl 128 15 10 1000 0 0 empty empty empty -2 -8 0 10
-262144 -1 -1 2437 1;
#X floatatom 681 204 5 0 0 0 - - -, f 5;
#X obj 595 -44 loadbang;
#X obj 824 -4 vradio 15 1 0 10 empty empty empty 0 -8 0 10 -262144
-1 -1 3;
#X text 844 -6 MkII Flute;
#X text 844 8 M300A;
#X text 844 23 M300B;
#X text 844 38 MkII Violin;
#X text 844 54 MkII Brass;
#X text 844 69 Cello;
#X text 844 83 String Section;
#X text 844 99 Combined Choir;
#X text 844 114 Woodwind;
#X text 844 129 GC3 Brass;
#X obj 635 363 hsl 128 15 0 0.125 0 0 empty empty empty -2 -8 0 10
-262144 -1 -1 6350 1;
#X obj 632 408 s pitch;
#X obj 632 383 - 0.0625;
#X obj 41 202 notein;
#X obj 41 340 poly 6;
#X obj 321 475 yelloscillator;
#X obj 579 277 bendin;
#X obj 579 297 / 16383;
#X obj 579 316 / 8;
#X obj 71 533 *~ 0.3;
#X text 804 221 This is where all the notes;
#X text 804 237 for the instrument are stored;
#X text 805 250 in tables.;
#X text 37 139 This is to use a real;
#X text 37 153 midi keyboard to play.;
#X text 421 474 The audio happens here (inidivual notes are played
;
#X text 420 489 and then summed together before being sent to the audio
output (dac).;
#X obj 633 158 r set-release;
#X obj 632 342 r set-pitch;
#X msg 595 -23 \; pd dsp 1 \; set-release 200 \; set-pitch 0.0625;
#X text 605 89 This is set of control :;
#X text 605 103 speed of the release \,;
#X text 605 118 octave \, pitch.;
#X floatatom 726 429 5 0 0 0 - - -, f 5;
#X obj 31 475 yelloscillator;
#X obj 130 475 yelloscillator;
#X obj 81 501 yelloscillator;
#X obj 174 501 yelloscillator;
#X obj 228 475 yelloscillator;
#X text 726 595 Pierre Massat \, Guitar Extended \, 2014;
#X text 37 166 The bend wheel controls;
#X text 37 178 the pitch.;
#X text 777 -32 Choose an instrument.;
#X obj 154 570 clip~ -1 1;
#X obj 71 569 clip~ -1 1;
#X obj 461 123 ctlin 2 1;
#X obj 462 152 / 127;
#X obj 460 180 * 1000;
#X obj 460 298 / 127;
#X obj 458 326 * 0.125;
#X obj 459 269 ctlin 3 1;
#X obj 1042 10 ctlin 1 1;
#X obj 1045 45 / 12.7;
#X floatatom 1044 109 5 0 0 0 - - -, f 5;
#X obj 1043 81 % 10;
#X connect 2 0 4 0;
#X connect 4 0 44 0;
#X connect 4 1 45 0;
#X connect 4 2 46 0;
#X connect 4 3 47 0;
#X connect 4 4 48 0;
#X connect 4 5 25 0;
#X connect 6 0 7 0;
#X connect 6 0 5 0;
#X connect 8 0 39 0;
#X connect 9 0 1 0;
#X connect 20 0 22 0;
#X connect 22 0 21 0;
#X connect 22 0 43 0;
#X connect 23 0 24 0;
#X connect 23 1 24 1;
#X connect 24 0 2 0;
#X connect 24 1 2 1;
#X connect 24 2 2 2;
#X connect 25 0 29 0;
#X connect 26 0 27 0;
#X connect 27 0 28 0;
#X connect 28 0 20 0;
#X connect 29 0 54 0;
#X connect 29 0 53 0;
#X connect 37 0 6 0;
#X connect 38 0 20 0;
#X connect 44 0 29 0;
#X connect 45 0 29 0;
#X connect 46 0 29 0;
#X connect 47 0 29 0;
#X connect 48 0 29 0;
#X connect 53 0 3 1;
#X connect 54 0 3 0;
#X connect 55 0 56 0;
#X connect 56 0 57 0;
#X connect 57 0 6 0;
#X connect 58 0 59 0;
#X connect 59 0 20 0;
#X connect 60 0 58 0;
#X connect 61 0 62 0;
#X connect 62 0 64 0;
#X connect 63 0 1 0;
#X connect 64 0 63 0;
