#N canvas 140 131 728 591 10;
#X obj 402 -12 inlet;
#X obj 344 498 outlet~;
#X obj 343 466 *~;
#X obj 399 342 line~;
#X msg 471 289 0;
#X msg 399 290 1;
#X msg 343 404 set tab_\$1;
#X obj 252 185 t b f;
#X obj 516 252 r release;
#X obj 471 311 pack 0 5;
#X obj 402 12 swap;
#X obj 403 57 route 50 0;
#X obj 404 104 t b f;
#X obj 402 33 pack 0 0;
#X obj 173 360 phasor~;
#X obj 173 400 *~ 8;
#X obj 173 380 *~ 44100;
#X msg 290 402 0;
#X obj 173 423 threshold~ 352700 10;
#X obj 173 267 spigot;
#X obj 173 309 line~;
#X obj 173 242 + 0.125;
#X obj 173 221 f;
#X obj 173 192 r pitch;
#X msg 235 223 1;
#X msg 267 253 0;
#X obj 173 288 pack 0 5;
#X obj 343 431 tabread4~;
#X obj 271 374 t b b b;
#X msg 352 259 0;
#X obj 190 335 *~ 1;
#X obj 399 310 pack 0 1;
#X obj 235 -26 inlet;
#X obj 541 285 / 127;
#X obj 541 318 pack 0 1;
#X obj 235 0 swap;
#X obj 235 22 pack 0 0;
#X obj 236 46 route 0;
#X obj 276 67 swap;
#X obj 275 97 pack 0 0;
#X obj 276 116 unpack 0 0;
#X text 470 -29 Midi notes are handled here \,;
#X text 470 -15 for the computer's keyboard;
#X text 470 -2 on the right \, and for the midi;
#X text 469 12 keyboard on the left.;
#X text 496 227 This is for attack and release.;
#X text 424 394 The name of the table to read;
#X text 424 408 is set depending on the midi note;
#X text 424 421 (see [pd armoire]).;
#X text 11 216 Here we trigger;
#X text 11 231 the table lookup;
#X text 11 246 with a phasor object;
#X text 11 259 plugged into a;
#X text 11 274 [tabread4~].;
#X text 10 293 If the pitch isn't changed;
#X text 10 308 we read the table for 8;
#X text 11 324 seconds and we stop;
#X text 11 337 (it doesn't loop).;
#X text 407 522 Pierre Massat \, Guitar Extended \, 2014;
#X connect 0 0 10 0;
#X connect 2 0 1 0;
#X connect 3 0 2 1;
#X connect 4 0 9 0;
#X connect 5 0 31 0;
#X connect 6 0 27 0;
#X connect 7 0 22 0;
#X connect 7 1 6 0;
#X connect 7 1 24 0;
#X connect 7 1 25 0;
#X connect 8 0 9 1;
#X connect 9 0 3 0;
#X connect 10 0 13 0;
#X connect 10 1 13 1;
#X connect 11 0 12 0;
#X connect 11 1 4 0;
#X connect 12 0 5 0;
#X connect 12 1 7 0;
#X connect 13 0 11 0;
#X connect 14 0 16 0;
#X connect 15 0 18 0;
#X connect 15 0 27 0;
#X connect 16 0 15 0;
#X connect 17 0 18 1;
#X connect 18 0 28 0;
#X connect 19 0 26 0;
#X connect 20 0 30 0;
#X connect 21 0 19 0;
#X connect 22 0 21 0;
#X connect 23 0 22 0;
#X connect 24 0 19 1;
#X connect 24 0 30 1;
#X connect 25 0 14 1;
#X connect 26 0 20 0;
#X connect 27 0 2 0;
#X connect 28 1 17 0;
#X connect 28 2 29 0;
#X connect 29 0 19 1;
#X connect 29 0 30 1;
#X connect 29 0 14 1;
#X connect 30 0 14 0;
#X connect 31 0 3 0;
#X connect 32 0 35 0;
#X connect 33 0 34 0;
#X connect 34 0 3 0;
#X connect 35 0 36 0;
#X connect 35 1 36 1;
#X connect 36 0 37 0;
#X connect 37 0 4 0;
#X connect 37 1 38 0;
#X connect 38 0 39 0;
#X connect 38 1 39 1;
#X connect 39 0 40 0;
#X connect 40 0 7 0;
#X connect 40 1 33 0;
