#N canvas 1912 50 1920 997 10;
#X floatatom 745 427 5 0 0 0 - - -, f 5;
#X floatatom 845 425 5 0 0 0 - - -, f 5;
#X obj 745 333 ctlin 1 1;
#X obj 745 358 / 127;
#X obj 845 349 / 127;
#X obj 845 324 ctlin 2 1;
#X obj 744 383 * 8000;
#X obj 744 406 + 1000;
#X obj 745 454 s speed;
#X obj 845 384 * 15;
#X obj 845 456 s trigg;
#X floatatom 951 418 5 0 0 0 - - -, f 5;
#X obj 951 349 / 127;
#X obj 950 374 * 45;
#X obj 950 397 + 5;
#X obj 951 324 ctlin 3 1;
#X obj 951 445 s attack;
#X floatatom 1045 418 5 0 0 0 - - -, f 5;
#X obj 1045 349 / 127;
#X obj 1045 324 ctlin 4 1;
#X obj 1044 374 * 100;
#X obj 1044 397 + 50;
#X obj 1045 445 s length_delay;
#X floatatom 1197 424 5 0 0 0 - - -, f 5;
#X obj 1197 348 / 127;
#X obj 1197 323 ctlin 5 1;
#X obj 1197 383 * 80;
#X obj 1197 455 s rev1tail;
#X floatatom 1302 426 5 0 0 0 - - -, f 5;
#X obj 1302 350 / 127;
#X obj 1302 325 ctlin 6 1;
#X obj 1302 385 * 80;
#X obj 1302 457 s rev2tail;
#X floatatom 1402 423 5 0 0 0 - - -, f 5;
#X obj 1402 354 / 127;
#X obj 1402 329 ctlin 7 1;
#X obj 1401 402 + 0.001;
#X obj 1402 450 s volume;
#X connect 0 0 8 0;
#X connect 1 0 10 0;
#X connect 2 0 3 0;
#X connect 3 0 6 0;
#X connect 4 0 9 0;
#X connect 5 0 4 0;
#X connect 6 0 7 0;
#X connect 7 0 0 0;
#X connect 9 0 1 0;
#X connect 11 0 16 0;
#X connect 12 0 13 0;
#X connect 13 0 14 0;
#X connect 14 0 11 0;
#X connect 15 0 12 0;
#X connect 17 0 22 0;
#X connect 18 0 20 0;
#X connect 19 0 18 0;
#X connect 20 0 21 0;
#X connect 21 0 17 0;
#X connect 23 0 27 0;
#X connect 24 0 26 0;
#X connect 25 0 24 0;
#X connect 26 0 23 0;
#X connect 28 0 32 0;
#X connect 29 0 31 0;
#X connect 30 0 29 0;
#X connect 31 0 28 0;
#X connect 33 0 37 0;
#X connect 34 0 36 0;
#X connect 35 0 34 0;
#X connect 36 0 33 0;
#X coords 0 997 1 996 200 200 0;
