#N canvas 476 54 1090 847 10;
#X obj 33 201 adc~;
#X obj 51 968 dac~;
#X obj 52 931 *~;
#X obj 407 568 *~;
#X obj 594 201 /;
#X obj 406 451 *~;
#X obj 484 463 *~;
#X obj 554 467 *~;
#X obj 407 814 *~;
#X obj 493 816 *~;
#X obj 73 770 delwrite~ \$0-delay1 4000;
#X obj 593 280 phasor~;
#X msg 594 178 50 \$1;
#X obj 650 302 == 0;
#X obj 722 304 == 1;
#X obj 787 306 == 2;
#X obj 759 119 sel 3 4 5 6;
#X msg 689 274 0;
#X msg 722 272 1;
#X msg 780 273 0;
#X msg 813 272 2;
#X msg 650 273 1;
#X msg 750 272 0;
#X obj 405 293 lop~ 1;
#X obj 594 248 line~;
#X msg 594 224 \$1 10;
#X obj 570 437 line~;
#X msg 570 413 \$1 10;
#X obj 498 434 line~;
#X msg 498 410 \$1 10;
#X obj 422 419 line~;
#X msg 422 395 \$1 10;
#X obj 24 143 hsl 128 15 0 1 0 0 \$0-dry \$0-dry-gui dry/wet -2 -8
0 10 -262144 -1 -1 6350 1;
#X obj 24 106 hsl 128 15 0 1 0 0 \$0-bass \$0-bass-gui bass -2 -8 0
10 -262144 -1 -1 6350 1;
#X obj 24 76 hsl 128 15 0 1 0 0 \$0-repeat-rate \$0-repeat-rate-gui
repeat-rate -2 -8 0 10 -262144 -1 -1 6350 1;
#X obj 168 106 hsl 128 15 0 1 0 0 \$0-treble \$0-treble-gui treble
-2 -8 0 10 -262144 -1 -1 6350 1;
#X obj 168 76 hsl 128 15 0 1 0 0 \$0-intensity \$0-intensity-gui intensity
-2 -8 0 10 -262144 -1 -1 5080 1;
#X obj 234 15 tgl 15 0 \$0-midi-learn-s \$0-midi-learn-r midi-learn
17 7 0 10 -262144 -1 -1 0 1;
#X obj 167 143 hsl 128 15 0 1 0 0 \$0-output-volume \$0-output-volume-gui
output-volume -2 -8 0 10 -262144 -1 -1 6350 1;
#N canvas 45 261 1352 638 midilearn 0;
#X obj 32 272 array set \$0-midilearn;
#X obj 127 64 sel 1;
#X obj 19 55 ctlin;
#X obj 161 235 + 1;
#X obj 127 235 f;
#X msg 127 92 0;
#X obj 32 137 change;
#X obj 56 194 t b;
#X obj 32 99 spigot;
#X msg 272 336 0;
#X obj 65 24 r \$0-midi-learn-s;
#X obj 282 364 s \$0-midi-learn-r;
#X obj 620 42 ctlin;
#X obj 620 76 / 127;
#X obj 620 137 pack f f;
#X obj 620 108 swap;
#X obj 683 138 tabread \$0-midilearn;
#X obj 683 33 loadbang;
#X obj 697 85 sel 0;
#X obj 620 165 route;
#X msg 641 191 set \$1;
#X obj 697 62 r \$0-midi-learn-s;
#X obj 1003 44 ctlin;
#X obj 1003 78 / 127;
#X obj 1003 139 pack f f;
#X obj 1003 110 swap;
#X obj 1066 140 tabread \$0-midilearn;
#X obj 1066 35 loadbang;
#X obj 1080 87 sel 0;
#X obj 1003 167 route;
#X msg 1024 193 set \$1;
#X obj 1080 64 r \$0-midi-learn-s;
#X obj 415 307 ctlin;
#X obj 415 341 / 127;
#X obj 415 402 pack f f;
#X obj 415 373 swap;
#X obj 478 403 tabread \$0-midilearn;
#X obj 478 298 loadbang;
#X obj 492 350 sel 0;
#X obj 415 430 route;
#X msg 436 456 set \$1;
#X obj 492 327 r \$0-midi-learn-s;
#X obj 807 298 ctlin;
#X obj 807 332 / 127;
#X obj 807 393 pack f f;
#X obj 807 364 swap;
#X obj 870 394 tabread \$0-midilearn;
#X obj 870 289 loadbang;
#X obj 884 341 sel 0;
#X obj 807 421 route;
#X msg 828 447 set \$1;
#X obj 884 318 r \$0-midi-learn-s;
#X obj 1008 296 ctlin;
#X obj 1008 330 / 127;
#X obj 1008 391 pack f f;
#X obj 1008 362 swap;
#X obj 1071 392 tabread \$0-midilearn;
#X obj 1071 287 loadbang;
#X obj 1085 339 sel 0;
#X obj 1008 419 route;
#X msg 1029 445 set \$1;
#X obj 1085 316 r \$0-midi-learn-s;
#X msg 272 423 done;
#X obj 174 166 array define -k \$0-midilearn 10;
#A 0 21 22 70 72 73 26 28 83 0 0;
#X obj 127 299 sel 0 1 2 3 4 5 6 7 8;
#X msg 894 438 0.5;
#X obj 127 578 print midi learn;
#X msg 1109 187 0.4;
#X msg 1098 436 0.5;
#X msg 140 354 mode;
#X msg 154 379 repeat-rate;
#X msg 169 405 intensity;
#X msg 182 436 bass;
#X msg 195 463 treble;
#X msg 223 516 output-volume;
#X msg 717 187 0;
#X obj 641 218 s \$0-mode-gui;
#X obj 620 245 s \$0-mode;
#X obj 594 219 i;
#X obj 1024 220 s \$0-intensity-gui;
#X obj 1003 243 s \$0-intensity;
#X obj 436 483 s \$0-bass-gui;
#X obj 617 300 ctlin;
#X obj 617 334 / 127;
#X obj 617 395 pack f f;
#X obj 617 366 swap;
#X obj 680 396 tabread \$0-midilearn;
#X obj 680 291 loadbang;
#X obj 694 343 sel 0;
#X obj 617 423 route;
#X msg 638 449 set \$1;
#X obj 694 320 r \$0-midi-learn-s;
#X obj 415 506 s \$0-bass;
#X msg 514 444 0.5;
#X msg 716 437 0.5;
#X obj 638 476 s \$0-treble-gui;
#X obj 617 499 s \$0-treble;
#X obj 811 44 ctlin;
#X obj 811 78 / 127;
#X obj 811 139 pack f f;
#X obj 811 110 swap;
#X obj 874 140 tabread \$0-midilearn;
#X obj 874 35 loadbang;
#X obj 888 87 sel 0;
#X obj 811 167 route;
#X msg 832 193 set \$1;
#X obj 888 64 r \$0-midi-learn-s;
#X obj 832 220 s \$0-repeat-rate-gui;
#X obj 811 243 s \$0-repeat-rate;
#X obj 1029 472 s \$0-output-volume-gui;
#X obj 1008 499 s \$0-output-volume;
#X msg 917 187 0.5;
#X obj 594 194 * 6;
#X obj 409 39 ctlin;
#X obj 409 73 / 127;
#X obj 409 134 pack f f;
#X obj 409 105 swap;
#X obj 472 135 tabread \$0-midilearn;
#X msg 472 113 0;
#X obj 472 30 loadbang;
#X obj 486 82 sel 0;
#X obj 409 162 route;
#X msg 430 188 set \$1;
#X obj 486 59 r \$0-midi-learn-s;
#X obj 354 123 s pd;
#X msg 354 96 dsp 1;
#X msg 683 116 1;
#X msg 874 118 2;
#X msg 1066 118 3;
#X msg 478 381 4;
#X msg 680 374 5;
#X msg 870 372 6;
#X msg 1071 370 7;
#X obj 430 215 s \$0-reverb-gui;
#X obj 409 242 s \$0-reverb;
#X msg 127 329 reverb;
#X msg 506 184 0.5;
#X obj 828 474 s \$0-dry-gui;
#X obj 807 501 s \$0-dry-volume;
#X msg 209 489 dry/wet;
#X connect 1 0 5 0;
#X connect 2 1 8 0;
#X connect 3 0 4 1;
#X connect 4 0 3 0;
#X connect 4 0 0 1;
#X connect 4 0 64 0;
#X connect 5 0 6 0;
#X connect 5 0 4 0;
#X connect 6 0 0 0;
#X connect 6 0 7 0;
#X connect 7 0 4 0;
#X connect 8 0 6 0;
#X connect 9 0 11 0;
#X connect 9 0 62 0;
#X connect 10 0 1 0;
#X connect 10 0 8 1;
#X connect 12 0 13 0;
#X connect 12 1 15 1;
#X connect 13 0 15 0;
#X connect 14 0 19 0;
#X connect 15 0 14 0;
#X connect 15 1 14 1;
#X connect 16 0 19 1;
#X connect 17 0 126 0;
#X connect 17 0 75 0;
#X connect 18 0 126 0;
#X connect 19 0 20 0;
#X connect 19 0 112 0;
#X connect 20 0 76 0;
#X connect 21 0 18 0;
#X connect 22 0 23 0;
#X connect 22 1 25 1;
#X connect 23 0 25 0;
#X connect 24 0 29 0;
#X connect 25 0 24 0;
#X connect 25 1 24 1;
#X connect 26 0 29 1;
#X connect 27 0 128 0;
#X connect 27 0 67 0;
#X connect 28 0 128 0;
#X connect 29 0 30 0;
#X connect 29 0 80 0;
#X connect 30 0 79 0;
#X connect 31 0 28 0;
#X connect 32 0 33 0;
#X connect 32 1 35 1;
#X connect 33 0 35 0;
#X connect 34 0 39 0;
#X connect 35 0 34 0;
#X connect 35 1 34 1;
#X connect 36 0 39 1;
#X connect 37 0 129 0;
#X connect 37 0 93 0;
#X connect 38 0 129 0;
#X connect 39 0 40 0;
#X connect 39 0 92 0;
#X connect 40 0 81 0;
#X connect 41 0 38 0;
#X connect 42 0 43 0;
#X connect 42 1 45 1;
#X connect 43 0 45 0;
#X connect 44 0 49 0;
#X connect 45 0 44 0;
#X connect 45 1 44 1;
#X connect 46 0 49 1;
#X connect 47 0 131 0;
#X connect 47 0 65 0;
#X connect 48 0 131 0;
#X connect 49 0 50 0;
#X connect 49 0 138 0;
#X connect 50 0 137 0;
#X connect 51 0 48 0;
#X connect 52 0 53 0;
#X connect 52 1 55 1;
#X connect 53 0 55 0;
#X connect 54 0 59 0;
#X connect 55 0 54 0;
#X connect 55 1 54 1;
#X connect 56 0 59 1;
#X connect 57 0 132 0;
#X connect 57 0 68 0;
#X connect 58 0 132 0;
#X connect 59 0 60 0;
#X connect 59 0 110 0;
#X connect 60 0 109 0;
#X connect 61 0 58 0;
#X connect 62 0 66 0;
#X connect 64 0 135 0;
#X connect 64 1 69 0;
#X connect 64 2 70 0;
#X connect 64 3 71 0;
#X connect 64 4 72 0;
#X connect 64 5 73 0;
#X connect 64 6 139 0;
#X connect 64 7 74 0;
#X connect 64 8 9 0;
#X connect 65 0 137 0;
#X connect 67 0 79 0;
#X connect 68 0 109 0;
#X connect 69 0 66 0;
#X connect 70 0 66 0;
#X connect 71 0 66 0;
#X connect 72 0 66 0;
#X connect 73 0 66 0;
#X connect 74 0 66 0;
#X connect 75 0 76 0;
#X connect 78 0 77 0;
#X connect 78 0 20 0;
#X connect 82 0 83 0;
#X connect 82 1 85 1;
#X connect 83 0 85 0;
#X connect 84 0 89 0;
#X connect 85 0 84 0;
#X connect 85 1 84 1;
#X connect 86 0 89 1;
#X connect 87 0 130 0;
#X connect 87 0 94 0;
#X connect 88 0 130 0;
#X connect 89 0 90 0;
#X connect 89 0 96 0;
#X connect 90 0 95 0;
#X connect 91 0 88 0;
#X connect 93 0 81 0;
#X connect 94 0 95 0;
#X connect 97 0 98 0;
#X connect 97 1 100 1;
#X connect 98 0 100 0;
#X connect 99 0 104 0;
#X connect 100 0 99 0;
#X connect 100 1 99 1;
#X connect 101 0 104 1;
#X connect 102 0 127 0;
#X connect 102 0 111 0;
#X connect 103 0 127 0;
#X connect 104 0 105 0;
#X connect 104 0 108 0;
#X connect 105 0 107 0;
#X connect 106 0 103 0;
#X connect 111 0 107 0;
#X connect 112 0 78 0;
#X connect 113 0 114 0;
#X connect 113 1 116 1;
#X connect 114 0 116 0;
#X connect 115 0 121 0;
#X connect 116 0 115 0;
#X connect 116 1 115 1;
#X connect 117 0 121 1;
#X connect 118 0 117 0;
#X connect 119 0 118 0;
#X connect 119 0 136 0;
#X connect 119 0 125 0;
#X connect 120 0 118 0;
#X connect 121 0 122 0;
#X connect 121 0 134 0;
#X connect 122 0 133 0;
#X connect 123 0 120 0;
#X connect 125 0 124 0;
#X connect 126 0 16 0;
#X connect 127 0 101 0;
#X connect 128 0 26 0;
#X connect 129 0 36 0;
#X connect 130 0 86 0;
#X connect 131 0 46 0;
#X connect 132 0 56 0;
#X connect 135 0 66 0;
#X connect 136 0 133 0;
#X connect 139 0 66 0;
#X restore 166 186 pd midilearn;
#X obj 22 30 hradio 15 1 0 7 \$0-mode \$0-mode-gui mode 0 -8 0 10 -262144
-1 -1 0;
#X obj 759 90 r \$0-mode;
#X obj 661 412 r \$0-intensity;
#X obj 423 697 r \$0-bass;
#X obj 507 701 r \$0-treble;
#X obj 564 811 line~;
#X msg 564 787 \$1 10;
#X obj 114 860 line~;
#X msg 114 836 \$1 10;
#X obj 114 811 r \$0-output-volume;
#X obj 405 27 r \$0-repeat-rate;
#X obj 405 125 * 950;
#X obj 405 150 + 50;
#X obj 405 51 * -1;
#X obj 405 78 + 1;
#X obj 423 775 line~;
#X msg 423 751 \$1 10;
#X obj 507 780 line~;
#X msg 507 756 \$1 10;
#N canvas 0 50 450 300 tap1 0;
#X obj 78 188 *~;
#X obj 54 209 +~;
#X obj 56 229 vd~ \$0-delay1;
#X obj 94 102 cos~;
#X obj 95 129 +~ 1;
#X obj 94 78 wrap~;
#X obj 94 52 *~ 3;
#X obj 94 158 *~;
#X obj 146 121 *~ 1e-005;
#X obj 59 18 inlet~;
#X obj 129 17 inlet~;
#X obj 60 268 outlet~;
#X obj 177 267 outlet~;
#X connect 0 0 1 1;
#X connect 1 0 2 0;
#X connect 1 0 12 0;
#X connect 2 0 11 0;
#X connect 3 0 4 0;
#X connect 4 0 7 0;
#X connect 5 0 3 0;
#X connect 6 0 5 0;
#X connect 7 0 0 1;
#X connect 8 0 7 1;
#X connect 9 0 1 0;
#X connect 9 0 0 0;
#X connect 9 0 8 0;
#X connect 10 0 6 0;
#X restore 406 351 pd tap1;
#N canvas 0 50 450 300 tap2 0;
#X obj 131 149 +~ 1;
#X obj 87 168 *~;
#X obj 59 214 +~;
#X obj 59 250 vd~ \$0-delay1;
#X obj 130 113 cos~;
#X obj 130 60 wrap~;
#X obj 129 87 +~ 0.33;
#X obj 130 34 *~ 2;
#X obj 60 101 *~ 2;
#X obj 130 176 *~;
#X obj 61 24 inlet~;
#X obj 183 20 inlet~;
#X obj 63 275 outlet~;
#X obj 171 153 *~ 5e-006;
#X connect 0 0 9 0;
#X connect 1 0 2 1;
#X connect 2 0 3 0;
#X connect 3 0 12 0;
#X connect 4 0 0 0;
#X connect 5 0 6 0;
#X connect 6 0 4 0;
#X connect 7 0 5 0;
#X connect 8 0 2 0;
#X connect 8 0 1 0;
#X connect 8 0 13 0;
#X connect 9 0 1 1;
#X connect 10 0 8 0;
#X connect 11 0 7 0;
#X connect 13 0 9 1;
#X restore 483 347 pd tap2;
#N canvas 434 66 450 300 tap3 0;
#X obj 123 122 +~ 1;
#X obj 78 181 *~;
#X obj 54 202 +~;
#X obj 54 229 vd~ \$0-delay1;
#X obj 124 92 cos~;
#X obj 124 64 +~ 0.66;
#X obj 55 66 *~ 3;
#X obj 121 149 *~;
#X obj 54 15 inlet~;
#X obj 125 17 inlet~;
#X obj 55 271 outlet~;
#X obj 169 113 *~ 5e-006;
#X connect 0 0 7 0;
#X connect 1 0 2 1;
#X connect 2 0 3 0;
#X connect 3 0 10 0;
#X connect 4 0 0 0;
#X connect 5 0 4 0;
#X connect 6 0 1 0;
#X connect 6 0 2 0;
#X connect 6 0 11 0;
#X connect 7 0 1 1;
#X connect 8 0 6 0;
#X connect 9 0 5 0;
#X connect 11 0 7 1;
#X restore 555 340 pd tap3;
#X obj 405 102 pow 2;
#X obj 686 523 line~;
#X msg 686 499 \$1 10;
#N canvas 0 50 450 300 preamp 0;
#X obj 76 77 lop~ 250;
#X obj 161 99 *~ 1;
#X obj 160 76 hip~ 500;
#X obj 160 48 hip~ 500;
#X obj 160 134 lop~ 1500;
#X obj 159 155 lop~ 1500;
#X obj 119 214 +~;
#X obj 75 110 *~ -1;
#X obj 120 244 +~;
#X obj 247 98 *~ 1;
#X obj 246 47 hip~ 1500;
#X obj 246 75 hip~ 1500;
#X obj 246 133 lop~ 7500;
#X obj 245 154 lop~ 7500;
#X obj 70 13 inlet~;
#X obj 126 285 outlet~;
#X obj 161 190 *~ 2;
#X obj 247 189 *~ -2;
#X connect 0 0 7 0;
#X connect 1 0 4 0;
#X connect 2 0 1 0;
#X connect 2 0 10 0;
#X connect 3 0 2 0;
#X connect 4 0 5 0;
#X connect 5 0 16 0;
#X connect 6 0 8 0;
#X connect 7 0 6 1;
#X connect 7 0 8 1;
#X connect 8 0 15 0;
#X connect 9 0 12 0;
#X connect 10 0 11 0;
#X connect 11 0 9 0;
#X connect 12 0 13 0;
#X connect 13 0 17 0;
#X connect 14 0 0 0;
#X connect 14 0 3 0;
#X connect 16 0 6 0;
#X connect 17 0 15 0;
#X restore 54 291 pd preamp;
#X obj 53 894 +~;
#X obj 190 342 -~;
#X obj 73 655 hip~ 250;
#X obj 493 853 *~;
#X obj 255 387 -~;
#X obj 73 704 lop~ 5000;
#X obj 423 725 * 2;
#X obj 507 729 * 2;
#X obj 77 184 inlet~;
#X obj 131 963 outlet~;
#X obj 167 44 hsl 128 15 0 1 0 0 \$0-reverb \$0-reverb-gui reverb -2
-8 0 10 -262144 -1 -1 6350 1;
#X obj 137 741 delwrite~ \$0-reverb 300;
#X obj 318 456 line~;
#X msg 318 432 \$1 10;
#X obj 128 510 *~;
#X obj 318 383 r \$0-reverb;
#X obj 170 569 delwrite~ \$0-reverb2 300;
#X obj 208 547 delwrite~ \$0-reverb3 300;
#X obj 191 509 *~;
#X obj 257 508 *~;
#X obj 318 408 * 0.85;
#X obj 256 446 hip~ 125;
#X obj 128 446 hip~ 500;
#X obj 192 446 hip~ 250;
#X obj 127 418 lop~ 2000;
#X obj 406 490 lop~ 2000;
#X obj 406 517 hip~ 25;
#X obj 753 344 r \$0-mode;
#X obj 685 477 *;
#X msg 753 412 0.85;
#X msg 791 413 0.45;
#X obj 753 371 sel 0 1 2 3 4 5 6;
#X obj 685 449 t b f;
#X msg 836 414 0.33;
#X obj 129 606 lop~ 2000;
#X obj 408 672 lop~ 800;
#X obj 494 672 hip~ 800;
#X obj 126 283 delread~ \$0-reverb 32;
#X obj 254 332 delread~ \$0-reverb3 177;
#X obj 190 308 delread~ \$0-reverb2 111;
#X obj 252 775 * -1;
#X obj 252 800 + 1;
#X obj 252 847 line~;
#X msg 252 823 \$1 10;
#X obj 53 873 *~;
#X obj 138 681 *~ 0.5;
#X obj 481 490 lop~ 1500;
#X obj 554 491 lop~ 800;
#X obj 191 418 lop~ 1500;
#X obj 256 420 lop~ 800;
#X obj 564 741 r \$0-dry;
#X connect 0 0 65 0;
#X connect 2 0 1 0;
#X connect 2 0 1 1;
#X connect 3 0 71 0;
#X connect 3 0 77 0;
#X connect 3 0 101 0;
#X connect 3 0 102 0;
#X connect 4 0 25 0;
#X connect 5 0 91 0;
#X connect 6 0 112 0;
#X connect 7 0 113 0;
#X connect 8 0 69 0;
#X connect 9 0 69 0;
#X connect 11 0 59 1;
#X connect 11 0 60 1;
#X connect 11 0 61 1;
#X connect 12 0 4 0;
#X connect 13 0 31 0;
#X connect 14 0 29 0;
#X connect 15 0 27 0;
#X connect 16 0 17 0;
#X connect 16 0 18 0;
#X connect 16 0 19 0;
#X connect 16 1 18 0;
#X connect 16 1 20 0;
#X connect 16 1 21 0;
#X connect 16 2 17 0;
#X connect 16 2 20 0;
#X connect 16 2 22 0;
#X connect 16 3 17 0;
#X connect 16 3 18 0;
#X connect 16 3 20 0;
#X connect 16 4 13 0;
#X connect 16 4 14 0;
#X connect 16 4 15 0;
#X connect 17 0 13 0;
#X connect 18 0 14 0;
#X connect 19 0 15 0;
#X connect 20 0 15 0;
#X connect 21 0 13 0;
#X connect 22 0 14 0;
#X connect 23 0 59 0;
#X connect 23 0 60 0;
#X connect 23 0 61 0;
#X connect 24 0 11 0;
#X connect 25 0 24 0;
#X connect 26 0 7 1;
#X connect 27 0 26 0;
#X connect 28 0 6 1;
#X connect 29 0 28 0;
#X connect 30 0 5 1;
#X connect 31 0 30 0;
#X connect 41 0 16 0;
#X connect 42 0 94 0;
#X connect 43 0 72 0;
#X connect 44 0 73 0;
#X connect 45 0 69 1;
#X connect 46 0 45 0;
#X connect 47 0 2 1;
#X connect 48 0 47 0;
#X connect 49 0 48 0;
#X connect 50 0 53 0;
#X connect 51 0 52 0;
#X connect 52 0 23 0;
#X connect 52 0 12 0;
#X connect 53 0 54 0;
#X connect 54 0 62 0;
#X connect 55 0 8 1;
#X connect 56 0 55 0;
#X connect 57 0 9 1;
#X connect 58 0 57 0;
#X connect 59 0 5 0;
#X connect 60 0 6 0;
#X connect 61 0 7 0;
#X connect 62 0 51 0;
#X connect 63 0 3 1;
#X connect 64 0 63 0;
#X connect 65 0 68 0;
#X connect 65 0 110 0;
#X connect 66 0 2 0;
#X connect 66 0 75 0;
#X connect 67 0 70 1;
#X connect 67 0 114 0;
#X connect 68 0 71 0;
#X connect 68 0 77 0;
#X connect 69 0 66 1;
#X connect 70 0 115 0;
#X connect 71 0 10 0;
#X connect 72 0 56 0;
#X connect 73 0 58 0;
#X connect 74 0 65 0;
#X connect 78 0 80 1;
#X connect 78 0 85 1;
#X connect 78 0 84 1;
#X connect 79 0 78 0;
#X connect 80 0 82 0;
#X connect 80 0 100 0;
#X connect 81 0 86 0;
#X connect 84 0 83 0;
#X connect 84 0 100 0;
#X connect 84 0 111 0;
#X connect 85 0 100 0;
#X connect 85 0 111 0;
#X connect 86 0 79 0;
#X connect 87 0 85 0;
#X connect 88 0 80 0;
#X connect 89 0 84 0;
#X connect 90 0 88 0;
#X connect 91 0 92 0;
#X connect 92 0 3 0;
#X connect 93 0 97 0;
#X connect 94 0 64 0;
#X connect 95 0 98 0;
#X connect 96 0 98 0;
#X connect 97 0 95 0;
#X connect 97 1 95 0;
#X connect 97 2 95 0;
#X connect 97 3 96 0;
#X connect 97 4 96 0;
#X connect 97 5 96 0;
#X connect 97 6 99 0;
#X connect 98 0 94 0;
#X connect 98 1 94 1;
#X connect 99 0 98 0;
#X connect 100 0 101 0;
#X connect 100 0 102 0;
#X connect 101 0 8 0;
#X connect 102 0 9 0;
#X connect 103 0 90 0;
#X connect 103 0 67 1;
#X connect 104 0 70 0;
#X connect 105 0 67 0;
#X connect 106 0 107 0;
#X connect 107 0 109 0;
#X connect 108 0 110 1;
#X connect 109 0 108 0;
#X connect 110 0 66 0;
#X connect 111 0 77 0;
#X connect 112 0 92 0;
#X connect 113 0 92 0;
#X connect 114 0 89 0;
#X connect 115 0 87 0;
#X connect 116 0 106 0;
#X connect 116 0 46 0;
#X coords 0 -1 1 1 300 160 1 10 10;
