#N canvas 2396 136 950 699 10;
#X obj 108 77 pack f f;
#X obj 108 201 voice_BXVI 1;
#X obj 515 53 hsl 128 15 0 1 0 0 \$0-piety \$0-piety piety -2 -8 0
10 -262144 -1 -1 9400 1;
#X obj 515 88 hsl 128 15 0 1 0 0 \$0-holyness \$0-holyness holyness
-2 -8 0 10 -262144 -1 -1 0 1;
#X obj 369 149 r \$0-settings;
#X obj 108 142 pack f f f;
#X obj 465 545 s \$0-settings;
#X obj 465 461 mtof;
#X msg 465 486 freq \$1;
#X msg 559 464 res \$1;
#X obj 106 473 lop~ 5000;
#X obj 107 503 hip~ 10;
#X obj 107 451 lop~ 5000;
#X obj 515 120 hsl 128 15 0 1 0 0 \$0-modulation \$0-modulation modulation
-2 -8 0 10 -262144 -1 -1 6350 1;
#X msg 674 437 mod \$1;
#X obj 515 185 hsl 128 15 0 1 0 0 \$0-volume \$0-volume volume -2 -8
0 10 -262144 -1 -1 7100 1;
#X msg 795 473 rate \$1;
#X obj 795 418 * 9;
#X obj 795 445 + 1;
#X obj 674 412 * 0.01;
#X obj 559 434 + 1;
#X obj 559 409 * 2;
#X obj 465 406 * 30;
#X obj 465 433 + 50;
#X obj 674 378 r \$0-modulation;
#X obj 795 379 r \$0-rate;
#X obj 465 376 r \$0-piety;
#X obj 559 376 r \$0-holyness;
#X obj 107 534 *~ 0.2;
#X obj 107 623 outlet~;
#N canvas 74 571 1126 300 init_and_midi 0;
#X obj 10 51 loadbang;
#X obj 102 51 loadbang;
#X obj 215 54 loadbang;
#X obj 238 165 / 127;
#X obj 340 48 loadbang;
#X obj 361 159 / 127;
#X obj 24 167 / 127;
#X obj 122 167 / 127;
#X msg 340 74 0.5;
#X msg 215 80 0.5;
#X obj 10 235 s \$0-piety;
#X obj 102 234 s \$0-holyness;
#X obj 215 230 s \$0-modulation;
#X obj 342 231 s \$0-rate;
#X msg 10 78 0.5;
#X msg 102 77 0.5;
#X msg 483 118 dsp 1;
#X obj 553 159 s pd;
#X obj 483 47 loadbang;
#X msg 553 86 dsp 0;
#X obj 483 87 del 100;
#X obj 361 134 ctlin 4 1;
#X obj 238 140 ctlin 3 1;
#X obj 122 142 ctlin 2 1;
#X obj 24 142 ctlin 1 1;
#X obj 634 42 loadbang;
#X msg 633 62 0.5;
#X obj 632 143 s \$0-volume;
#X obj 705 90 / 127;
#X obj 705 65 ctlin 5 1;
#X floatatom 745 120 5 0 0 0 - - -, f 5;
#X connect 0 0 14 0;
#X connect 1 0 15 0;
#X connect 2 0 9 0;
#X connect 3 0 12 0;
#X connect 4 0 8 0;
#X connect 5 0 13 0;
#X connect 6 0 10 0;
#X connect 7 0 11 0;
#X connect 8 0 13 0;
#X connect 9 0 12 0;
#X connect 14 0 10 0;
#X connect 15 0 11 0;
#X connect 16 0 17 0;
#X connect 18 0 20 0;
#X connect 18 0 19 0;
#X connect 19 0 17 0;
#X connect 20 0 16 0;
#X connect 21 0 5 0;
#X connect 22 0 3 0;
#X connect 23 0 7 0;
#X connect 24 0 6 0;
#X connect 25 0 26 0;
#X connect 26 0 27 0;
#X connect 28 0 27 0;
#X connect 28 0 30 0;
#X connect 29 0 28 0;
#X restore 504 258 pd init_and_midi;
#X obj 134 233 voice_BXVI 2;
#X obj 158 259 voice_BXVI 3;
#X obj 182 290 voice_BXVI 4;
#X obj 217 314 voice_BXVI 5;
#X obj 240 340 voice_BXVI 6;
#X obj 265 370 voice_BXVI 7;
#X obj 288 397 voice_BXVI 8;
#X obj 108 111 poly 8 1;
#X obj 195 22 inlet;
#X obj 52 25 inlet;
#X obj 219 556 *~;
#X obj 262 492 r \$0-volume;
#X obj 515 153 hsl 128 15 0 1 0 0 \$0-rate \$0-rate rate -2 -8 0 10
-262144 -1 -1 6350 1;
#X connect 0 0 38 0;
#X connect 1 0 12 0;
#X connect 4 0 1 1;
#X connect 4 0 31 1;
#X connect 4 0 32 1;
#X connect 4 0 33 1;
#X connect 4 0 34 1;
#X connect 4 0 35 1;
#X connect 4 0 36 1;
#X connect 4 0 37 1;
#X connect 5 0 1 0;
#X connect 5 0 31 0;
#X connect 5 0 32 0;
#X connect 5 0 33 0;
#X connect 5 0 34 0;
#X connect 5 0 35 0;
#X connect 5 0 36 0;
#X connect 5 0 37 0;
#X connect 7 0 8 0;
#X connect 8 0 6 0;
#X connect 9 0 6 0;
#X connect 10 0 11 0;
#X connect 11 0 28 0;
#X connect 12 0 10 0;
#X connect 14 0 6 0;
#X connect 16 0 6 0;
#X connect 17 0 18 0;
#X connect 18 0 16 0;
#X connect 19 0 14 0;
#X connect 20 0 9 0;
#X connect 21 0 20 0;
#X connect 22 0 23 0;
#X connect 23 0 7 0;
#X connect 24 0 19 0;
#X connect 25 0 17 0;
#X connect 26 0 22 0;
#X connect 27 0 21 0;
#X connect 28 0 41 0;
#X connect 31 0 12 0;
#X connect 32 0 12 0;
#X connect 33 0 12 0;
#X connect 34 0 12 0;
#X connect 35 0 12 0;
#X connect 36 0 12 0;
#X connect 37 0 12 0;
#X connect 38 0 5 0;
#X connect 38 1 5 1;
#X connect 38 2 5 2;
#X connect 39 0 0 1;
#X connect 40 0 0 0;
#X connect 41 0 29 0;
#X connect 42 0 41 1;
#X coords 0 -1 1 1 160 200 1 500 10;
