#N canvas 65 109 572 726 10;
#N canvas 750 102 450 300 triangle 0;
#X obj 73 91 phasor~;
#X obj 73 126 -~ 0.5;
#X obj 76 154 abs~;
#X obj 73 184 *~ 4;
#X obj 75 218 -~ -1;
#X obj 75 41 inlet~;
#X obj 81 259 outlet~;
#X connect 0 0 1 0;
#X connect 1 0 2 0;
#X connect 2 0 3 0;
#X connect 3 0 4 0;
#X connect 4 0 6 0;
#X connect 5 0 0 0;
#X restore 12 380 pd triangle;
#X obj 105 70 mtof;
#X obj 305 689 outlet~;
#X obj 234 528 vcf~;
#X obj 321 316 * 0.0075;
#X obj 321 371 *;
#X obj 321 345 t b f;
#X obj 12 430 *~ 2;
#X obj 104 2 inlet;
#X obj 105 46 unpack f f;
#X obj 104 25 route \$1;
#X obj 305 628 *~;
#X obj 323 528 != 0;
#X obj 323 583 line~;
#X obj 242 8 inlet;
#X obj 260 568 vcf~;
#X obj 361 123 osc~;
#X obj 12 339 *~ 0.25;
#X obj 105 336 *~ 0.5;
#X obj 235 337 *~ 4;
#X obj 105 226 *~;
#X obj 361 182 +~ 1;
#X obj 362 157 *~;
#X obj 242 42 route freq res mod rate;
#X obj 306 659 *~;
#X obj 412 466 -~;
#X obj 413 385 sig~ 1;
#X obj 321 463 line~;
#X obj 360 95 line~;
#X msg 360 69 \$1 10;
#X obj 429 434 *~;
#X obj 446 112 line~;
#X msg 446 86 \$1 10;
#X obj 446 409 *~ 25;
#X obj 321 399 min 5000;
#N canvas 704 278 623 602 transition-table 0;
#X obj 156 142 samplerate~;
#X obj 156 168 * 0.5;
#X obj 156 59 r pd;
#X obj 156 86 route dsp;
#X obj 156 112 select 1;
#X obj 37 -28 r pd;
#X obj 37 1 route audio-dialog;
#X obj 37 30 unpack f f f f f f f f f f f f f f f f f;
#X obj 331 417 cos~;
#X obj 283 412 cos~;
#X msg 227 481 bang;
#X msg 371 324 -0.0005;
#X obj 331 391 *~ 3;
#X obj 331 442 *~ 0.33333;
#X obj 283 440 *~ -1;
#X msg 226 295 bang;
#X obj 282 351 phasor~ 22.05;
#X obj 283 473 *~ 0.75;
#X obj 283 500 tabwrite~ \$0-transition;
#X obj 32 241 table \$0-transition 1002;
#X obj 282 330 / 1000;
#X obj 280 250 delay 100;
#X msg 280 270 0;
#X msg 352 249 1;
#X obj 352 297 switch~;
#X obj 226 209 t b f b b;
#X obj 128 208 s \$0-nyquist;
#X connect 0 0 1 0;
#X connect 1 0 25 0;
#X connect 1 0 26 0;
#X connect 2 0 3 0;
#X connect 3 0 4 0;
#X connect 4 0 0 0;
#X connect 5 0 6 0;
#X connect 6 0 7 0;
#X connect 7 16 1 0;
#X connect 8 0 13 0;
#X connect 9 0 14 0;
#X connect 10 0 18 0;
#X connect 11 0 16 1;
#X connect 12 0 8 0;
#X connect 13 0 17 0;
#X connect 14 0 17 0;
#X connect 15 0 11 0;
#X connect 15 0 10 0;
#X connect 16 0 9 0;
#X connect 16 0 12 0;
#X connect 17 0 18 0;
#X connect 20 0 16 0;
#X connect 21 0 22 0;
#X connect 22 0 24 0;
#X connect 23 0 24 0;
#X connect 25 0 15 0;
#X connect 25 1 20 0;
#X connect 25 2 21 0;
#X connect 25 3 23 0;
#X restore 405 633 pd transition-table;
#X obj 235 378 phasor~;
#X obj 104 375 phasor~;
#N canvas 284 592 450 300 pulse 0;
#X obj 33 15 inlet~;
#X obj 109 13 inlet~;
#N canvas 525 283 512 505 sigment 0;
#X obj 71 154 wrap~;
#X obj 71 216 -~ 0.5;
#X obj 71 132 -~;
#X obj 70 52 inlet~;
#X text 70 34 phasor~;
#X obj 70 277 outlet~;
#X text 261 29 phase;
#X obj 259 50 inlet~;
#X obj 159 51 inlet~;
#X obj 70 253 *~ -1;
#X text 161 32 freq~;
#N canvas 996 209 544 429 splicetrans 0;
#X obj 53 384 -~;
#X obj 177 225 /~;
#X obj 194 202 clip~ 1 999999;
#X obj 69 255 *~;
#X obj 69 279 clip~ -0.5 0.5;
#X obj 69 303 *~ 1000;
#X obj 69 327 +~ 501;
#X obj 52 207 -~ 0.5;
#X obj 177 174 * 0.4;
#X obj 52 128 inlet~;
#X obj 52 429 outlet~;
#X obj 272 131 inlet~;
#X obj 53 406 +~ 0.5;
#X text 271 113 frequency of phasor;
#X obj 272 170 samphold~;
#X text 53 453 out: transition spliced \, bandlimited phasor from 0-1
;
#X text 50 105 in: phasor 0-1;
#X obj 177 133 r \$0-nyquist;
#X obj 69 351 tabread~ \$0-transition;
#X text 244 354 for best quality use tabread4~ here \, but tabread~
also works okay and is about twice as fast.;
#N canvas 228 198 627 317 LICENSE-BSD 0;
#X text 121 56 This software is copyrighted by Miller Puckette \, Reality
Jockey Ltd. and others. The terms (the "Standard Improved BSD License")
apply to all files associated with the software unless explicitly disclaimed
in individual files.;
#X text 123 148 See the file LICENSE.txt for the full license text.
;
#X restore 389 18 pd LICENSE-BSD;
#X connect 0 0 12 0;
#X connect 1 0 3 1;
#X connect 2 0 1 1;
#X connect 3 0 4 0;
#X connect 4 0 5 0;
#X connect 5 0 6 0;
#X connect 6 0 18 0;
#X connect 7 0 3 0;
#X connect 7 0 0 0;
#X connect 8 0 1 0;
#X connect 9 0 7 0;
#X connect 9 0 14 1;
#X connect 11 0 14 0;
#X connect 12 0 10 0;
#X connect 14 0 2 0;
#X connect 17 0 8 0;
#X connect 18 0 0 1;
#X restore 71 185 pd splicetrans;
#X connect 0 0 11 0;
#X connect 1 0 9 0;
#X connect 2 0 0 0;
#X connect 3 0 2 0;
#X connect 7 0 2 1;
#X connect 8 0 11 1;
#X connect 9 0 5 0;
#X connect 11 0 1 0;
#X restore 39 123 pd sigment -1;
#N canvas 783 248 508 458 sigment 0;
#X obj 71 154 wrap~;
#X obj 71 216 -~ 0.5;
#X obj 70 52 inlet~;
#X text 70 34 phasor~;
#X obj 70 277 outlet~;
#X obj 159 51 inlet~;
#X text 161 32 freq~;
#N canvas 996 209 450 300 splicetrans 0;
#X obj 53 384 -~;
#X obj 177 225 /~;
#X obj 194 202 clip~ 1 999999;
#X obj 69 255 *~;
#X obj 69 279 clip~ -0.5 0.5;
#X obj 69 303 *~ 1000;
#X obj 69 327 +~ 501;
#X obj 52 207 -~ 0.5;
#X obj 177 174 * 0.4;
#X obj 52 128 inlet~;
#X obj 52 429 outlet~;
#X obj 272 131 inlet~;
#X obj 53 406 +~ 0.5;
#X text 271 113 frequency of phasor;
#X obj 272 170 samphold~;
#X text 53 453 out: transition spliced \, bandlimited phasor from 0-1
;
#X text 50 105 in: phasor 0-1;
#X obj 177 133 r \$0-nyquist;
#X obj 69 351 tabread~ \$0-transition;
#X text 244 354 for best quality use tabread4~ here \, but tabread~
also works okay and is about twice as fast.;
#N canvas 228 198 627 317 LICENSE-BSD 0;
#X text 121 56 This software is copyrighted by Miller Puckette \, Reality
Jockey Ltd. and others. The terms (the "Standard Improved BSD License")
apply to all files associated with the software unless explicitly disclaimed
in individual files.;
#X text 123 148 See the file LICENSE.txt for the full license text.
;
#X restore 389 18 pd LICENSE-BSD;
#X connect 0 0 12 0;
#X connect 1 0 3 1;
#X connect 2 0 1 1;
#X connect 3 0 4 0;
#X connect 4 0 5 0;
#X connect 5 0 6 0;
#X connect 6 0 18 0;
#X connect 7 0 3 0;
#X connect 7 0 0 0;
#X connect 8 0 1 0;
#X connect 9 0 7 0;
#X connect 9 0 14 1;
#X connect 11 0 14 0;
#X connect 12 0 10 0;
#X connect 14 0 2 0;
#X connect 17 0 8 0;
#X connect 18 0 0 1;
#X restore 71 183 pd splicetrans;
#X obj 71 132 -~ 0.17;
#X connect 0 0 7 0;
#X connect 1 0 4 0;
#X connect 2 0 8 0;
#X connect 5 0 7 1;
#X connect 7 0 1 0;
#X connect 8 0 0 0;
#X restore 142 123 pd sigment 1;
#X obj 34 250 outlet~;
#X obj 33 185 *~ 2;
#X obj 34 214 -~ 0.66;
#X connect 0 0 2 0;
#X connect 0 0 3 0;
#X connect 1 0 2 1;
#X connect 1 0 3 1;
#X connect 2 0 5 0;
#X connect 3 0 5 0;
#X connect 5 0 6 0;
#X connect 6 0 4 0;
#X restore 168 407 pd pulse;
#X obj 168 376 phasor~;
#N canvas 284 592 450 300 pulse 0;
#X obj 33 15 inlet~;
#X obj 109 13 inlet~;
#N canvas 525 283 512 505 sigment 0;
#X obj 71 154 wrap~;
#X obj 71 216 -~ 0.5;
#X obj 71 132 -~;
#X obj 70 52 inlet~;
#X text 70 34 phasor~;
#X obj 70 277 outlet~;
#X text 261 29 phase;
#X obj 259 50 inlet~;
#X obj 159 51 inlet~;
#X obj 70 253 *~ -1;
#X text 161 32 freq~;
#N canvas 996 209 544 429 splicetrans 0;
#X obj 53 384 -~;
#X obj 177 225 /~;
#X obj 194 202 clip~ 1 999999;
#X obj 69 255 *~;
#X obj 69 279 clip~ -0.5 0.5;
#X obj 69 303 *~ 1000;
#X obj 69 327 +~ 501;
#X obj 52 207 -~ 0.5;
#X obj 177 174 * 0.4;
#X obj 52 128 inlet~;
#X obj 52 429 outlet~;
#X obj 272 131 inlet~;
#X obj 53 406 +~ 0.5;
#X text 271 113 frequency of phasor;
#X obj 272 170 samphold~;
#X text 53 453 out: transition spliced \, bandlimited phasor from 0-1
;
#X text 50 105 in: phasor 0-1;
#X obj 177 133 r \$0-nyquist;
#X obj 69 351 tabread~ \$0-transition;
#X text 244 354 for best quality use tabread4~ here \, but tabread~
also works okay and is about twice as fast.;
#N canvas 228 198 627 317 LICENSE-BSD 0;
#X text 121 56 This software is copyrighted by Miller Puckette \, Reality
Jockey Ltd. and others. The terms (the "Standard Improved BSD License")
apply to all files associated with the software unless explicitly disclaimed
in individual files.;
#X text 123 148 See the file LICENSE.txt for the full license text.
;
#X restore 389 18 pd LICENSE-BSD;
#X connect 0 0 12 0;
#X connect 1 0 3 1;
#X connect 2 0 1 1;
#X connect 3 0 4 0;
#X connect 4 0 5 0;
#X connect 5 0 6 0;
#X connect 6 0 18 0;
#X connect 7 0 3 0;
#X connect 7 0 0 0;
#X connect 8 0 1 0;
#X connect 9 0 7 0;
#X connect 9 0 14 1;
#X connect 11 0 14 0;
#X connect 12 0 10 0;
#X connect 14 0 2 0;
#X connect 17 0 8 0;
#X connect 18 0 0 1;
#X restore 71 185 pd splicetrans;
#X connect 0 0 11 0;
#X connect 1 0 9 0;
#X connect 2 0 0 0;
#X connect 3 0 2 0;
#X connect 7 0 2 1;
#X connect 8 0 11 1;
#X connect 9 0 5 0;
#X connect 11 0 1 0;
#X restore 39 123 pd sigment -1;
#N canvas 783 248 508 458 sigment 0;
#X obj 71 154 wrap~;
#X obj 71 216 -~ 0.5;
#X obj 70 52 inlet~;
#X text 70 34 phasor~;
#X obj 70 277 outlet~;
#X obj 159 51 inlet~;
#X text 161 32 freq~;
#N canvas 996 209 450 300 splicetrans 0;
#X obj 53 384 -~;
#X obj 177 225 /~;
#X obj 194 202 clip~ 1 999999;
#X obj 69 255 *~;
#X obj 69 279 clip~ -0.5 0.5;
#X obj 69 303 *~ 1000;
#X obj 69 327 +~ 501;
#X obj 52 207 -~ 0.5;
#X obj 177 174 * 0.4;
#X obj 52 128 inlet~;
#X obj 52 429 outlet~;
#X obj 272 131 inlet~;
#X obj 53 406 +~ 0.5;
#X text 271 113 frequency of phasor;
#X obj 272 170 samphold~;
#X text 53 453 out: transition spliced \, bandlimited phasor from 0-1
;
#X text 50 105 in: phasor 0-1;
#X obj 177 133 r \$0-nyquist;
#X obj 69 351 tabread~ \$0-transition;
#X text 244 354 for best quality use tabread4~ here \, but tabread~
also works okay and is about twice as fast.;
#N canvas 228 198 627 317 LICENSE-BSD 0;
#X text 121 56 This software is copyrighted by Miller Puckette \, Reality
Jockey Ltd. and others. The terms (the "Standard Improved BSD License")
apply to all files associated with the software unless explicitly disclaimed
in individual files.;
#X text 123 148 See the file LICENSE.txt for the full license text.
;
#X restore 389 18 pd LICENSE-BSD;
#X connect 0 0 12 0;
#X connect 1 0 3 1;
#X connect 2 0 1 1;
#X connect 3 0 4 0;
#X connect 4 0 5 0;
#X connect 5 0 6 0;
#X connect 6 0 18 0;
#X connect 7 0 3 0;
#X connect 7 0 0 0;
#X connect 8 0 1 0;
#X connect 9 0 7 0;
#X connect 9 0 14 1;
#X connect 11 0 14 0;
#X connect 12 0 10 0;
#X connect 14 0 2 0;
#X connect 17 0 8 0;
#X connect 18 0 0 1;
#X restore 71 183 pd splicetrans;
#X obj 71 132 -~ 0.17;
#X connect 0 0 7 0;
#X connect 1 0 4 0;
#X connect 2 0 8 0;
#X connect 5 0 7 1;
#X connect 7 0 1 0;
#X connect 8 0 0 0;
#X restore 142 123 pd sigment 1;
#X obj 34 250 outlet~;
#X obj 33 185 *~ 2;
#X obj 34 214 -~ 0.66;
#X connect 0 0 2 0;
#X connect 0 0 3 0;
#X connect 1 0 2 1;
#X connect 1 0 3 1;
#X connect 2 0 5 0;
#X connect 3 0 5 0;
#X connect 5 0 6 0;
#X connect 6 0 4 0;
#X restore 103 406 pd pulse;
#N canvas 284 592 450 300 pulse 1;
#X obj 33 15 inlet~;
#X obj 109 13 inlet~;
#N canvas 525 283 512 505 sigment 0;
#X obj 71 154 wrap~;
#X obj 71 216 -~ 0.5;
#X obj 71 132 -~;
#X obj 70 52 inlet~;
#X text 70 34 phasor~;
#X obj 70 277 outlet~;
#X text 261 29 phase;
#X obj 259 50 inlet~;
#X obj 159 51 inlet~;
#X obj 70 253 *~ -1;
#X text 161 32 freq~;
#N canvas 996 209 544 429 splicetrans 0;
#X obj 53 384 -~;
#X obj 177 225 /~;
#X obj 194 202 clip~ 1 999999;
#X obj 69 255 *~;
#X obj 69 279 clip~ -0.5 0.5;
#X obj 69 303 *~ 1000;
#X obj 69 327 +~ 501;
#X obj 52 207 -~ 0.5;
#X obj 177 174 * 0.4;
#X obj 52 128 inlet~;
#X obj 52 429 outlet~;
#X obj 272 131 inlet~;
#X obj 53 406 +~ 0.5;
#X text 271 113 frequency of phasor;
#X obj 272 170 samphold~;
#X text 53 453 out: transition spliced \, bandlimited phasor from 0-1
;
#X text 50 105 in: phasor 0-1;
#X obj 177 133 r \$0-nyquist;
#X obj 69 351 tabread~ \$0-transition;
#X text 244 354 for best quality use tabread4~ here \, but tabread~
also works okay and is about twice as fast.;
#N canvas 228 198 627 317 LICENSE-BSD 0;
#X text 121 56 This software is copyrighted by Miller Puckette \, Reality
Jockey Ltd. and others. The terms (the "Standard Improved BSD License")
apply to all files associated with the software unless explicitly disclaimed
in individual files.;
#X text 123 148 See the file LICENSE.txt for the full license text.
;
#X restore 389 18 pd LICENSE-BSD;
#X connect 0 0 12 0;
#X connect 1 0 3 1;
#X connect 2 0 1 1;
#X connect 3 0 4 0;
#X connect 4 0 5 0;
#X connect 5 0 6 0;
#X connect 6 0 18 0;
#X connect 7 0 3 0;
#X connect 7 0 0 0;
#X connect 8 0 1 0;
#X connect 9 0 7 0;
#X connect 9 0 14 1;
#X connect 11 0 14 0;
#X connect 12 0 10 0;
#X connect 14 0 2 0;
#X connect 17 0 8 0;
#X connect 18 0 0 1;
#X restore 71 185 pd splicetrans;
#X connect 0 0 11 0;
#X connect 1 0 9 0;
#X connect 2 0 0 0;
#X connect 3 0 2 0;
#X connect 7 0 2 1;
#X connect 8 0 11 1;
#X connect 9 0 5 0;
#X connect 11 0 1 0;
#X restore 39 123 pd sigment -1;
#N canvas 783 248 508 458 sigment 0;
#X obj 71 154 wrap~;
#X obj 71 216 -~ 0.5;
#X obj 70 52 inlet~;
#X obj 70 277 outlet~;
#X obj 159 51 inlet~;
#N canvas 996 209 450 300 splicetrans 0;
#X obj 53 384 -~;
#X obj 177 225 /~;
#X obj 194 202 clip~ 1 999999;
#X obj 69 255 *~;
#X obj 69 279 clip~ -0.5 0.5;
#X obj 69 303 *~ 1000;
#X obj 69 327 +~ 501;
#X obj 52 207 -~ 0.5;
#X obj 177 174 * 0.4;
#X obj 52 128 inlet~;
#X obj 52 429 outlet~;
#X obj 272 131 inlet~;
#X obj 53 406 +~ 0.5;
#X obj 272 170 samphold~;
#X obj 177 133 r \$0-nyquist;
#X obj 69 351 tabread~ \$0-transition;
#X connect 0 0 12 0;
#X connect 1 0 3 1;
#X connect 2 0 1 1;
#X connect 3 0 4 0;
#X connect 4 0 5 0;
#X connect 5 0 6 0;
#X connect 6 0 15 0;
#X connect 7 0 3 0;
#X connect 7 0 0 0;
#X connect 8 0 1 0;
#X connect 9 0 7 0;
#X connect 9 0 13 1;
#X connect 11 0 13 0;
#X connect 12 0 10 0;
#X connect 13 0 2 0;
#X connect 14 0 8 0;
#X connect 15 0 0 1;
#X restore 71 183 pd splicetrans;
#X obj 71 132 -~ 0.17;
#X connect 0 0 5 0;
#X connect 1 0 3 0;
#X connect 2 0 6 0;
#X connect 4 0 5 1;
#X connect 5 0 1 0;
#X connect 6 0 0 0;
#X restore 142 123 pd sigment 1;
#X obj 34 250 outlet~;
#X obj 33 185 *~ 2;
#X obj 34 214 -~ 0.66;
#X connect 0 0 2 0;
#X connect 0 0 3 0;
#X connect 1 0 2 1;
#X connect 1 0 3 1;
#X connect 2 0 5 0;
#X connect 3 0 5 0;
#X connect 5 0 6 0;
#X connect 6 0 4 0;
#X restore 235 408 pd pulse;
#X msg 321 427 \$1 2;
#X msg 323 554 \$1 3;
#X connect 0 0 7 0;
#X connect 1 0 4 0;
#X connect 1 0 20 0;
#X connect 3 1 15 0;
#X connect 4 0 6 0;
#X connect 5 0 34 0;
#X connect 6 0 5 0;
#X connect 6 1 5 1;
#X connect 7 0 3 0;
#X connect 8 0 10 0;
#X connect 9 0 1 0;
#X connect 9 1 12 0;
#X connect 10 0 9 0;
#X connect 11 0 24 0;
#X connect 12 0 43 0;
#X connect 13 0 11 1;
#X connect 14 0 23 0;
#X connect 15 1 11 0;
#X connect 16 0 22 0;
#X connect 16 0 30 0;
#X connect 17 0 0 0;
#X connect 18 0 37 0;
#X connect 18 0 40 1;
#X connect 19 0 36 0;
#X connect 19 0 41 1;
#X connect 20 0 17 0;
#X connect 20 0 18 0;
#X connect 20 0 19 0;
#X connect 20 0 38 1;
#X connect 20 0 39 0;
#X connect 21 0 20 1;
#X connect 22 0 21 0;
#X connect 23 0 5 0;
#X connect 23 1 3 2;
#X connect 23 1 15 2;
#X connect 23 2 32 0;
#X connect 23 3 29 0;
#X connect 24 0 2 0;
#X connect 25 0 24 1;
#X connect 26 0 25 0;
#X connect 27 0 3 1;
#X connect 27 0 15 1;
#X connect 28 0 16 0;
#X connect 29 0 28 0;
#X connect 30 0 25 1;
#X connect 31 0 22 1;
#X connect 31 0 33 0;
#X connect 32 0 31 0;
#X connect 33 0 30 1;
#X connect 34 0 42 0;
#X connect 36 0 41 0;
#X connect 37 0 40 0;
#X connect 38 0 3 0;
#X connect 39 0 38 0;
#X connect 40 0 3 0;
#X connect 41 0 3 0;
#X connect 42 0 27 0;
#X connect 43 0 13 0;
