#N canvas 747 79 793 751 10;
#X obj 87 13 inlet~;
#N canvas 0 50 450 699 lfo 0;
#X obj 31 634 +~;
#X obj 29 144 phasor~;
#X obj 30 229 min~;
#X obj 56 184 *~ -1;
#X obj 55 206 +~ 1;
#X obj 179 448 + 0.2;
#X obj 48 553 line~;
#X msg 48 521 \$1 10;
#X obj 30 581 *~;
#X obj 286 656 outlet~;
#X obj 179 505 line~;
#X msg 179 475 \$1 10;
#X obj 29 38 * 5;
#X obj 94 13 r \$0-on;
#X obj 94 37 sel 1;
#X obj 32 661 outlet~;
#X obj 31 267 *~ 2;
#X obj 132 340 t b f;
#X obj 179 386 pow 3;
#X obj 179 419 * 1.8;
#X obj 48 424 / 1;
#X obj 132 313 + 1;
#X msg 94 62 0.5;
#X obj 179 309 r \$0-tone;
#X obj 29 -15 r \$0-rate;
#X obj 48 310 r \$0-depth;
#X obj 29 114 line~;
#X msg 29 84 \$1 10;
#X obj 48 338 * 5;
#X obj 29 13 pow 4;
#X obj 48 494 * 1;
#X obj 179 337 * -1;
#X obj 179 361 + 1;
#X connect 0 0 15 0;
#X connect 1 0 2 0;
#X connect 1 0 3 0;
#X connect 2 0 16 0;
#X connect 3 0 4 0;
#X connect 4 0 2 1;
#X connect 5 0 11 0;
#X connect 6 0 8 1;
#X connect 7 0 6 0;
#X connect 8 0 0 0;
#X connect 10 0 0 1;
#X connect 11 0 10 0;
#X connect 12 0 27 0;
#X connect 13 0 14 0;
#X connect 14 0 22 0;
#X connect 16 0 8 0;
#X connect 16 0 9 0;
#X connect 17 0 20 0;
#X connect 17 1 20 1;
#X connect 18 0 19 0;
#X connect 19 0 5 0;
#X connect 20 0 30 0;
#X connect 21 0 17 0;
#X connect 22 0 1 1;
#X connect 23 0 31 0;
#X connect 24 0 29 0;
#X connect 25 0 28 0;
#X connect 26 0 1 0;
#X connect 27 0 26 0;
#X connect 28 0 20 0;
#X connect 29 0 12 0;
#X connect 29 0 21 0;
#X connect 30 0 7 0;
#X connect 31 0 32 0;
#X connect 32 0 18 0;
#X restore 262 132 pd lfo;
#X obj 616 72 hsl 128 15 0 1 0 0 \$0-rate \$0-rate rate -2 -8 0 10
-262144 -1 -1 12700 1;
#X obj 616 107 hsl 128 15 0 1 0 0 \$0-depth \$0-depth depth -2 -8 0
10 -262144 -1 -1 12700 1;
#X obj 616 142 hsl 128 15 0 1 0 0 \$0-tone \$0-tone tone -2 -8 0 10
-262144 -1 -1 12700 1;
#X obj 616 177 hsl 128 15 0 1 0 0 \$0-intensity \$0-intensity intensity
-2 -8 0 10 -262144 -1 -1 12600 1;
#X obj 689 37 tgl 15 0 \$0-mode \$0-mode mode 17 7 0 10 -262144 -1
-1 1 1;
#X obj 208 510 *~;
#X obj 294 506 *~;
#X obj 620 37 tgl 15 0 \$0-on \$0-on on/off 17 7 0 10 -262144 -1 -1
1 1;
#N canvas 184 417 453 459 woosh 0;
#X obj 41 423 delwrite~ \$0-del 10;
#X obj 41 22 inlet~;
#N canvas 0 50 450 300 softclip 0;
#X obj 48 16 inlet~;
#N canvas 0 50 450 300 dist 0;
#X obj 44 176 /~ 2;
#X msg 94 163 1;
#X obj 94 196 -~;
#X obj 163 132 *~;
#X obj 44 236 *~;
#X obj 43 36 inlet~;
#X obj 45 268 outlet~;
#X obj 94 133 loadbang;
#X obj 164 161 /~ 3;
#X obj 43 143 *~ 3;
#X connect 0 0 4 0;
#X connect 1 0 2 0;
#X connect 2 0 4 1;
#X connect 3 0 8 0;
#X connect 4 0 6 0;
#X connect 5 0 3 0;
#X connect 5 0 3 1;
#X connect 5 0 9 0;
#X connect 7 0 1 0;
#X connect 8 0 2 1;
#X connect 9 0 0 0;
#X restore 48 79 pd dist;
#X obj 48 253 outlet~;
#N canvas 261 235 450 300 hypertan 0;
#X obj 109 39 inlet~;
#X obj 108 233 /~;
#X obj 142 105 abs~;
#X obj 144 162 +~ 1;
#X obj 109 260 outlet~;
#X obj 144 202 pow~ 0.4;
#X obj 230 56 loadbang;
#X msg 230 162 0.4;
#X obj 143 135 pow~ 2.5;
#X msg 196 105 2.5;
#X connect 0 0 2 0;
#X connect 0 0 1 0;
#X connect 1 0 4 0;
#X connect 2 0 8 0;
#X connect 3 0 5 0;
#X connect 5 0 1 1;
#X connect 6 0 7 0;
#X connect 6 0 9 0;
#X connect 7 0 5 1;
#X connect 8 0 3 0;
#X connect 9 0 8 1;
#X restore 47 168 pd hypertan;
#X obj 46 141 lop~ 2500;
#X obj 47 197 lop~ 2500;
#X obj 45 49 *~ 2;
#X obj 47 225 *~ 0.5;
#X obj 47 110 *~ 1;
#X connect 0 0 6 0;
#X connect 1 0 8 0;
#X connect 3 0 5 0;
#X connect 4 0 3 0;
#X connect 5 0 7 0;
#X connect 6 0 1 0;
#X connect 7 0 2 0;
#X connect 8 0 4 0;
#X restore 279 119 pd softclip;
#X obj 75 364 *~;
#X obj 223 23 inlet~;
#X obj 223 222 vd~ \$0-del;
#X obj 223 413 outlet~;
#X obj 76 235 line~;
#X msg 76 208 \$1 10;
#X obj 124 102 * 2;
#X obj 124 126 - 1;
#X obj 124 151 t b f;
#X obj 299 174 block~ 1 1 1;
#X obj 76 184 * 1;
#X obj 124 77 r \$0-mode;
#X obj 76 52 r \$0-intensity;
#X obj 42 396 hip~ 750;
#X obj 94 305 lop~ 1000;
#X obj 76 77 * 1;
#X connect 1 0 16 0;
#X connect 3 0 16 0;
#X connect 4 0 5 0;
#X connect 5 0 6 0;
#X connect 5 0 17 0;
#X connect 7 0 3 0;
#X connect 8 0 7 0;
#X connect 9 0 10 0;
#X connect 10 0 11 0;
#X connect 11 0 13 0;
#X connect 11 1 13 1;
#X connect 13 0 8 0;
#X connect 14 0 9 0;
#X connect 15 0 18 0;
#X connect 16 0 0 0;
#X connect 17 0 3 1;
#X connect 17 0 6 0;
#X connect 18 0 13 0;
#X restore 210 178 pd woosh;
#X obj 153 229 r \$0-on;
#X obj 87 501 *~;
#X obj 209 360 *~;
#X obj 227 329 *;
#X obj 234 297 t b f;
#X obj 227 218 r \$0-mode;
#X obj 135 361 *~;
#X obj 105 396 * -1;
#X obj 105 420 + 1;
#X obj 153 266 * 0.75;
#X obj 227 245 * 2;
#X obj 227 270 - 1;
#X obj 616 212 hsl 128 15 0 1 0 0 \$0-stereo-panning \$0-stereo-panning
stereo-panning -2 -8 0 10 -262144 -1 -1 6350 1;
#X obj 379 351 *~ -1;
#X obj 380 378 +~ 1;
#X obj 411 316 * -1;
#X obj 303 382 +~ 0;
#X obj 302 301 *~ 1;
#X obj 328 332 * -1;
#X obj 328 356 + 1;
#X obj 411 238 r \$0-stereo-panning;
#X obj 88 663 outlet~;
#X obj 194 665 outlet~;
#N canvas 773 362 997 300 init_and_midi 1;
#X obj 10 51 loadbang;
#X obj 87 51 loadbang;
#X obj 169 50 loadbang;
#X obj 169 234 s \$0-rate;
#X obj 190 161 / 127;
#X obj 250 51 loadbang;
#X obj 271 162 / 127;
#X obj 332 53 loadbang;
#X obj 353 164 / 127;
#X obj 415 53 loadbang;
#X obj 436 164 / 127;
#X obj 528 53 loadbang;
#X obj 549 164 / 127;
#X obj 10 235 s \$0-on;
#X obj 87 234 s \$0-mode;
#X obj 250 235 s \$0-depth;
#X obj 415 237 s \$0-intensity;
#X obj 332 237 s \$0-tone;
#X obj 528 237 s \$0-stereo-panning;
#X msg 10 77 1;
#X msg 87 77 1;
#X msg 250 77 0.5;
#X msg 332 79 0.5;
#X msg 415 79 0.5;
#X msg 528 79 0.5;
#X msg 169 76 0.5;
#X obj 20 129 notein;
#X obj 20 192 sel 1;
#X obj 99 132 notein;
#X obj 99 193 sel 2;
#X obj 20 162 stripnote;
#X obj 99 163 stripnote;
#X obj 190 136 ctlin 1;
#X obj 271 137 ctlin 2;
#X obj 353 139 ctlin 3;
#X obj 436 139 ctlin 4;
#X obj 549 139 ctlin 5;
#X obj 679 52 loadbang;
#X obj 700 163 / 127;
#X msg 679 78 0.8;
#X obj 700 138 ctlin 6;
#X obj 679 236 s volume;
#X connect 0 0 19 0;
#X connect 1 0 20 0;
#X connect 2 0 25 0;
#X connect 4 0 3 0;
#X connect 5 0 21 0;
#X connect 6 0 15 0;
#X connect 7 0 22 0;
#X connect 8 0 17 0;
#X connect 9 0 23 0;
#X connect 10 0 16 0;
#X connect 11 0 24 0;
#X connect 12 0 18 0;
#X connect 19 0 13 0;
#X connect 20 0 14 0;
#X connect 21 0 15 0;
#X connect 22 0 17 0;
#X connect 23 0 16 0;
#X connect 24 0 18 0;
#X connect 25 0 3 0;
#X connect 26 0 30 0;
#X connect 26 1 30 1;
#X connect 27 0 13 0;
#X connect 28 0 31 0;
#X connect 28 1 31 1;
#X connect 29 0 14 0;
#X connect 30 0 27 0;
#X connect 31 0 29 0;
#X connect 32 0 4 0;
#X connect 33 0 6 0;
#X connect 34 0 8 0;
#X connect 35 0 10 0;
#X connect 36 0 12 0;
#X connect 37 0 39 0;
#X connect 38 0 41 0;
#X connect 39 0 41 0;
#X connect 40 0 38 0;
#X restore 487 378 pd init_and_midi;
#X obj 191 558 +~;
#X obj 276 558 +~;
#X obj 153 331 line~;
#X msg 153 304 \$1 10;
#X obj 105 474 line~;
#X msg 105 447 \$1 10;
#X obj 276 601 *~ 0.5;
#X obj 190 600 *~ 0.5;
#X obj 211 130 *~ 2;
#X connect 0 0 17 0;
#X connect 0 0 12 0;
#X connect 0 0 43 0;
#X connect 1 0 10 1;
#X connect 1 1 28 0;
#X connect 1 1 24 0;
#X connect 7 0 35 1;
#X connect 8 0 36 1;
#X connect 10 0 13 0;
#X connect 11 0 18 0;
#X connect 11 0 20 0;
#X connect 12 0 32 0;
#X connect 12 0 33 0;
#X connect 13 0 7 0;
#X connect 13 0 8 0;
#X connect 14 0 13 1;
#X connect 15 0 14 0;
#X connect 15 1 14 1;
#X connect 16 0 21 0;
#X connect 17 0 35 0;
#X connect 17 0 36 0;
#X connect 18 0 19 0;
#X connect 19 0 40 0;
#X connect 20 0 15 0;
#X connect 20 0 38 0;
#X connect 21 0 22 0;
#X connect 22 0 14 0;
#X connect 24 0 25 0;
#X connect 25 0 8 1;
#X connect 26 0 24 1;
#X connect 27 0 7 1;
#X connect 28 0 27 0;
#X connect 29 0 30 0;
#X connect 30 0 27 1;
#X connect 31 0 26 0;
#X connect 31 0 29 0;
#X connect 31 0 28 1;
#X connect 35 0 42 0;
#X connect 36 0 41 0;
#X connect 37 0 17 1;
#X connect 38 0 37 0;
#X connect 39 0 12 1;
#X connect 40 0 39 0;
#X connect 41 0 33 0;
#X connect 42 0 32 0;
#X connect 43 0 10 0;
#X coords 0 -1 1 1 160 240 1 600 10;
